<?xml version="1.0" encoding="UTF-8"?>
<svg width="56px" height="56px" viewBox="0 0 56 56" version="1.1" xmlns="http://www.w3.org/2000/svg" xmlns:xlink="http://www.w3.org/1999/xlink">
    <!-- Generator: Sketch 60 (88103) - https://sketch.com -->
    <title>我的卡券备份</title>
    <desc>Created with Sketch.</desc>
    <g id="页面-1" stroke="none" stroke-width="1" fill="none" fill-rule="evenodd">
        <g id="我的卡券备份" transform="translate(-292.000000, -126.000000)">
            <g id="编组" transform="translate(281.000000, 116.000000)">
                <g id="印章" transform="translate(1.000000, 0.000000)">
                    <g id="编组" transform="translate(37.630267, 38.112859) rotate(33.000000) translate(-37.630267, -38.112859) translate(10.130267, 10.612859)">
                        <circle id="椭圆形" stroke="#FFFFFF" stroke-width="1.5" cx="27.056962" cy="27.056962" r="26.306962"></circle>
                        <circle id="椭圆形" stroke="#FFFFFF" cx="27.056962" cy="27.056962" r="23.7088608"></circle>
                        <text id="已使用" font-family="PingFangSC-Regular, PingFang SC" font-size="12" font-weight="normal" letter-spacing="1.5" fill="#FFFFFF">
                            <tspan x="7.59493671" y="31.556962">已使用</tspan>
                        </text>
                        <path d="M39.8157368,20.8017664 C37.4417391,16.4563292 32.8296254,13.5087719 27.5290728,13.5087719 C22.3709475,13.5087719 17.864761,16.300054 15.4385965,20.4545352 M15.9227773,35.3158903 C18.4365134,39.0413656 22.6966951,41.4912281 27.5290728,41.4912281 C32.1265954,41.4912281 36.2061883,39.2737073 38.7566226,35.8498946" id="形状" stroke="#FFFFFF" stroke-linecap="round"></path>
                        <polygon id="星形" fill="#FFFFFF" points="27.9824561 10.1315789 26.2809725 11.0261018 26.605927 9.13147197 25.2293978 7.78968765 27.1317143 7.51326488 27.9824561 5.78947368 28.833198 7.51326488 30.7355145 7.78968765 29.3589853 9.13147197 29.6839398 11.0261018"></polygon>
                        <polygon id="星形备份" fill="#FFFFFF" points="18.3333333 13.0263158 16.6318497 13.9208387 16.9568042 12.0262088 15.580275 10.6844245 17.4825915 10.4080017 18.3333333 8.68421053 19.1840751 10.4080017 21.0863917 10.6844245 19.7098625 12.0262088 20.034817 13.9208387"></polygon>
                        <polygon id="星形备份-2" fill="#FFFFFF" points="37.6315789 13.0263158 35.9300953 13.9208387 36.2550498 12.0262088 34.8785206 10.6844245 36.7808371 10.4080017 37.6315789 8.68421053 38.4823208 10.4080017 40.3846373 10.6844245 39.0081081 12.0262088 39.3330626 13.9208387"></polygon>
                        <polygon id="星形备份-3" fill="#FFFFFF" points="18.3333333 44.8684211 16.6318497 45.7629439 16.9568042 43.8683141 15.580275 42.5265298 17.4825915 42.250107 18.3333333 40.5263158 19.1840751 42.250107 21.0863917 42.5265298 19.7098625 43.8683141 20.034817 45.7629439"></polygon>
                        <polygon id="星形备份-4" fill="#FFFFFF" points="27.9824561 48.7280702 26.2809725 49.6225931 26.605927 47.7279632 25.2293978 46.3861789 27.1317143 46.1097561 27.9824561 44.3859649 28.833198 46.1097561 30.7355145 46.3861789 29.3589853 47.7279632 29.6839398 49.6225931"></polygon>
                        <polygon id="星形备份-5" fill="#FFFFFF" points="37.6315789 44.8684211 35.9300953 45.7629439 36.2550498 43.8683141 34.8785206 42.5265298 36.7808371 42.250107 37.6315789 40.5263158 38.4823208 42.250107 40.3846373 42.5265298 39.0081081 43.8683141 39.3330626 45.7629439"></polygon>
                    </g>
                </g>
            </g>
        </g>
    </g>
</svg>