<?xml version="1.0" encoding="UTF-8"?>
<svg width="30px" height="30px" viewBox="0 0 30 30" version="1.1" xmlns="http://www.w3.org/2000/svg" xmlns:xlink="http://www.w3.org/1999/xlink">
    <!-- Generator: Sketch 60 (88103) - https://sketch.com -->
    <title>饮品</title>
    <desc>Created with Sketch.</desc>
    <g id="页面-1" stroke="none" stroke-width="1" fill="none" fill-rule="evenodd">
        <g id="商城备份" transform="translate(-40.000000, -318.000000)" fill-rule="nonzero">
            <g id="编组-7" transform="translate(15.000000, 227.000000)">
                <g id="饮品" transform="translate(25.000000, 91.000000)">
                    <polygon id="路径" fill="#FFFFFF" points="2.35483871 7.32258065 12.795685 19.9677419 23.1290323 7.49753038 2.35483871 7.32259369"></polygon>
                    <path d="M18.6129032,6.41935416 L18.6129032,6.41935484 C18.6129032,8.91354189 20.6348426,10.9354839 23.1290323,10.9354839 C25.6232193,10.9354839 27.6451613,8.9135445 27.6451613,6.41935484 L27.6451613,6.41935484 C27.6451613,3.92516779 25.6232245,1.90322581 23.1290323,1.90322581 C20.6348452,1.90322581 18.6129032,3.92516257 18.6129032,6.41935484 L18.6129032,6.41935416 Z" id="路径" fill="#FFFFFF"></path>
                    <path d="M23.5389602,1.90322581 L23.5389605,1.90322581 C23.0951989,1.90456453 22.6535936,1.96459816 22.2258065,2.08174198 L22.2258065,2.08174196 C24.8921328,2.7984123 26.4683731,5.52507855 25.7464318,8.17194912 C25.2827177,9.87207231 23.9463812,11.2010626 22.2345899,11.6645076 L22.2345896,11.6645075 C24.9018027,12.3821201 27.6500274,10.8174414 28.3729037,8.1696989 C29.0957941,5.5219592 27.5196077,2.79379942 24.8523917,2.0762009 C24.4242335,1.96100486 23.9825431,1.90284233 23.5389374,1.90322581 L23.5389602,1.90322581 Z" id="路径" fill="#65A347"></path>
                    <path d="M20.4196295,6.41931951 L20.4196295,6.41902189 C20.4196298,8.25087953 21.4417892,9.95519833 23.1283559,10.9354839 L23.1283557,10.9354839 C25.846699,9.35667181 26.6554533,6.05486498 24.9347513,3.56066797 C24.4736933,2.89235674 23.8567277,2.32626275 23.1283557,1.90322581 L23.1283555,1.90322581 C21.4417357,2.88324888 20.4194522,4.58741074 20.4193548,6.41917367 L20.4196295,6.41931951 Z" id="路径" fill="#9BD37A"></path>
                    <path d="M22.777158,7.42253328 C22.777158,7.42253328 18.8715855,7.19763985 18.67904,7.42253328 L12.2903226,19.8456388 L12.2903226,19.8456388 C12.4153984,19.990545 12.6372424,20.0091289 12.7858234,19.8871475 C12.8012009,19.874523 12.8154401,19.8606359 12.8283851,19.8456388 L23.0465942,7.98662312 L23.0465942,7.98662311 C23.1716152,7.84140173 23.1522533,7.62483331 23.003348,7.50290528 C22.939986,7.45102262 22.859912,7.42256061 22.7771782,7.42251463 L22.777158,7.42253328 Z" id="路径" fill="#FFAC1F"></path>
                    <path d="M6.02986498,7.96999473 L12.7418682,19.9677419 L19.4542653,7.96999473 C19.5974792,7.7137988 19.4760846,7.32258065 19.253528,7.32258065 L6.23059277,7.32258065 C6.0076394,7.32335 5.88624352,7.71456875 6.02985513,7.96999473 L6.02986498,7.96999473 Z" id="路径" fill="#FECD57"></path>
                    <path d="M12.7423962,20.8709677 L12.7423962,20.8709677 C12.449298,20.8709677 12.1712903,20.7390731 11.9832321,20.5109538 L1.68492027,8.07596409 L1.6849202,8.07596401 C1.33174577,7.65014976 1.38562654,7.01444212 1.805266,6.65607232 C1.98441982,6.50307602 2.21108814,6.41935484 2.44524703,6.41935484 L23.0391519,6.41935484 L23.039152,6.41935484 C23.587846,6.4195751 24.0322581,6.87110145 24.0322581,7.42786708 C24.0322581,7.66513729 23.9495996,7.89477274 23.7990913,8.07635692 L18.8126213,14.0990953 L18.8126213,14.0990952 C18.5856564,14.3732455 18.1826447,14.4087912 17.9124692,14.1784867 C17.6422934,13.9481831 17.6072629,13.5392429 17.8342287,13.2650929 L22.4298846,7.71593974 L3.05529987,7.71593974 L12.7424138,19.4135912 L16.0436131,15.4267257 L16.0436131,15.4267257 C16.2708988,15.152901 16.673911,15.1178852 16.9437652,15.3485133 C17.2136203,15.5791424 17.2481284,15.9880832 17.0208438,16.2619071 C17.0208438,16.2619071 17.0208438,16.2619071 17.0208438,16.2619071 L13.5035172,20.5113274 L13.5035172,20.5113274 C13.3146484,20.7394288 13.0360205,20.8709677 12.7424143,20.8709677 L12.7423962,20.8709677 Z" id="路径" fill="#0E6256"></path>
                    <path d="M12.7416618,29 L12.7416618,29 C12.4923935,29 12.2903226,28.7276277 12.2903226,28.391659 L12.2903226,20.5764346 L12.2903226,20.5764346 C12.2903226,20.2402645 12.4925158,19.9677419 12.7419355,19.9677419 C12.9913532,19.9677419 13.1935484,20.2402619 13.1935484,20.5764346 C13.1935484,20.5764346 13.1935484,20.5764346 13.1935484,20.5764346 L13.1935484,28.3927838 L13.1935484,28.392769 C13.1931014,28.7285912 12.9908351,29.0003997 12.7416735,29 L12.7416618,29 Z" id="路径" fill="#0E6256"></path>
                    <path d="M15.906818,29 L8.45711046,29 L8.45711044,29 C8.1049827,29 7.81952378,28.7150909 7.81952378,28.3636352 C7.81952378,28.0121823 8.10497996,27.7272705 8.45711044,27.7272705 L15.906818,27.7272705 L15.906818,27.7272705 C16.2589457,27.7272705 16.5444047,28.0121796 16.5444047,28.3636352 C16.5444047,28.7150881 16.2589485,29 15.906818,29 L15.906818,29 Z M11.6786604,13.5344444 L11.6786604,13.5344444 C11.4806556,13.5349674 11.2937434,13.4432587 11.1732278,13.286453 L2.48699371,2.02396854 L2.48699375,2.0239686 C2.2724086,1.74546911 2.3246557,1.34607514 2.60369103,1.13190178 C2.88272527,0.91772786 3.28288612,0.969874836 3.49747073,1.24837541 L12.1837048,12.5100942 L12.1837048,12.5100942 C12.3986114,12.7879648 12.3471358,13.1871072 12.0687306,13.4016032 C11.9577399,13.4871151 11.8215757,13.533676 11.6813643,13.5340621 L11.6786604,13.5344444 Z M23.0682501,12.2736769 L23.06825,12.2736769 C21.982905,12.275323 20.9217519,11.9537053 20.0205913,11.3499793 L20.0205913,11.3499793 C19.7242255,11.1605763 19.6378086,10.7672434 19.8275753,10.4714455 C20.017342,10.1756476 20.4114302,10.0893964 20.707796,10.2787994 C20.7158474,10.2839449 20.7237817,10.2892706 20.731593,10.2947725 L20.7315929,10.2947724 C22.6627667,11.5825854 25.2742725,11.0640388 26.5645528,9.13656596 C27.0266674,8.44624152 27.273285,7.6346425 27.2732138,6.80441341 L27.2732138,6.8044135 C27.2732137,6.45296059 27.5586699,6.16804873 27.9108004,6.16804873 C28.2629282,6.16804873 28.5483871,6.45295786 28.5483871,6.8044135 C28.5483871,6.8044135 28.5483871,6.8044135 28.5483871,6.8044135 C28.5476143,9.82000778 26.0900107,12.2736769 23.0682508,12.2736769 L23.0682501,12.2736769 Z M18.2264731,7.44080163 L18.2264731,7.44080163 C17.8745563,7.44080163 17.5892727,7.1560528 17.5892727,6.80481045 C17.5892727,3.78921617 20.0468765,1.33591108 23.0686418,1.33591108 L23.0686421,1.33591108 C24.7755627,1.33018689 26.3863569,2.1238988 27.419677,3.47990993 L27.419677,3.47990993 C27.6293616,3.76225958 27.5700163,4.16080312 27.2871256,4.37008722 C27.0106174,4.57464777 26.6213525,4.5232484 26.4076556,4.25396005 L26.4076556,4.25396003 C24.9966843,2.41319238 22.3577729,2.0625817 20.5134625,3.47084891 C19.4734273,4.26499642 18.8634819,5.49744695 18.8636627,6.8044369 L18.8636627,6.80444222 C18.8638732,7.15568184 18.5787599,7.44059096 18.2268459,7.44080163 C18.2267171,7.44080163 18.2265883,7.44080163 18.2264594,7.44080163 L18.2264731,7.44080163 Z" id="形状" fill="#0E6256"></path>
                </g>
            </g>
        </g>
    </g>
</svg>