<?xml version="1.0" encoding="UTF-8"?>
<svg width="30px" height="31px" viewBox="0 0 30 31" version="1.1" xmlns="http://www.w3.org/2000/svg" xmlns:xlink="http://www.w3.org/1999/xlink">
    <!-- Generator: Sketch 60 (88103) - https://sketch.com -->
    <title>编组</title>
    <desc>Created with Sketch.</desc>
    <g id="页面-1" stroke="none" stroke-width="1" fill="none" fill-rule="evenodd">
        <g id="商城备份" transform="translate(-128.000000, -317.000000)" fill="#FF6E4A" fill-rule="nonzero">
            <g id="编组-7" transform="translate(15.000000, 227.000000)">
                <g id="编组" transform="translate(113.000000, 90.800000)">
                    <path d="M23.114055,18.8173603 L14.537603,18.8173603 L13.2887513,20.1357907 L15.7262692,20.1357907 L15.7262692,27.8965517 L9.88826328,27.8965517 C8.14288008,27.8965517 6.62319298,26.7129608 6.20189359,24.9151011 L6.06647592,24.9151011 C5.64517653,24.9151011 5.22387714,24.8401902 4.87780978,24.8401902 C5.29910917,27.2673008 7.39055973,29.1400713 9.81303125,29.2 L23.114055,29.2 C25.9728723,29.1250892 28.2599261,26.6979786 28.1245085,23.8663496 C28.0492764,21.1096314 25.8976403,18.8922711 23.114055,18.8173603 Z M22.3466882,27.8216409 L17.7424877,27.8216409 C17.456606,27.8216409 17.1857706,27.4770511 17.1857706,26.9826397 C17.1857706,26.5631391 17.4716524,26.1436385 17.7424877,26.1436385 L22.3316418,26.1436385 C22.6175235,26.1436385 22.9635909,26.4882283 22.9635909,26.9826397 C22.9635909,27.4770511 22.6927556,27.8216409 22.3466882,27.8216409 Z M24.7842061,27.8216409 L24.4983244,27.8216409 C24.2124427,27.8216409 23.8663753,27.4770511 23.8663753,26.9826397 C23.8663753,26.5631391 24.1522571,26.1436385 24.4983244,26.1436385 L24.7089741,26.1436385 C24.9948558,26.1436385 25.3409232,26.4882283 25.3409232,26.9826397 C25.3409232,27.4770511 25.0550415,27.8216409 24.7842061,27.8216409 L24.7842061,27.8216409 Z M9.67761359,22.4280618 L19.0063859,12.8694411 C19.9844023,11.8956005 20.5411194,10.57717 20.5411194,9.19881094 C20.4658874,7.8803805 19.9844023,6.56195006 19.0063859,5.52818074 C18.0283694,4.55434007 16.7795177,4 15.4554338,4 C14.13135,4 12.8072662,4.53935791 11.9044818,5.51319857 L2.50047748,15.0718193 C0.544444583,17.0794293 0.544444583,20.345541 2.50047748,22.353151 C4.38127835,24.3008323 7.58616302,24.4356718 9.52714952,22.4879905 C9.60238155,22.4280618 9.67761359,22.4280618 9.67761359,22.4280618 Z M17.8929518,10.57717 L18.0283694,10.4423306 C18.2390191,10.2325803 18.5850865,10.2325803 18.7957362,10.4423306 C19.0063859,10.6520809 19.0063859,10.9966706 18.7957362,11.2064209 L18.6603185,11.3412604 C18.5850865,11.4161712 18.3744368,11.4760999 18.2390191,11.4760999 C18.1036015,11.4760999 17.9531374,11.4011891 17.8177197,11.3412604 C17.6823021,11.1315101 17.6823021,10.7719382 17.8929518,10.57717 L17.8929518,10.57717 Z M13.574633,15.0118906 L16.4936359,12.03044 C16.7795177,11.8206897 17.050353,11.8956005 17.2610027,12.1053508 C17.3964264,12.3152893 17.3964264,12.5845918 17.2610027,12.7945303 L14.2667677,15.8359096 C14.1915357,15.9108205 13.980886,16.0456599 13.8454683,15.9707491 C13.7100506,15.9707491 13.5595866,15.8958383 13.4241689,15.8359096 C13.2887513,15.5662307 13.2887513,15.2066587 13.574633,15.0118906 L13.574633,15.0118906 Z M3.4032619,21.5141498 C2.63589515,20.7500595 2.21459575,19.7762188 2.28982779,18.7424495 C2.28982779,17.7686088 2.71112718,16.7348395 3.4032619,15.9707491 L7.51093099,11.7457788 L12.8674519,17.2142687 L8.75978276,21.439239 C7.36046692,22.9674197 4.99818103,22.9674197 3.46344753,21.5141498 C3.47849393,21.5890606 3.4032619,21.5141498 3.4032619,21.5141498 L3.4032619,21.5141498 Z" id="形状"></path>
                </g>
            </g>
        </g>
    </g>
</svg>