<?xml version="1.0" encoding="UTF-8"?>
<svg width="30px" height="30px" viewBox="0 0 30 30" version="1.1" xmlns="http://www.w3.org/2000/svg" xmlns:xlink="http://www.w3.org/1999/xlink">
    <!-- Generator: Sketch 60 (88103) - https://sketch.com -->
    <title>娱乐</title>
    <desc>Created with Sketch.</desc>
    <g id="页面-1" stroke="none" stroke-width="1" fill="none" fill-rule="evenodd">
        <g id="商城备份" transform="translate(-217.000000, -318.000000)" fill-rule="nonzero">
            <g id="编组-7" transform="translate(15.000000, 227.000000)">
                <g id="娱乐" transform="translate(202.000000, 91.000000)">
                    <path d="M27,25.399963 L27,25.3999911 C26.9995571,26.2840841 26.2640137,27.0004327 25.3571166,27 C25.3571165,27 25.3571164,27 25.3571163,27 L5.6428551,27 C4.73561147,27 4,26.284014 4,25.3999611 L4,12.6000369 L4,12.6000089 C4.00044276,11.7159159 4.73598626,10.9995673 5.64288335,11 C5.64288348,11 5.64288361,11 5.64288374,11 L25.3571449,11 L25.3571449,11 C26.264042,10.9995839 26.9995739,11.7159459 27,12.6000389 C27,12.600039 27,12.6000391 27,12.6000393 L27,25.3999635 L27,25.399963 Z" id="路径" fill="#FFFECE"></path>
                    <path d="M16.625,12.7443468 L16.625,12.7443468 C17.5220406,12.743924 18.2495785,13.4717331 18.25,14.3699532 C18.25,14.3699534 18.25,14.3699535 18.25,14.3699536 L18.25,24.1235961 L18.25,24.1236247 C18.249562,25.0218449 17.5220127,25.7496402 16.6249721,25.7492006 C16.6249719,25.7492006 16.6249718,25.7492006 16.6249717,25.7492006 L6.87497171,25.7492006 C5.97758831,25.7492006 5.24997171,25.0217737 5.24997171,24.1235942 L5.24997171,14.3699517 L5.24997171,14.3699232 C5.25040965,13.471703 5.97795902,12.7439077 6.87499965,12.7443468 C6.87499978,12.7443468 6.87499991,12.7443468 6.87500003,12.7443468 L16.625,12.7443468 L16.625,12.7443468 Z M16.625,23.3103884 L16.625,15.1827385 L16.625,15.1827243 C16.624781,14.7336142 16.2610051,14.3697177 15.8124848,14.3699363 C15.8124847,14.3699363 15.8124846,14.3699363 15.8124846,14.3699363 L7.68748458,14.3699363 C7.23898458,14.3699363 6.87498458,14.7336498 6.87498458,15.1827395 L6.87498458,23.3107707 C6.87498458,23.7594765 7.23898458,24.1231899 7.68748458,24.1231899 L15.8124846,24.1231899 C16.261368,24.1231899 16.625,23.7594765 16.625,23.3103868 L16.625,23.3103884 Z M23.9375,24.1231915 L23.9375,24.1231915 C24.3858096,24.1094119 24.7603924,24.4621444 24.7741516,24.9110435 C24.787913,25.3599425 24.4356438,25.7350179 23.9873342,25.7487952 C23.9707266,25.7493056 23.9541073,25.7493056 23.9374995,25.7487952 L20.6874995,25.7487952 L20.6874995,25.7487952 C20.2391899,25.7625747 19.8646071,25.4098422 19.850848,24.9609432 C19.8370865,24.5120441 20.1893558,24.1369687 20.6376653,24.1231915 C20.654273,24.122681 20.6708923,24.122681 20.6875,24.1231915 L23.9375,24.1231915 L23.9375,24.1231915 Z M24.75,9.49350317 C26.5451477,9.49350317 28,10.948738 28,12.744319 L28,25.7487774 C28,27.5443711 26.5451477,29 24.75,29 L5.25,29 C3.45523574,29 2,27.5443838 2,25.7487774 L2,12.744319 C2,10.9487253 3.45523574,9.49350317 5.25,9.49350317 L12.7689766,9.49350317 L5.64192969,4.58796551 C5.26531309,4.32877279 5.15748926,3.79430667 5.40181207,3.39422171 C5.64537088,2.99375538 6.14854781,2.87966259 6.52516441,3.13885785 L15.0069027,8.92993927 C15.6668431,8.53176873 23.4748793,3.13885785 23.4748793,3.13885785 C23.8514959,2.87966513 24.3542912,2.99413852 24.5982316,3.39422171 C24.8425552,3.79430667 24.7347316,4.32877279 24.358114,4.58796551 L17.2310671,9.49350317 L24.7500437,9.49350317 L24.75,9.49350317 Z M26.375,25.7488028 L26.375,12.7443444 L26.375,12.7443158 C26.374562,11.8460957 25.6470127,11.1183003 24.7499721,11.1187399 C24.7499719,11.1187399 24.7499718,11.1187399 24.7499717,11.1187399 L5.24997167,11.1187399 L5.24997171,11.1187399 C4.35293109,11.1183171 3.6253932,11.8461262 3.6249717,12.7443438 C3.6249717,12.7443439 3.6249717,12.7443441 3.6249717,12.7443442 L3.6249717,25.7488025 L3.6249717,25.7487774 C3.62559111,26.6468603 4.35307326,27.3744497 5.24997423,27.3740253 L24.7499742,27.3740253 C25.6473576,27.3740253 26.375,26.6465984 26.375,25.7484189 L26.375,25.7488028 Z M22.3125,12.7443442 L22.3125,12.7443442 C23.6580609,12.74371 24.7493652,13.835421 24.75,15.1827513 C24.75,15.1827514 24.75,15.1827516 24.75,15.1827518 L24.75,15.1827947 C24.749343,16.5301249 23.6580177,17.6218167 22.3124568,17.6211611 C22.3124566,17.6211611 22.3124565,17.6211611 22.3124563,17.6211611 L22.3124564,17.6211611 C20.9668954,17.6217953 19.8755911,16.5300842 19.8749564,15.182754 C19.8749564,15.1827538 19.8749564,15.1827536 19.8749564,15.1827535 L19.8749564,15.1827108 C19.8756133,13.8353805 20.9669386,12.7436887 22.3124996,12.7443442 C22.3124997,12.7443442 22.3124999,12.7443442 22.3125001,12.7443442 L22.3125,12.7443442 Z M23.9375,21.6847999 L23.9375,21.6847999 C24.3858096,21.6710204 24.7603924,22.0237528 24.7741516,22.4726519 C24.787913,22.921551 24.4356438,23.2966263 23.9873342,23.3104036 C23.9707266,23.3109141 23.9541073,23.3109141 23.9374995,23.3104036 L20.6874995,23.3104036 L20.6874995,23.3104036 C20.2391899,23.3241831 19.8646071,22.9714507 19.850848,22.5225516 C19.8370865,22.0736525 20.1893558,21.6985772 20.6376653,21.6847999 C20.654273,21.6842894 20.6708923,21.6842894 20.6875,21.6847999 L23.9375,21.6847999 L23.9375,21.6847999 Z" id="形状" fill="#FF57CE"></path>
                    <path d="M17,23.166635 L17,23.1666496 C16.9997754,23.6271216 16.6266725,24.0002241 16.1666524,24 C16.1666523,24 16.1666522,24 16.1666522,24 L7.833332,24 L7.83333202,24 C7.37331191,24.0002168 7.00021615,23.6271059 7,23.166634 C7,23.1666339 7,23.1666339 7,23.1666338 L7,14.8333659 C7,14.3733084 7.37333274,14 7.83333202,14 L16.1666522,14 C16.6270447,14 17,14.3729148 17,14.8333659 L17,23.1670248 L17,23.166635 Z" id="路径" fill="#FFFFFF"></path>
                    <path d="M22.0000146,14 L22.0000145,14 C21.4484158,13.9993064 21.000694,14.4468105 21,14.9995277 C21,14.9996329 21,14.9997381 21,14.9998433 L21,14.9998153 C21.0005041,15.5527078 21.4482134,16.0005047 21.999985,16 C21.9999853,16 21.9999856,16 21.9999859,16 L21.9999858,16 C22.5517595,16.0005206 22.9994813,15.552735 23,14.9998445 C23,14.9998442 23,14.9998439 23,14.9998436 L23,14.9998716 C22.9994961,14.4471544 22.5519283,13.9994953 22.0003275,14 C22.0002225,14 22.0001175,14 22.0000125,14 L22.0000146,14 Z" id="路径" fill="#FFFFFF"></path>
                </g>
            </g>
        </g>
    </g>
</svg>