<?xml version="1.0" encoding="UTF-8"?>
<svg width="30px" height="30px" viewBox="0 0 30 30" version="1.1" xmlns="http://www.w3.org/2000/svg" xmlns:xlink="http://www.w3.org/1999/xlink">
    <!-- Generator: Sketch 60 (88103) - https://sketch.com -->
    <title>鲜花备份</title>
    <desc>Created with Sketch.</desc>
    <defs>
        <linearGradient x1="50%" y1="0%" x2="73.7506506%" y2="100%" id="linearGradient-1">
            <stop stop-color="#FFACE7" offset="0%"></stop>
            <stop stop-color="#F961BF" offset="100%"></stop>
            <stop stop-color="#F961BF" offset="100%"></stop>
        </linearGradient>
    </defs>
    <g id="页面-1" stroke="none" stroke-width="1" fill="none" fill-rule="evenodd">
        <g id="商城备份" transform="translate(-304.000000, -245.000000)">
            <g id="编组-7" transform="translate(15.000000, 227.000000)">
                <g id="鲜花备份" transform="translate(289.000000, 18.000000)">
                    <path d="M23.4912617,12.8105631 L25.0458974,13.5014659 L26.7379445,13.3247872 L26.5612657,15.0168343 L27.2521685,16.5714699 L25.5883394,16.9263097 L24.3232937,18.0638062 L23.4716695,16.5910622 L21.9989255,15.739438 L23.1364219,14.4743923 L23.4912617,12.8105631 Z M19.214251,6.91667989 L20.7688867,7.6075827 L22.4609338,7.43090393 L22.284255,9.12295102 L22.9751578,10.6775867 L21.3113286,11.0324265 L20.046283,12.169923 L19.1946588,10.6971789 L17.7219147,9.84555473 L18.8594112,8.58050905 L19.214251,6.91667989 Z M24.8060099,6.27603972 L26.2996486,6.93983459 L27.9253073,6.7700879 L27.7555606,8.39574663 L28.4193555,9.88938534 L26.8208076,10.2303028 L25.6053966,11.323169 L24.7871864,9.90820887 L23.3722262,9.0899986 L24.4650924,7.87458766 L24.8060099,6.27603972 Z M14.3384901,2.66971245 L15.8931258,3.36061525 L17.5851729,3.18393648 L17.4084941,4.87598358 L18.0993969,6.43061925 L16.4355678,6.78545906 L15.1705221,7.92295551 L14.3188979,6.45021148 L12.8461538,5.59858728 L13.9836503,4.33354161 L14.3384901,2.66971245 Z M21.0122014,1.62365552 L22.5058401,2.28745039 L24.1314988,2.1177037 L23.9617521,3.74336243 L24.625547,5.23700114 L23.0269991,5.57791862 L21.8115881,6.6707848 L20.9933779,5.25582466 L19.5784177,4.43761439 L20.6712839,3.22220346 L21.0122014,1.62365552 Z" id="形状" fill="url(#linearGradient-1)"></path>
                    <polygon id="路径-2" fill="#95E2CF" points="16.7152532 10.5695971 11.2307692 19.8955359 6.16483745 22.5674111 10.0314176 25.5580153 10.5460594 20.9311585 24.0695449 17.5359216"></polygon>
                    <path d="M6.75198283,28.4102282 C6.97578689,27.3214324 7.15482887,26.2326395 7.37863351,25.1438467 C7.42339415,25.0077475 7.512916,24.7809157 7.60243757,24.7809157 C7.73672006,24.7355494 7.91576291,24.8716486 8.05004685,24.9623815 C8.40813254,25.3253124 8.76621822,25.7336123 9.16906715,26.0511773 C9.34811028,26.232643 9.70619713,26.3687422 9.88523853,26.3233759 C10.0642817,26.2780096 10.2880846,25.960445 10.3328478,25.688246 C10.5566519,24.5994502 10.7804571,23.5106573 11.0042588,22.4672159 C11.0490195,22.3311167 11.138541,22.1496509 11.2728235,22.1042849 C11.4071057,22.0589186 11.5861489,22.1950178 11.6756696,22.2857507 C12.0785156,22.6940476 12.4813645,23.1023475 12.8842106,23.4652785 C13.1527753,23.7374771 13.4661009,23.7828434 13.7346659,23.5106448 C14.0032306,23.2384461 13.95847,22.9208809 13.7346659,22.6486819 L13.0632549,21.968186 C12.7051692,21.559889 12.7499295,21.3784221 13.242298,21.2423241 C13.6899073,21.1062249 14.1375137,21.0154917 14.5403597,20.8793931 C17.6736131,20.0174303 20.7621206,19.2008334 23.8953739,18.3842395 C24.2086993,18.2935066 24.566785,18.2481403 24.6563086,17.8852076 C24.7905908,17.5222767 24.5220264,17.2954437 24.2982229,17.0232448 L19.0164438,11.6699978 C16.6888825,9.22021016 14.3613096,6.86114285 12.0785173,4.54746201 C11.5861477,4.04843012 11.0490206,4.13916505 10.8699763,4.81966067 C10.1985653,7.3148143 9.57191463,9.80997962 8.90050072,12.3051245 C8.58717538,13.4846523 8.27385004,14.7095461 7.9605247,15.8890827 C7.82624221,16.3881146 7.60243901,16.4334806 7.24435332,16.0705484 L6.5729423,15.3900525 C6.21485661,15.0724876 5.90153127,15.0724876 5.63296628,15.3446862 C5.40916222,15.6168849 5.45392315,15.9344501 5.72248785,16.2520151 C6.08057353,16.614946 6.43865922,16.977877 6.7967478,17.3861769 C6.93103029,17.5222761 7.02055186,17.7037418 7.02055186,17.8852088 C7.02055186,17.9759417 6.75198716,18.1120411 6.61770582,18.1120409 C5.5882091,18.3388732 4.51394915,18.5203378 3.43967766,18.7925368 C3.21587359,18.8379031 2.94730803,19.0193691 2.90254768,19.2008337 C2.85778704,19.4276661 2.94730832,19.7452316 3.08159081,19.9266956 C3.35015551,20.2896266 3.70824149,20.5618255 4.02156683,20.8793905 C4.20060996,21.1062229 4.33489217,21.3330564 4.51393645,21.5598864 C4.24537175,21.6959856 4.02156683,21.8320851 3.75300184,21.8774514 C2.99206723,22.1042837 2.27589585,22.2403823 1.51496123,22.4218493 C1.11211519,22.5125822 0.933070906,22.8301462 1.02259161,23.1477112 C1.11211317,23.5106421 1.3806773,23.6467431 1.73876299,23.6013771 C1.82828455,23.6013771 1.87304519,23.6013771 1.96256705,23.5560108 C2.72350166,23.374545 3.52919374,23.1930798 4.29012835,23.0116129 C4.46917149,22.9662466 4.64821404,23.0569792 4.82725833,23.1023458 C4.73773676,23.2838115 4.73773676,23.5106427 4.60345427,23.6467437 C4.24536858,24.0550406 3.84251966,24.4179745 3.48443397,24.7809055 C3.03682469,25.2345714 2.54445795,25.7336003 2.09684868,26.2326322 C1.82828398,26.5048309 1.82828398,26.8223961 2.05208775,27.0945951 C2.27589181,27.3667937 2.63397807,27.3667937 2.90254306,27.0945951 C3.0815862,26.9584959 3.17110776,26.8677627 3.26062875,26.7770301 L5.54342971,24.4633405 C5.6777122,24.3272413 5.9015154,24.3272413 6.08055969,24.2365082 C6.12532033,24.4179739 6.21484218,24.6448051 6.17008125,24.780906 C5.99103812,25.7789669 5.76723521,26.8223967 5.63295128,27.8204722 C5.58819064,28.1834032 5.63295128,28.591703 5.63295128,29 L6.52816694,29 C6.57292758,28.8185342 6.70721008,28.591703 6.751971,28.4102361 L6.75198283,28.4102282 Z M9.34375672,16.9117261 C10.0970953,13.9000077 10.8922856,10.8883166 11.6874732,7.91902987 C11.7711774,7.66451946 11.8130294,7.4524265 11.8967339,7.19791581 C12.02229,6.68889445 12.2315501,6.64647645 12.6082208,7.02824221 L17.0026892,11.4821723 C18.6349215,13.1364904 20.2671484,14.790803 21.8575397,16.4451183 C21.9830959,16.5723734 22.1505043,16.826883 22.1086523,16.9541397 C22.0668004,17.0813948 21.8156878,17.2086501 21.6482783,17.2510684 C18.5093607,18.0994364 15.3286049,18.9478044 12.1478491,19.8385905 C12.0641449,19.8810087 11.9804407,19.8810087 11.8548846,19.9234273 C11.7711804,19.881009 11.645624,19.8385905 11.56192,19.7113351 C10.8504331,18.9902211 10.1389489,18.3115277 9.4693137,17.5904137 C9.34375753,17.3783215 9.3019053,17.1238103 9.34375726,16.9117203 L9.34375672,16.9117261 Z M5.32645209,20.4130192 C4.99026504,20.0296916 5.03228808,19.8167305 5.53656947,19.7315472 C6.46108455,19.5185867 7.34357929,19.3482195 8.31011741,19.1778502 C8.39416431,19.2204421 8.47821121,19.2630343 8.56225811,19.3482184 C8.94046821,19.7315461 9.36070406,20.1148765 9.73891416,20.5407959 C9.82296106,20.62598 9.90700795,20.8389402 9.86498437,20.9667179 C9.69689057,21.861151 9.52879731,22.755584 9.31867939,23.6500199 C9.23463249,24.1185336 9.02451538,24.1611252 8.68832832,23.8203881 C7.59571836,22.6704024 6.46108536,21.5204166 5.32645778,20.413028 L5.32645209,20.4130192 Z" id="形状" fill="#5BBC59" fill-rule="nonzero"></path>
                </g>
            </g>
        </g>
    </g>
</svg>