<?xml version="1.0" encoding="UTF-8"?>
<svg width="30px" height="30px" viewBox="0 0 30 30" version="1.1" xmlns="http://www.w3.org/2000/svg" xmlns:xlink="http://www.w3.org/1999/xlink">
    <!-- Generator: Sketch 60 (88103) - https://sketch.com -->
    <title>WOCAO</title>
    <desc>Created with Sketch.</desc>
    <g id="页面-1" stroke="none" stroke-width="1" fill="none" fill-rule="evenodd">
        <g id="商城备份" transform="translate(-129.000000, -244.000000)" fill-rule="nonzero">
            <g id="编组-7" transform="translate(15.000000, 227.000000)">
                <g id="美食" transform="translate(114.000000, 17.000000)">
                    <path d="M14.9194079,2.3691161 C7.63164503,2.3691161 1.72602399,8.27473713 1.72602399,15.5625 C1.72602399,22.8502629 7.63164503,28.7558839 14.9194079,28.7558839 C22.2071708,28.7558839 28.1127918,22.8502629 28.1127918,15.5625 C28.1127918,8.27473713 22.2071708,2.3691161 14.9194079,2.3691161 Z M14.4787565,19.5283527 C11.790782,19.5283527 9.63158115,17.3691618 9.63158115,14.6811773 C9.63158115,11.9932028 11.790772,9.83400198 14.4787565,9.83400198 C17.166731,9.83400198 19.3259318,11.9931928 19.3259318,14.6811773 C19.3259318,17.3691519 17.166741,19.5283527 14.4787565,19.5283527 Z" id="形状" fill="#FFFFFF"></path>
                    <path d="M25.2832433,21.9251171 L25.6820156,20.3788853 L25.6820156,19.2192115 L25.2832433,18.0595377 L24.0869264,18.4460956 L22.8906094,18.4460956 L21.6942925,18.0595377 L21.6942925,16.8998639 L20.4979755,15.74019 L19.7004309,15.6242226 L19.7004309,15.74019 C19.7004309,18.020881 17.6666912,19.9923361 15.3139264,19.9923361 C12.5623983,19.9923361 10.5286706,18.0208897 10.5286706,15.74019 C10.5286706,15.237665 10.6084251,14.73514 10.767934,14.2712687 L10.1298989,14.1939571 L10.1298989,13.0342833 L8.5348096,13.0342833 L6.93972033,13.4208412 L5.74340338,13.0342833 L4.94585875,12.2611674 L3.86917319,8.125 C2.27408392,10.2510701 1.35690789,12.8796624 1.35690789,15.7401801 C1.35690789,23.0074823 7.41823992,28.883156 14.9151727,28.883156 C19.7801907,28.883156 24.0470518,26.4091846 26.4396797,22.6595752 L25.2832409,21.9251159 L25.2832433,21.9251171 Z" id="路径" fill="#FFFC7C"></path>
                    <path d="M23.6838356,10.9659748 C23.4069798,10.9659748 23.2883274,10.9272515 23.2883274,10.9659748 L20.9152778,9.41704311 C20.5197695,9.1072556 20.4406691,8.75874683 20.5197695,8.64257725 C20.7966253,8.25534432 21.1525822,8.17789889 21.3107861,8.25534432 L23.6838356,9.80427604 C24.0793439,10.1140635 24.1584443,10.4625723 24.0793439,10.5787419 C23.8815898,10.8885294 23.6838356,10.9659748 23.6838356,10.9659748 L23.6838356,10.9659748 Z M22.8928191,16 C22.4577591,16 22.2204548,15.8451068 22.1018026,15.6127671 L21.3107861,12.9021366 C21.2316844,12.5149036 21.4294385,12.2438403 21.7062943,12.1276707 C22.0622509,12.0502241 22.3786587,12.2438406 22.4973108,12.5149036 L23.2883274,15.2255341 C23.367429,15.6127671 23.1696749,15.8838304 22.8928191,16 C22.8137175,16 22.7741666,16 22.8928191,16 L22.8928191,16 Z M16.5646929,7.09364553 C16.4855912,7.09364553 16.2482851,6.93875235 16.1691846,6.7064126 C16.1296338,6.43534955 16.2878371,6.16428591 16.5646929,5.93194674 L19.3332507,5.54471381 C19.728759,5.50599051 20.0451668,5.66088369 20.1242672,5.93194674 C20.1638181,6.20300979 20.0056148,6.47407342 19.728759,6.7064126 L16.9602012,7.09364553 L16.5646929,7.09364553 L16.5646929,7.09364553 Z M13.7961351,8.25534432 C13.5588301,8.25534432 13.4401785,8.21662102 13.4006268,8.25534432 L11.0275773,6.31917967 C10.9880264,6.28045637 10.9484756,5.93194674 11.0275773,5.54471381 C11.3439851,5.50599051 11.6603899,5.46726722 11.8185938,5.54471381 L14.1916433,7.48087846 C14.2311942,7.51960175 14.270745,7.86811139 14.1916433,8.25534432 C13.9543384,8.17789773 13.7961351,8.25534432 13.7961351,8.25534432 Z" id="形状" fill="#FF6928"></path>
                    <path d="M14.9194079,2 C7.42013331,2 1.35690789,8.06322541 1.35690789,15.5625 C1.35690789,23.0617746 7.42013331,29.125 14.9194079,29.125 C22.4186825,29.125 28.4819079,23.0617746 28.4819079,15.5625 C28.4819079,8.06322541 22.4186825,2 14.9194079,2 Z M14.939642,3.4156314 C21.6302201,3.4156314 27.0296267,8.81503806 27.0296267,15.5056162 C27.0296267,17.814058 26.4036089,19.9268618 25.2689486,21.765794 C25.3472009,21.4136595 25.4645793,20.944144 25.6602101,20.3572532 L25.6993362,20.2398748 C25.894967,18.3618185 25.6993362,17.3445392 25.0733184,16.9532807 C24.682057,16.7185238 24.2516684,16.7967761 24.0169121,16.9532807 L23.977786,16.9924068 C22.9996308,17.7358028 22.5301182,17.6575516 22.4127401,17.6184246 C22.2171093,17.5401723 22.138857,17.3054143 22.138857,17.3054143 C21.7867226,15.7403683 21.278083,14.8404672 20.6129381,14.5665839 C20.4955597,14.5274577 20.4173074,14.4883316 20.2999278,14.4883316 C19.8304152,11.9451305 17.6393485,10.027956 14.9396511,10.027956 C14.03975,10.027956 13.178973,10.2627129 12.435577,10.6539738 C12.3964509,10.6539738 12.3964509,10.6539738 12.3573247,10.6930999 L9.57936733,11.8668844 C8.01432141,12.6494073 6.84053696,12.7667855 6.0971528,12.2972729 C5.04074651,11.5930011 4.92336924,9.63669365 4.96249539,8.93241886 C4.96249539,8.85416657 4.96249539,8.81504042 4.92336924,8.73678812 C7.11443295,5.52845398 10.7923062,3.4156314 14.9396714,3.4156314 L14.939642,3.4156314 Z M14.9194079,11.1746253 C17.3526798,11.1746253 19.3072826,13.1292191 19.3072826,15.5625 C19.3072826,17.9957719 17.3526888,19.9503747 14.9194079,19.9503747 C12.486136,19.9503747 10.5315332,17.9957809 10.5315332,15.5625 C10.5315332,13.1292281 12.486127,11.1746253 14.9194079,11.1746253 Z M14.8930586,27.707416 C8.21389423,27.707416 2.82369859,22.3172204 2.82369859,15.638056 C2.82369859,13.8803815 3.2142926,12.2008157 3.87830272,10.677497 C4.07359973,11.6149232 4.46419521,12.747645 5.4016185,13.3725948 C5.90939042,13.6850712 6.45622263,13.8803668 7.12023275,13.8803668 C7.97953841,13.8803668 8.95602491,13.606951 10.010629,13.0601185 L10.0496884,13.0601185 C9.62003415,13.8413065 9.38567833,14.7006121 9.38567833,15.6770986 C9.38567833,18.6846729 11.8464203,21.1454207 14.8540004,21.1454207 C17.7443967,21.1454207 20.0879725,18.9190346 20.2832593,16.0677015 C20.4394969,16.3020579 20.6738533,16.8098292 20.9082091,17.7472554 C20.9472685,17.8253742 21.1425655,18.6065611 21.923753,18.8799772 C22.5877631,19.1143336 23.4080114,18.9190366 24.384495,18.2159671 C24.4626138,18.4503235 24.5407326,18.9580948 24.4235544,20.2079974 C23.7595442,22.4734439 23.6814266,23.1765084 23.9939001,23.528048 C21.8065742,26.0669106 18.5646412,27.707416 14.893051,27.707416 L14.8930586,27.707416 Z" id="形状" fill="#04AA76"></path>
                </g>
            </g>
        </g>
    </g>
</svg>