<?xml version="1.0" encoding="UTF-8"?>
<svg width="22px" height="22px" viewBox="0 0 22 22" version="1.1" xmlns="http://www.w3.org/2000/svg" xmlns:xlink="http://www.w3.org/1999/xlink">
    <!-- Generator: Sketch 60 (88103) - https://sketch.com -->
    <title>生活</title>
    <desc>Created with Sketch.</desc>
    <g id="页面-1" stroke="none" stroke-width="1" fill="none" fill-rule="evenodd">
        <g id="商城备份" transform="translate(-27.000000, -809.000000)" fill="#FFB000" fill-rule="nonzero">
            <g id="生活" transform="translate(27.000000, 809.000000)">
                <path d="M22.0000256,15.1250176 C22.0000256,17.0500198 20.4875238,18.5625216 18.5625216,18.5625216 C18.2875213,18.5625216 18.081271,18.5625216 17.8750208,18.4937715 C15.9500186,20.625024 13.2687654,22.0000256 10.312512,22.0000256 C4.60625536,22.0000256 0,17.0500198 0,11.0000128 L0,9.6250112 C0,8.04375936 2.20000256,6.66875776 5.43125632,5.98125696 L5.01875584,7.42500864 C2.81875328,7.9062592 1.3750016,8.73126016 1.3750016,9.6250112 C1.3750016,11.0000128 4.4687552,12.1000141 8.66251008,12.3062643 C5.5,7.35625856 7.5625088,5.98125696 8.45625984,5.08750592 C9.35001088,4.19375488 10.1750118,-1.22124675e-15 10.1750118,-1.22124675e-15 C11.5500134,3.36875392 11.137513,5.43125632 9.90001152,6.1875072 C7.76875904,7.2187584 8.52500992,11.8250138 8.59376,12.3062643 C9.14376064,12.3062643 9.69376128,12.3750144 10.2437619,12.3750144 C10.7937626,12.3750144 11.2750131,12.3750144 11.7562637,12.3062643 C9.48751104,9.35001088 11.4125133,7.9062592 11.4125133,7.9062592 C13.3375155,6.46250752 11.8250138,4.67500544 11.8250138,4.67500544 C13.6812659,6.32500736 13.6125158,8.04375936 12.5812646,9.00626048 C11.137513,9.9687616 11.6875136,11.9625139 11.8250138,12.3062643 C16.0875187,12.1000141 19.2500224,11.0000128 19.2500224,9.6250112 C19.2500224,8.73126016 17.8062707,7.9062592 15.5375181,7.42500864 L15.1250176,5.98125696 C18.3562714,6.66875776 20.5562739,8.04375936 20.5562739,9.6250112 L20.5562739,11.0000128 C20.5562739,11.4812634 20.5562739,11.8937638 20.4875238,12.3062643 C21.450025,12.925015 22.0000256,13.9562662 22.0000256,15.1250176 L22.0000256,15.1250176 Z M10.312512,13.750016 C6.5312576,13.750016 3.16250368,12.925015 1.3750016,11.6875136 C1.718752,16.7062694 5.56875648,20.625024 10.312512,20.625024 C15.0562675,20.625024 18.906272,16.7062694 19.2500224,11.6875136 C17.4625203,12.925015 14.0937664,13.750016 10.312512,13.750016 Z M20.2125235,13.9562662 C19.9375232,15.1250176 19.4562726,16.2250189 18.8375219,17.18752 C19.8687731,17.0500198 20.625024,16.2250189 20.625024,15.1250176 C20.625024,14.7125171 20.4875238,14.3000166 20.2125235,13.9562662 Z" id="形状"></path>
            </g>
        </g>
    </g>
</svg>