<?xml version="1.0" encoding="UTF-8"?>
<svg width="30px" height="30px" viewBox="0 0 30 30" version="1.1" xmlns="http://www.w3.org/2000/svg" xmlns:xlink="http://www.w3.org/1999/xlink">
    <!-- Generator: Sketch 60 (88103) - https://sketch.com -->
    <title>WOCAO</title>
    <desc>Created with Sketch.</desc>
    <g id="页面-1" stroke="none" stroke-width="1" fill="none" fill-rule="evenodd">
        <g id="商城备份" transform="translate(-40.000000, -245.000000)" fill-rule="nonzero">
            <g id="编组-7" transform="translate(15.000000, 227.000000)">
                <g id="商户" transform="translate(25.000000, 18.000000)">
                    <path d="M6.41935484,1.72655913 L6.41935484,1.72666175 C6.41935484,1.97599581 6.62154887,2.17812062 6.87096776,2.17812062 C7.12038688,2.17812062 7.32258065,1.97599557 7.32258065,1.72666175 C7.32258065,1.72659329 7.32258065,1.72652483 7.32258065,1.72645637 L7.32258065,1.72635368 C7.32258065,1.47701962 7.12038661,1.27489481 6.87096772,1.27489481 C6.6215486,1.27489481 6.41935484,1.47701986 6.41935484,1.72635368 C6.41935484,1.72642214 6.41935484,1.7264906 6.41935484,1.72655906 L6.41935484,1.72655913 Z" id="路径" fill="#FFAF00"></path>
                    <path d="M27.1935484,11.2103776 L27.1935484,11.2103775 C27.1935484,11.7092143 27.597938,12.1136045 28.0967742,12.1136045 C28.5956103,12.1136045 29,11.7092168 29,11.21038 C29,11.2103799 29,11.2103799 29,11.2103799 L29,11.2103799 C29,10.7115431 28.5956128,10.3071529 28.0967742,10.3071529 C27.597938,10.3071529 27.1935484,10.7115406 27.1935484,11.2103799 C27.1935484,11.2103799 27.1935484,11.2103799 27.1935484,11.2103799 L27.1935484,11.2103776 Z" id="路径" fill="#FFAF00"></path>
                    <path d="M10.0322581,5.33946235 L10.0322581,5.33956497 C10.0322581,5.58889903 10.2344521,5.79102384 10.483871,5.79102384 C10.7332901,5.79102384 10.9354839,5.5888988 10.9354839,5.33956497 C10.9354839,5.33949651 10.9354839,5.33942805 10.9354839,5.3393596 L10.9354839,5.33925691 C10.9354839,5.08992285 10.7332898,4.88779804 10.483871,4.88779804 C10.2344518,4.88779804 10.0322581,5.08992308 10.0322581,5.33925691 C10.0322581,5.33932537 10.0322581,5.33939383 10.0322581,5.33946228 L10.0322581,5.33946235 Z" id="路径" fill="#8BC17D"></path>
                    <path d="M1,21.5974744 L1,21.5974755 C1,25.3387595 4.03290947,28.371669 7.77419355,28.371669 C11.5154776,28.371669 14.5483871,25.3387595 14.5483871,21.5974755 L14.5483871,21.5974755 C14.5483871,17.8561914 11.5154776,14.8232819 7.77419355,14.8232819 C4.03290947,14.8232819 1,17.8561914 1,21.5974755 L1,21.5974744 Z" id="路径" fill="#FFAF00"></path>
                    <path d="M23.0943588,26.5652174 L6.90562276,26.5652174 L6.90562262,26.5652174 C5.14055316,26.5652174 3.70967742,25.1346921 3.70967742,23.3700432 C3.70967742,23.3700432 3.70967742,23.3700432 3.70967742,23.3700432 L3.70967742,17.8321241 L3.70967742,17.8321242 C3.70967742,17.4798036 3.99535975,17.1941899 4.34776543,17.1941899 C4.70017111,17.1941899 4.98585345,17.4798036 4.98585345,17.8321242 C4.98585345,17.8321242 4.98585345,17.8321242 4.98585345,17.8321242 L4.98585345,23.3700433 L4.98585345,23.3700509 C4.98585329,24.4270129 5.84289779,25.2838531 6.90011748,25.2838531 C6.90195371,25.2838531 6.90378994,25.2838505 6.90562617,25.2838452 L23.0943622,25.2838452 L23.0943622,25.2838452 C24.1524739,25.2838496 25.011093,24.4278967 25.0141261,23.370043 L25.0141261,17.8321239 L25.0141261,17.832124 C25.0141261,17.4798033 25.2998085,17.1941899 25.6522141,17.1941899 C26.0046198,17.1941899 26.2903023,17.4798033 26.2903023,17.832124 C26.2903023,17.832124 26.2903023,17.832124 26.2903023,17.832124 L26.2903023,23.3700431 L26.2903023,23.3699622 C26.2873189,25.1333489 24.8582567,26.5621463 23.0944365,26.5652174 L23.0943588,26.5652174 Z M7.3292009,16.3417824 C5.33242594,16.3417824 3.70970403,14.6754555 3.70970403,12.6241691 L3.70970403,4.62800441 L3.70970403,4.62798101 C3.70970403,4.27475804 3.99452089,3.98757816 4.34781586,3.98457223 L10.310623,3.98457223 L10.310623,3.98457223 C10.663918,3.98759123 10.948711,4.2747845 10.948711,4.62800482 L10.948711,12.6241695 C10.948711,14.6754559 9.3259891,16.3417824 7.32921414,16.3417824 L7.3292009,16.3417824 Z M4.98588005,5.26594378 L4.98588005,12.6241691 C4.98588005,13.9715286 6.03652534,15.0604153 7.3292009,15.0604153 C8.62187911,15.0604153 9.67252175,13.9715286 9.67252175,12.6241691 L9.67252175,5.26594378 L4.98588005,5.26594378 Z M14.9972673,16.3417824 C13.0004924,16.3417824 11.3777705,14.6754555 11.3777705,12.6241691 L11.3777705,4.62800441 L11.3777705,4.62798101 C11.3777705,4.27475804 11.6625873,3.98757816 12.0158823,3.98457223 L17.9841946,3.98457223 L17.9841946,3.98457223 C18.3374895,3.98759123 18.6222826,4.2747845 18.6222826,4.62800482 L18.6222826,12.6241695 C18.6222826,14.6754559 16.9940582,16.3417824 14.9972806,16.3417824 L14.9972673,16.3417824 Z M12.6539465,5.26594378 L12.6539465,12.6241691 C12.6539465,13.9715286 13.7045918,15.0604153 14.9972673,15.0604153 C16.2899455,15.0604153 17.3405882,13.9715286 17.3405882,12.6241691 L17.3405882,5.26594378 L12.6539465,5.26594378 Z M22.6708124,16.3417824 C20.6685376,16.3417824 19.0458104,14.6754555 19.0458104,12.6241691 L19.0458104,4.62800441 L19.0458104,4.62798101 C19.0458104,4.27475804 19.3306273,3.98757816 19.6839223,3.98457223 L25.6522345,3.98457223 L25.6522346,3.98457223 C26.0055295,3.98759123 26.2903226,4.2747845 26.2903226,4.62800482 L26.2903226,12.6241695 C26.2903226,14.6754559 24.6676007,16.3417824 22.6708257,16.3417824 L22.6708124,16.3417824 Z M20.3274916,5.26594378 L20.3274916,12.6241691 C20.3274916,13.9715286 21.3781369,15.0604153 22.6708124,15.0604153 C23.9634907,15.0604153 25.0141333,13.9715286 25.0141333,12.6241691 L25.0141333,5.26594378 L20.3274916,5.26594378 Z" id="形状" fill="#000000"></path>
                    <path d="M25.6522338,22.0490884 L4.34776629,22.0490884 L4.34776626,22.0490884 C3.99536012,22.0490884 3.70967742,21.846894 3.70967742,21.5974755 C3.70967742,21.348057 3.99536012,21.1458626 4.34776626,21.1458626 L25.6522338,21.1458626 L25.6522337,21.1458626 C26.0046399,21.1458626 26.2903226,21.348057 26.2903226,21.5974755 C26.2903226,21.846894 26.0046399,22.0490884 25.6522337,22.0490884 L25.6522338,22.0490884 Z" id="路径" fill="#000000"></path>
                </g>
            </g>
        </g>
    </g>
</svg>