<?xml version="1.0" encoding="UTF-8"?>
<svg width="22px" height="23px" viewBox="0 0 22 23" version="1.1" xmlns="http://www.w3.org/2000/svg" xmlns:xlink="http://www.w3.org/1999/xlink">
    <!-- Generator: Sketch 60 (88103) - https://sketch.com -->
    <title>最新</title>
    <desc>Created with Sketch.</desc>
    <g id="页面-1" stroke="none" stroke-width="1" fill="none" fill-rule="evenodd">
        <g id="商城备份" transform="translate(-27.000000, -416.000000)">
            <g id="最新" transform="translate(27.000000, 416.500000)">
                <path d="M20.1575235,4.95000576 L10.323512,4.95000576 L9.67451126,4.31200502 L9.6745113,4.31200505 C9.26203015,3.90289052 8.70446915,3.67354025 8.12350949,3.67400361 L8.1235096,3.67400361 C7.55208687,3.68073125 7.00570635,3.90953994 6.60000783,4.31200505 L0.874501167,10.0210117 L0.874500984,10.0210119 C0.0287718749,10.8777969 0.0287718749,12.2552391 0.874501351,13.1120155 L6.60000801,18.8210221 L6.60000793,18.821022 C7.0111377,19.228796 7.56645573,19.4580366 8.14550973,19.4590235 L8.14550967,19.4590235 C8.72646933,19.4594864 9.28403033,19.2301366 9.69651147,18.821022 L10.3235122,18.1500213 L20.1575236,18.1500213 L20.1575236,18.1500213 C21.1052456,18.1500213 21.8736064,17.3817413 21.8736064,16.4340193 L21.8736064,6.68800792 L21.8736064,6.6880032 C21.8826404,5.73728842 21.1193222,4.9591922 20.1686074,4.95007637 C20.1649116,4.95004094 20.1612157,4.95001741 20.1575197,4.95000578 L20.1575235,4.95000576 Z M1.09992879,11.5500134 L1.09992879,11.5500128 C1.0969414,11.2034802 1.23375993,10.8703581 1.47950172,10.6260117 L7.19950837,4.95000514 L7.19950835,4.95000516 C7.70729214,4.43969265 8.53261967,4.43764304 9.04293217,4.94542679 C9.04446206,4.9469491 9.04598818,4.94847521 9.04751048,4.9500051 L9.70201124,5.59900585 L9.96051154,5.85750615 L20.1575234,5.85750615 L20.1575234,5.85750615 C20.6201212,5.86052972 20.9935244,6.23639858 20.9935244,6.69900713 L20.9935244,16.4505185 L20.9935244,16.4505185 C20.9935244,16.912229 20.6192339,17.2865195 20.1575234,17.2865195 C20.1575234,17.2865195 20.1575234,17.2865195 20.1575234,17.2865195 L9.96051151,17.2865195 L9.70201121,17.5450198 L9.04751045,18.1995205 L9.04751048,18.1995205 C8.535447,18.7055855 7.71157182,18.7055855 7.19950833,18.1995205 L3.12400359,14.1185158 L1.47400167,12.4685139 L1.47400165,12.4685139 C1.23111836,12.2249474 1.09634672,11.8939651 1.09992879,11.5500128 L1.09992879,11.5500134 Z" id="形状" fill="#FF0000" fill-rule="nonzero"></path>
                <text id="NEW" font-family="PingFangSC-Semibold, PingFang SC" font-size="6" font-weight="500" letter-spacing="0.375" fill="#FF0A0A">
                    <tspan x="5" y="13.5">NEW</tspan>
                </text>
            </g>
        </g>
    </g>
</svg>