<?xml version="1.0" encoding="UTF-8"?>
<svg width="30px" height="30px" viewBox="0 0 30 30" version="1.1" xmlns="http://www.w3.org/2000/svg" xmlns:xlink="http://www.w3.org/1999/xlink">
    <!-- Generator: Sketch 60 (88103) - https://sketch.com -->
    <title>超市购物</title>
    <desc>Created with Sketch.</desc>
    <g id="页面-1" stroke="none" stroke-width="1" fill="none" fill-rule="evenodd">
        <g id="商城备份" transform="translate(-216.000000, -245.000000)" fill-rule="nonzero">
            <g id="编组-7" transform="translate(15.000000, 227.000000)">
                <g id="超市购物" transform="translate(201.000000, 18.000000)">
                    <path d="M5.88800851,26.9259259 L4.42602892,13.4444444 L25.6674082,13.5901121 L24.0736174,25.7480651 C23.9850898,26.4198329 23.379489,26.9259259 22.664956,26.9259259 L5.88800851,26.9259259 Z" id="路径" fill="#B3FFBB"></path>
                    <path d="M23.3098105,29 L6.78377651,29 C6.01204659,29 5.35775012,28.3918839 5.26200244,27.5853664 L3.46051168,12.4074074 L26.6329255,12.4074074 L24.8314347,27.5852147 C24.7356876,28.3918869 24.0813906,29 23.3098076,29 L23.3098105,29 Z M5.316256,14.0268606 L6.87210823,27.1341112 L6.87210823,27.1341112 C6.88901774,27.2747045 7.0024755,27.3801784 7.1370425,27.3804018 L22.9565514,27.3804018 C23.0908545,27.3804018 23.2049626,27.2745087 23.2216269,27.1339625 L24.7773385,14.0268606 L5.316256,14.0268606 L5.316256,14.0268606 Z" id="形状" fill="#5E36EB"></path>
                    <path d="M12.8916264,26.7749301 L11.7879513,26.9249929 L11.7879513,26.9249929 C11.7287001,26.9330909 11.6746126,26.8875792 11.6671433,26.8233396 C11.6671391,26.8233036 11.6671349,26.8232676 11.6671308,26.8232316 L10.8120174,19.4334203 L10.8120174,19.4334203 C10.8045482,19.3691807 10.8465258,19.3105396 10.9057769,19.3024417 C10.9058102,19.3024371 10.9058434,19.3024326 10.9058766,19.3024281 L12.0095518,19.1523653 L12.0095518,19.1523653 C12.0688029,19.1442673 12.1228904,19.189779 12.1303597,19.2540186 C12.1303639,19.2540546 12.1303681,19.2540906 12.1303722,19.2541266 L12.9854856,26.6439379 L12.9854856,26.6439379 C12.9929548,26.7081775 12.9509772,26.7668186 12.8917261,26.7749168 C12.8916929,26.7749214 12.8916596,26.7749259 12.8916264,26.7749304 L12.8916264,26.7749301 Z M17.1057633,26.7749301 L18.2094385,26.9249929 L18.2094385,26.9249929 C18.2686896,26.9330909 18.3227771,26.8875792 18.3302464,26.8233396 C18.3302506,26.8233036 18.3302548,26.8232676 18.3302589,26.8232316 L19.1853723,19.4334203 L19.1853723,19.4334203 C19.1928415,19.3691807 19.1508639,19.3105396 19.0916128,19.3024414 C19.0915796,19.3024368 19.0915463,19.3024323 19.0915131,19.3024278 L17.987838,19.152365 L17.987838,19.152365 C17.9285868,19.144267 17.8744993,19.1897787 17.86703,19.2540183 C17.8670258,19.2540543 17.8670216,19.2540903 17.8670175,19.2541263 L17.0119041,26.6439376 L17.0119041,26.6439376 C17.0044349,26.7081772 17.0464125,26.7668183 17.1056636,26.7749162 C17.1056969,26.7749208 17.1057301,26.7749253 17.1057633,26.7749298 L17.1057633,26.7749301 Z M5.35043563,12.5586291 C6.13115425,6.61971571 9.74020379,3.07407407 15.0042423,3.07407407 C20.3089432,3.07407407 24.1896144,6.8956389 24.6607805,12.5834866 L22.9822057,12.5586291 C22.9822057,9.16832926 20.3006484,4.4988417 14.9588895,4.4988417 C10.3750737,4.49897455 7.89623758,7.66752496 6.86383132,12.6694405 L5.35043563,12.5586291 Z" id="形状" fill="#5E36EB"></path>
                    <path d="M7.19378048,11.9155075 C7.19378048,11.9155075 10.108399,7.07926861 15.6071824,9.91004509 C15.8393818,10.0295814 15.9841365,10.0114736 16.0831995,9.85422009 C16.9504636,8.47769025 20.3869405,4.39711055 22.6180126,11.9155075 L7.19378048,11.9155075 Z" id="路径" fill="#BBB3FF"></path>
                    <path d="M2.6409371,13.9895816 C2.60017403,13.9895816 1.70861516,13.8516541 1.70861516,12.9525446 C1.70861516,12.053435 2.6010982,11.9155075 2.64093709,11.9155075 L27.4524998,11.9155075 C27.5331017,11.9155075 28.3026009,12.0843236 28.3026009,12.9525446 C28.3026009,13.7116733 27.5335213,13.9893969 27.4530807,13.9895816 L2.6409371,13.9895816 Z" id="路径" fill="#5E36EB"></path>
                </g>
            </g>
        </g>
    </g>
</svg>