<?xml version="1.0" encoding="UTF-8"?>
<svg width="22px" height="22px" viewBox="0 0 22 22" version="1.1" xmlns="http://www.w3.org/2000/svg" xmlns:xlink="http://www.w3.org/1999/xlink">
    <!-- Generator: Sketch 60 (88103) - https://sketch.com -->
    <title>fjhgji</title>
    <desc>Created with Sketch.</desc>
    <g id="页面-1" stroke="none" stroke-width="1" fill="none" fill-rule="evenodd">
        <g id="我的地址" transform="translate(-15.000000, -83.000000)" fill="#FF7474" fill-rule="nonzero">
            <g id="编组" transform="translate(0.000000, 74.000000)">
                <g id="fjhgji" transform="translate(15.000000, 9.000000)">
                    <g id="家" transform="translate(0.417276, 1.000000)">
                        <path d="M20.5846146,10.0515754 C20.8805389,10.3437632 21.028501,10.6703261 21.0449413,11.0140765 C21.0613815,11.3578269 20.9462998,11.6500147 20.7161365,11.89064 C20.4530928,12.1312653 20.1407283,12.2515779 19.7954833,12.2343904 C19.4502383,12.2172029 19.1707543,12.1140778 18.9570312,11.925015 C18.8912703,11.8734525 18.6775472,11.6672022 18.315862,11.3062643 C17.9541768,10.9625139 17.5267307,10.5328259 17.0335236,10.0515754 C16.5403165,9.5703248 16.0142289,9.03751168 15.4388206,8.47032352 C14.8798526,7.90313536 14.3373248,7.37032224 13.8276774,6.88907168 C13.3180301,6.3906336 12.890584,5.9609456 12.5288988,5.60000768 C12.1672135,5.23906976 11.9370502,5.015632 11.8384088,4.91250688 C11.3945224,4.48281888 10.950636,4.27656864 10.5231899,4.29375616 C10.0957437,4.31094368 9.6682976,4.51719392 9.24085145,4.91250688 C9.10932955,5.05000704 8.84628577,5.29063232 8.45172009,5.66875776 C8.07359465,6.0468832 7.62970827,6.4765712 7.12006093,6.97500928 C6.6104136,7.47344736 6.08432603,7.98907296 5.52535799,8.5390736 C4.96638995,9.08907424 4.45674262,9.58751232 3.97997576,10.0515754 C3.5032089,10.5156384 3.09220299,10.9109514 2.74695802,11.2375142 C2.40171305,11.5640771 2.20443021,11.7531398 2.12222903,11.8218899 C1.90850596,11.9937651 1.62902194,12.0968902 1.28377697,12.1140778 C0.938532002,12.1312653 0.626167509,12.0109526 0.379563961,11.7875149 C0.116520176,11.5125146 -0.0150017158,11.2031392 0.0014385207,10.8250138 C0.0178787572,10.4468883 0.132960413,10.1547005 0.363123724,9.93126272 C0.445324907,9.84532512 0.708368691,9.58751232 1.13581484,9.15782432 C1.56326099,8.72813632 2.08934856,8.22969824 2.68119707,7.64532256 C3.28948583,7.06094688 3.93065505,6.42500864 4.62114498,5.75469536 C5.31163492,5.08438208 5.95280414,4.44844384 6.54465266,3.86406816 C7.13650117,3.27969248 7.6461485,2.7812544 8.07359465,2.36875392 C8.5010408,1.95625344 8.74764435,1.71562816 8.8134053,1.62969056 C9.33949287,1.09687744 9.91490114,0.82187712 10.5396301,0.8046896 C11.1479189,0.8046896 11.6740065,1.01093984 12.1178928,1.45781536 C12.200094,1.52656544 12.3809366,1.69844064 12.6439804,1.97344096 C12.9070242,2.24844128 13.2358289,2.57500416 13.6139544,2.9531296 C13.9920798,3.34844256 14.4359662,3.77813056 14.8962928,4.25938112 C15.3730597,4.74063168 15.8498265,5.22188224 16.3430336,5.72032032 C16.8362407,6.20157088 17.3130076,6.70000896 17.7733342,7.18125952 C18.2336608,7.66251008 18.6775472,8.09219808 19.0556726,8.48751104 C19.4502383,8.882824 19.7790431,9.20938688 20.0420868,9.4843872 L20.5846146,10.0515754 L20.5846146,10.0515754 Z M9.24085145,6.87188416 C9.58609641,6.52813376 10.0135426,6.35625856 10.4903094,6.33907104 C10.9835165,6.32188352 11.4274029,6.49375872 11.8055283,6.87188416 C11.8548491,6.92344672 11.9699307,7.04375936 12.1836538,7.2500096 L12.9727851,8.023448 C13.2851496,8.33282336 13.6303946,8.67657376 14.00852,9.0546992 C14.3866455,9.43282464 14.7812112,9.81095008 15.1922171,10.1890755 C16.1293105,11.1000141 17.1814857,12.1140778 18.3323022,13.2312666 L18.3323022,17.906272 C18.3323022,18.2328349 18.2172206,18.5078352 17.9870573,18.765648 C17.756894,19.0062733 17.4445295,19.1437734 17.0499638,19.160961 L13.0878668,19.160961 L13.0878668,15.2422064 C13.0878668,14.7609558 12.8741437,14.5203306 12.4302573,14.5203306 L8.46816033,14.5203306 C8.23799702,14.5203306 8.07359465,14.5890806 7.97495323,14.7437683 C7.87631181,14.8812685 7.84343134,15.0531437 7.84343134,15.2422064 C7.84343134,15.328144 7.84343134,15.5515818 7.82699111,15.9125197 C7.82699111,16.2734576 7.81055087,16.651583 7.81055087,17.0640835 L7.81055087,19.160961 L3.97997576,19.160961 C3.56896985,19.160961 3.25660535,19.0578358 3.0100018,18.8687731 C2.77983849,18.6797104 2.6483166,18.4047101 2.6483166,18.0609597 L2.6483166,13.179704 C3.79913316,12.0797027 4.83486806,11.0828266 5.77196154,10.206263 C6.16652722,9.8281376 6.56109289,9.45001216 6.93921833,9.07188672 C7.33378401,8.69376128 7.67902898,8.3671984 8.00783371,8.05782304 C8.33663844,7.74844768 8.59968222,7.49063488 8.8134053,7.28438464 C9.06000884,7.06094688 9.19153074,6.92344672 9.24085145,6.87188416 Z" id="形状"></path>
                    </g>
                </g>
            </g>
        </g>
    </g>
</svg>