<?xml version="1.0" encoding="UTF-8"?>
<svg width="22px" height="22px" viewBox="0 0 22 22" version="1.1" xmlns="http://www.w3.org/2000/svg" xmlns:xlink="http://www.w3.org/1999/xlink">
    <!-- Generator: Sketch 60 (88103) - https://sketch.com -->
    <title>公司 (2)</title>
    <desc>Created with Sketch.</desc>
    <g id="页面-1" stroke="none" stroke-width="1" fill="none" fill-rule="evenodd">
        <g id="我的地址" transform="translate(-15.000000, -343.000000)">
            <rect fill="#F8F8F8" x="0" y="0" width="375" height="667"></rect>
            <g id="编组-2" transform="translate(0.000000, 334.000000)">
                <g id="编组备份-2">
                    <rect id="矩形" fill="#FFFFFF" x="0" y="0" width="375" height="120"></rect>
                    <g id="公司-(2)" transform="translate(15.000000, 9.000000)" fill="#C062E4" fill-rule="nonzero">
                        <path d="M21.4917393,20.0173272 C21.4917393,19.5503389 21.1667051,19.1628388 20.7561363,19.1628388 L20.0205332,19.1628388 L20.0205332,9.51506117 C20.0205332,7.9451868 18.9256831,6.67338735 17.5742227,6.67338735 L12.1940579,6.67338735 L12.1940579,19.1628194 L11.7065073,19.1628194 L11.7065073,3.8416544 C11.7065073,2.27178004 10.6116572,0.999980584 9.26019681,0.999980584 L4.38469139,0.999980584 C3.03323433,0.999980584 1.93838089,2.27177616 1.93838089,3.8416544 L1.93838089,19.1727603 L1.21133063,19.1727603 C0.809314629,19.1727603 0.475727592,19.5503253 0.475727592,20.0272486 C0.475727592,20.4942369 0.800761844,20.881737 1.21133063,20.881737 L21.2522931,20.881737 C21.6543091,20.8718011 21.4917911,20.4942369 21.4917911,20.0173136 L21.4917393,20.0173272 Z M8.78120072,15.764767 L4.87224193,15.764767 L4.87224193,14.0657273 L8.78120072,14.0657273 L8.78120072,15.764767 Z M8.78120072,11.2240573 L4.87224193,11.2240573 L4.87224193,9.51508058 L8.78120072,9.51508058 L8.78120072,11.2240573 Z M8.78120072,6.67340676 L4.87224193,6.67340676 L4.87224193,4.974367 L8.78120072,4.974367 L8.78120072,6.67340676 Z M16.6076761,16.8974641 L15.1450245,16.8974641 L15.1450245,14.0557903 L16.6076761,14.0557903 L16.6076761,16.8974641 Z M16.6076761,12.3567544 L15.1450245,12.3567544 L15.1450245,9.51508058 L16.6076761,9.51508058 L16.6076761,12.3567544 Z" id="形状"></path>
                    </g>
                </g>
            </g>
        </g>
    </g>
</svg>