<?xml version="1.0" encoding="UTF-8"?>
<svg width="163px" height="111px" viewBox="0 0 163 111" version="1.1" xmlns="http://www.w3.org/2000/svg" xmlns:xlink="http://www.w3.org/1999/xlink">
    <!-- Generator: Sketch 60 (88103) - https://sketch.com -->
    <title>编组</title>
    <desc>Created with Sketch.</desc>
    <defs>
        <linearGradient x1="22.7641323%" y1="37.5327471%" x2="50%" y2="67.6367646%" id="linearGradient-1">
            <stop stop-color="#F3FFFB" offset="0%"></stop>
            <stop stop-color="#D1FEEF" offset="100%"></stop>
        </linearGradient>
        <linearGradient x1="37.4386176%" y1="2.02702703%" x2="64.9678061%" y2="103.498491%" id="linearGradient-2">
            <stop stop-color="#E2EDFC" offset="0%"></stop>
            <stop stop-color="#C5FFF0" offset="100%"></stop>
        </linearGradient>
        <linearGradient x1="50%" y1="0%" x2="50%" y2="100%" id="linearGradient-3">
            <stop stop-color="#E9FFF2" offset="0%"></stop>
            <stop stop-color="#C0FBEA" offset="100%"></stop>
        </linearGradient>
        <linearGradient x1="-1.11022302e-14%" y1="50%" x2="100%" y2="50%" id="linearGradient-4">
            <stop stop-color="#BDEEE4" offset="0%"></stop>
            <stop stop-color="#88D9C5" offset="100%"></stop>
        </linearGradient>
    </defs>
    <g id="页面-1" stroke="none" stroke-width="1" fill="none" fill-rule="evenodd">
        <g id="敬请期待" transform="translate(-112.000000, -144.000000)">
            <g id="编组" transform="translate(111.500000, 144.000000)">
                <path d="M139.554701,13.6134221 C143.44645,13.6134221 146.692743,16.8033275 147.438249,21.0415555 L155.013223,21.0419936 C159.420586,21.0419936 162.993459,25.1993495 162.993459,30.3277078 C162.993459,35.4560662 159.420586,39.6134221 155.013223,39.6134221 L127.196403,39.6134221 C122.78904,39.6134221 119.216167,35.4560662 119.216167,30.3277078 C119.216167,25.2467479 122.723301,21.1189246 127.074414,21.0430564 C127.81876,16.804327 131.06546,13.6134221 134.957818,13.6134221 L139.554701,13.6134221 Z" id="形状结合备份" fill="url(#linearGradient-1)" transform="translate(141.104813, 26.613422) scale(-1, 1) translate(-141.104813, -26.613422) "></path>
                <path d="M24.3940293,84.2607582 C28.2857784,84.2607582 31.5320709,87.4506635 32.2775773,91.6888916 L39.8525514,91.6893296 C44.2599138,91.6893296 47.8327869,95.8466855 47.8327869,100.975044 C47.8327869,106.103402 44.2599138,110.260758 39.8525514,110.260758 L12.0357306,110.260758 C7.62836823,110.260758 4.05549511,106.103402 4.05549511,100.975044 C4.05549511,95.894084 7.56262942,91.7662607 11.9137425,91.6903925 C12.6580878,87.451663 15.9047877,84.2607582 19.7971464,84.2607582 L24.3940293,84.2607582 Z" id="形状结合备份-2" fill="url(#linearGradient-1)"></path>
                <path d="M34.7471526,96.777355 C30.385186,74.6810074 21.8757848,60.2516425 9.21894879,53.4892604 C6.74070867,52.2252401 3.94778435,51.43262 0.840175848,51.1114003 C4.39352577,56.3928237 6.17020073,59.7266108 6.17020073,61.1127617 C6.17020073,63.1919881 8.47425386,72.5356436 11.5397672,72.5356436 C13.5834427,72.5356436 15.259766,73.5180347 16.5687369,75.482817 L13.0594219,75.482817 C10.720666,95.6407895 13.511989,106.475825 21.4333908,107.987924 C29.3547926,109.500024 33.7927132,105.763167 34.7471526,96.777355 L34.7471526,96.777355 Z" id="路径-5备份" fill="url(#linearGradient-2)"></path>
                <path d="M116.252459,9.05286885 L37.7108607,9.05286885 C33.5142418,9.05286885 30.1023566,5.65235656 30.1023566,1.44436475 L30.1023566,0.0454918033 L123.860963,0.0454918033 L123.860963,1.4557377 C123.860963,5.65235656 120.460451,9.05286885 116.252459,9.05286885 Z" id="路径" fill-opacity="0.636882649" fill="#88D9C5" fill-rule="nonzero"></path>
                <path d="M109.656148,9.05286885 C109.656148,31.4172865 96.7085133,49.8047869 80.1441512,51.9004683 L80.1433577,58.3829209 C96.7093446,60.4780453 109.66752,78.865809 109.66752,101.230635 L109.66752,101.230635 L44.3071721,101.230635 C44.3071721,78.8608257 57.2610503,60.4698512 73.8311498,58.3815228 L73.8311498,51.9020926 C57.2610503,49.8149134 44.3071721,31.4333817 44.3071721,9.05286885 L44.3071721,9.05286885 Z" id="形状结合" fill="url(#linearGradient-3)" fill-rule="nonzero"></path>
                <path d="M38.1316598,101.242008 L115.843033,101.242008 C120.278484,101.242008 123.872336,104.835861 123.872336,109.271311 L123.872336,110.260758 L30.1023566,110.260758 L30.1023566,109.271311 C30.1023566,104.824488 33.696209,101.242008 38.1316598,101.242008 Z" id="路径" fill="url(#linearGradient-4)" fill-rule="nonzero"></path>
                <path d="M46.8433402,25.7256148 C51.7905738,41.2155738 63.4137295,52.0994877 76.9816598,52.0994877 C90.5382172,52.0994877 102.172746,41.2155738 107.11998,25.7256148 L46.8433402,25.7256148 Z" id="路径" fill="#A4EDD8" fill-rule="nonzero"></path>
                <path d="M106.141906,101.230635 C99.4432377,93.428791 88.8891393,88.3792008 76.9930328,88.3792008 C65.0855533,88.3792008 54.5314549,93.4401639 47.8327869,101.230635 L106.141906,101.230635 L106.141906,101.230635 Z" id="路径" fill="#90DCC9" fill-rule="nonzero"></path>
                <path d="M75.560041,67.0207992 C75.560041,68.7920714 76.2016133,70.2279713 76.9930328,70.2279713 C77.7844523,70.2279713 78.4260246,68.7920714 78.4260246,67.0207992 C78.4260246,65.2495269 77.7844523,63.813627 76.9930328,63.813627 C76.2016133,63.813627 75.560041,65.2495269 75.560041,67.0207992 L75.560041,67.0207992 Z" id="路径" fill="#88D9C5" fill-rule="nonzero"></path>
                <path d="M75.560041,76.5058402 C75.560041,78.2771124 76.2016133,79.7130123 76.9930328,79.7130123 C77.7844523,79.7130123 78.4260246,78.2771124 78.4260246,76.5058402 C78.4260246,74.7345679 77.7844523,73.298668 76.9930328,73.298668 C76.2016133,73.298668 75.560041,74.7345679 75.560041,76.5058402 Z" id="路径" fill="#88D9C5" fill-rule="nonzero"></path>
                <path d="M75.548668,87.4807377 C75.548668,89.25201 76.1902403,90.6879098 76.9816598,90.6879098 C77.7730794,90.6879098 78.4146516,89.25201 78.4146516,87.4807377 C78.4146516,85.7094654 77.7730794,84.2735656 76.9816598,84.2735656 C76.1902403,84.2735656 75.548668,85.7094654 75.548668,87.4807377 Z" id="路径" fill="#88D9C5" fill-rule="nonzero"></path>
                <path d="M64.5510246,38.9182377 C60.5477459,38.9182377 56.6809426,38.6680328 52.9847336,38.2472336 C58.9555328,46.7655738 67.4852459,52.1108607 76.9816598,52.1108607 C90.4699795,52.1108607 102.047643,41.3406762 107.028996,25.9758197 C100.830738,33.5047131 84.1807377,38.9182377 64.5510246,38.9182377 L64.5510246,38.9182377 Z" id="路径" fill="#90DCC9" fill-rule="nonzero"></path>
            </g>
        </g>
    </g>
</svg>