<?xml version="1.0" encoding="UTF-8"?>
<svg width="22px" height="19px" viewBox="0 0 22 19" version="1.1" xmlns="http://www.w3.org/2000/svg" xmlns:xlink="http://www.w3.org/1999/xlink">
    <!-- Generator: Sketch 60 (88103) - https://sketch.com -->
    <title>留言</title>
    <desc>Created with Sketch.</desc>
    <g id="页面-1" stroke="none" stroke-width="1" fill="none" fill-rule="evenodd">
        <g id="回复我的" transform="translate(-338.000000, -86.000000)" fill="#B7B7B7" fill-rule="nonzero">
            <g id="留言" transform="translate(338.000000, 86.000000)">
                <path d="M11.1826302,9.66388076 C10.1750118,9.66388076 9.3564562,8.8388798 9.3564562,7.82481612 C9.3564562,6.81075244 10.1750118,5.98575148 11.1826302,5.98575148 C12.1902486,5.98575148 13.0088042,6.81075244 13.0088042,7.82481612 C13.0088042,8.8388798 12.1902486,9.66388076 11.1826302,9.66388076 Z M11.1826302,7.05782304 C10.7679813,7.05782304 10.4306762,7.40157344 10.4306762,7.82266768 C10.4306762,8.24376192 10.7679813,8.58751232 11.1826302,8.58751232 C11.5972791,8.58751232 11.9345842,8.24376192 11.9345842,7.82266768 C11.9345842,7.40157344 11.5994276,7.05782304 11.1826302,7.05782304 Z M16.3560737,9.66388076 C15.3484554,9.66388076 14.5298997,8.8388798 14.5298997,7.82481612 C14.5298997,6.81075244 15.3484554,5.98575148 16.3560737,5.98575148 C17.3636921,5.98575148 18.1822477,6.81075244 18.1822477,7.82481612 C18.1822477,8.8388798 17.3636921,9.66388076 16.3560737,9.66388076 Z M16.3560737,7.05782304 C15.9414248,7.05782304 15.6041197,7.40157344 15.6041197,7.82266768 C15.6041197,8.24376192 15.9414248,8.58751232 16.3560737,8.58751232 C16.7707226,8.58751232 17.1080277,8.24376192 17.1080277,7.82266768 C17.1080277,7.40157344 16.7707226,7.05782304 16.3560737,7.05782304 Z" id="形状"></path>
                <path d="M15.8382997,18.6636959 C15.5976744,18.6636959 15.3591976,18.5863521 15.1572442,18.4316644 C15.1422051,18.4209222 15.127166,18.4080316 15.1142754,18.3951409 L12.2761862,15.8879114 L5.26152956,15.8879114 C4.0068406,15.8879114 2.82734704,15.4109578 1.93789288,14.5472849 C1.04414184,13.6771667 0.55000064,12.5191575 0.55000064,11.2838045 L0.55000064,4.8857502 C0.55000064,3.65254564 1.0419934,2.49238804 1.93789288,1.62226984 C2.82734704,0.75859696 4.0068406,0.28164328 5.26152956,0.28164328 L16.6590038,0.28164328 C17.0865433,0.28164328 17.4324422,0.62754212 17.4324422,1.05508168 C17.4324422,1.48262124 17.0865433,1.82852008 16.6590038,1.82852008 L5.26152956,1.82852008 C3.51699628,1.82852008 2.09687744,3.1992248 2.09687744,4.8857502 L2.09687744,11.2838045 C2.09687744,12.9703299 3.51699628,14.3410346 5.26152956,14.3410346 L12.568374,14.3410346 C12.7574367,14.3410346 12.9400541,14.4097847 13.0797027,14.5343942 L15.434393,16.6162326 L15.4773618,14.9447463 C15.488104,14.5258005 15.8318544,14.1906438 16.2508002,14.1906438 C17.7332238,14.1906438 18.657053,13.9908389 19.155491,13.5654478 C19.6174056,13.1701348 19.8215074,12.467595 19.8215074,11.2838045 L19.8215074,4.8857502 C19.8215074,4.337898 19.6711166,3.800788 19.3832257,3.33457652 C19.1597879,2.96934172 19.2758037,2.49453648 19.63889,2.27109872 C20.0041248,2.04766096 20.4789301,2.16367672 20.7023678,2.52676308 L20.7023677,2.52676288 C21.1378178,3.23656234 21.3683841,4.0530254 21.3683841,4.88575 L21.3683841,11.2838043 C21.3683841,12.0722818 21.2867434,12.7146654 21.1170166,13.2496269 C20.9215086,13.8705261 20.6078364,14.358222 20.1609608,14.7406443 C19.4670147,15.3336137 18.4765839,15.6451375 17.0049025,15.7203329 L16.9597852,17.4390849 C16.9963087,17.864476 16.7922069,18.2726796 16.4205268,18.4982658 C16.2422063,18.6099847 16.0402529,18.6636959 15.8382996,18.6636959 L15.8382997,18.6636959 Z" id="路径"></path>
                <path d="M6.01348356,9.77559964 C5.95762412,9.77559964 5.90176468,9.7734512 5.8437568,9.76915432 C5.32383432,9.72403708 4.85332596,9.48126336 4.51816932,9.08165352 C3.8242232,8.258801 3.92949676,7.02559644 4.75234928,6.33165032 C5.14981068,5.99649368 5.65684252,5.83536068 6.17461656,5.87832948 C6.69453904,5.92344672 7.1650474,6.16622044 7.50020404,6.56583028 C7.83536068,6.96544012 7.99649368,7.47032352 7.95352488,7.98809756 C7.91055608,8.5058716 7.66563392,8.9785284 7.26602408,9.31368504 C6.91367992,9.61446664 6.47324972,9.77559964 6.01348356,9.77559964 L6.01348356,9.77559964 Z M5.34102184,8.38985584 C5.49141264,8.56817636 5.7041082,8.6777468 5.93613972,8.6992312 C6.17031968,8.71856716 6.39590588,8.64766864 6.57637484,8.4951294 C6.75469536,8.3447386 6.8642658,8.13204304 6.8857502,7.90001152 C6.90508616,7.66583156 6.83418764,7.44024536 6.6816484,7.2597764 C6.5312576,7.08145588 6.31856204,6.97188544 6.08653052,6.95040104 C5.85235056,6.93106508 5.62676436,7.0019636 5.4462954,7.15450284 C5.07676372,7.46602664 5.02949804,8.02032416 5.34102184,8.38985584 L5.34102184,8.38985584 Z" id="形状"></path>
            </g>
        </g>
    </g>
</svg>