<?xml version="1.0" encoding="UTF-8"?>
<svg width="17px" height="17px" viewBox="0 0 17 17" version="1.1" xmlns="http://www.w3.org/2000/svg" xmlns:xlink="http://www.w3.org/1999/xlink">
    <!-- Generator: Sketch 60 (88103) - https://sketch.com -->
    <title>电话</title>
    <desc>Created with Sketch.</desc>
    <g id="页面-1" stroke="none" stroke-width="1" fill="none" fill-rule="evenodd">
        <g id="商家" transform="translate(-343.000000, -247.000000)" fill="#20C6A9" fill-rule="nonzero">
            <g id="电话" transform="translate(343.000000, 247.000000)">
                <path d="M12.0633517,9.86833942 C10.9666833,10.9650077 10.9666833,12.0608358 9.87044339,12.0608358 C8.77461864,12.0608358 7.67667833,10.965011 6.58043839,9.86833942 C5.48503544,8.77124929 4.38710172,7.67543114 4.38710172,6.5796031 C4.38710172,5.48377836 5.48377005,5.48293476 6.58043839,4.38542614 C7.67837211,3.2887578 4.38753011,2.14844e-05 3.290005,2.14844e-05 C2.19333667,2.14844e-05 6.10623374e-16,3.29002648 6.10623374e-16,3.29002648 C6.10623374e-16,5.48252286 2.49449207,9.76374731 4.62752516,11.8954952 C6.75927309,14.0280999 10.9650027,16.4500465 13.1604484,16.4500465 C13.1604484,16.4500465 16.450025,14.2571382 16.450025,13.1600415 C16.450025,12.0621078 13.16002,8.77252786 12.0633517,9.86835589 L12.0633517,9.86833942 Z" id="路径"></path>
            </g>
        </g>
    </g>
</svg>