<?xml version="1.0" encoding="UTF-8"?>
<svg width="13px" height="16px" viewBox="0 0 13 16" version="1.1" xmlns="http://www.w3.org/2000/svg" xmlns:xlink="http://www.w3.org/1999/xlink">
    <!-- Generator: Sketch 60 (88103) - https://sketch.com -->
    <title>地址</title>
    <desc>Created with Sketch.</desc>
    <g id="页面-1" stroke="none" stroke-width="1" fill="none" fill-rule="evenodd">
        <g id="超级优惠详情" transform="translate(-15.000000, -589.000000)" fill="#333333" fill-rule="nonzero">
            <g id="地址" transform="translate(15.000000, 589.000000)">
                <path d="M6.5109639,15.3676302 L6.50000924,15.3676302 C6.24212483,15.3676302 5.9926814,15.2606594 5.81560697,15.0741199 C5.67575666,14.9276285 4.40537334,13.5858537 3.14223624,11.8864854 C1.43666134,9.59190374 0.571864108,7.76260018 0.571864108,6.44937578 C0.571864108,3.18058996 3.23122343,0.521230641 6.50000924,0.521230641 C9.76874851,0.521230641 12.4280613,3.18057445 12.4280613,6.44936026 C12.4280613,7.24396079 12.1224791,8.21690811 11.5197713,9.3412345 C10.9386159,10.4253266 10.0645242,11.6847863 8.92174872,13.0845928 L8.91226813,13.0958423 L7.21130163,15.0444057 C7.03104632,15.2500616 6.77598591,15.3676302 6.51094838,15.3676302 L6.5109639,15.3676302 Z M6.50004028,1.41347658 C3.72323648,1.41347658 1.46412556,3.67257198 1.46412556,6.44937578 C1.46412556,7.55093945 2.29204005,9.24700273 3.85832323,11.354207 C5.11080049,13.0391915 6.40731361,14.4017739 6.46190069,14.4589367 L6.46190069,14.4589367 C6.4717311,14.4695446 6.48557843,14.4753864 6.50004028,14.4753864 L6.5109639,14.4753864 C6.51492061,14.4753864 6.52764415,14.4707448 6.53973151,14.4569506 L8.23529827,12.5145938 C9.33960836,11.1613988 10.1800447,9.95193335 10.7333945,8.91968193 C11.2658591,7.92639247 11.5358464,7.09526607 11.5358464,6.44936026 C11.5358464,3.67257198 9.27679753,1.41347658 6.50004028,1.41347658 L6.50004028,1.41347658 Z M6.50004028,9.22441069 C4.96987953,9.22441069 3.72500536,7.97953652 3.72500536,6.44937578 C3.72500536,4.91923055 4.96987953,3.67435638 6.50004028,3.67435638 C8.03020102,3.67435638 9.27505967,4.91923055 9.27505967,6.44937578 C9.27505967,7.97953652 8.0301855,9.22441069 6.50004028,9.22441069 Z M6.50004028,4.56660232 C5.46187707,4.56660232 4.6172513,5.41121257 4.6172513,6.44937578 C4.6172513,7.48753899 5.46187707,8.33214924 6.50002476,8.33214924 C7.53820349,8.33214924 8.38279822,7.48753899 8.38279822,6.44937578 C8.38279822,5.41121257 7.53820349,4.56660232 6.50002476,4.56660232 L6.50004028,4.56660232 Z" id="形状"></path>
            </g>
        </g>
    </g>
</svg>