<?xml version="1.0" encoding="UTF-8"?>
<svg width="13px" height="13px" viewBox="0 0 13 13" version="1.1" xmlns="http://www.w3.org/2000/svg" xmlns:xlink="http://www.w3.org/1999/xlink">
    <!-- Generator: Sketch 60 (88103) - https://sketch.com -->
    <title>喇叭</title>
    <desc>Created with Sketch.</desc>
    <g id="页面-1" stroke="none" stroke-width="1" fill="none" fill-rule="evenodd">
        <g id="超值优惠" transform="translate(-15.000000, -170.000000)" fill="#FEFEFF" fill-rule="nonzero">
            <g id="喇叭" transform="translate(15.000000, 170.000000)">
                <path d="M8.70985529,-2.12488253e-05 L8.55286581,-2.12488253e-05 C8.13789504,0.181983364 7.59793238,0.662949932 7.21496174,0.95492944 C6.13603673,1.77487284 5.11511258,2.50182191 3.99218869,3.35976228 C3.79020253,3.51575143 3.53722031,3.78873246 3.35523296,3.83372914 C2.95826036,3.93172227 2.25030977,3.83372914 1.81533512,3.83372914 C1.14538149,3.83372914 0.0934499278,3.65174179 0.00245625286,4.28869751 L0.00245625286,8.69438833 C0.0474531836,8.83037869 0.0994495693,8.98036846 0.203442087,9.05836303 C0.37243034,9.18135454 1.58735077,9.23335068 1.8603318,9.10335996 C2.06831734,9.00636665 2.14031253,8.75938407 2.13331282,8.62939311 C2.11331427,8.10942925 1.58135138,8.12942805 0.976393241,8.15542625 C0.989392337,7.05050305 0.944395406,5.88757901 0.996391792,4.81566133 L2.33529872,4.81566133 C2.78326739,4.81566133 3.27723305,4.89965555 3.67320279,4.79566278 C3.84319137,4.74966603 4.07017539,4.55567965 4.26516184,4.41168927 C5.59707414,3.42475827 6.89598092,2.42383038 8.1898861,1.55289092 L8.1898861,11.495194 C6.93497313,10.6172548 5.45407139,9.63031871 4.15416174,8.72638642 C3.97217439,8.59639546 3.76418885,8.38241053 3.51720602,8.38840992 L3.517206,8.38840992 C3.23922845,8.40215253 3.02007561,8.63007124 3.01724095,8.90837377 C3.02324053,9.2143527 3.37421594,9.41533853 3.58220148,9.5653283 C5.05710384,10.6172548 6.42200897,11.5661863 7.89090686,12.6051111 C8.1248906,12.7750997 8.4168701,13.0550805 8.75484661,12.9890846 C9.30680805,12.8850919 9.13781979,12.0091534 9.13781979,11.2152031 L9.13781979,1.81985225 C9.13781979,1.01390827 9.31980714,0.0909724261 8.70884961,-2.12488253e-05 L8.70985529,-2.12488253e-05 Z M12.9915596,3.24977012 C12.7635753,2.59281559 11.9976289,3.05978274 11.4716682,3.26876886 C11.1396911,3.40475921 10.5997284,3.50875198 10.5867293,3.87872607 L10.5867293,3.87872618 C10.5931141,4.10131032 10.7523574,4.28999652 10.9707028,4.33369455 C11.2756814,4.3796913 11.58066,4.15870691 11.9006384,4.04171505 C12.3676055,3.8597277 12.8095748,3.78873283 12.9905631,3.40475932 L12.9905631,3.24977049 L12.9915596,3.24977012 Z M11.7696445,5.7695891 C11.3996705,5.7695891 11.0936915,5.73159175 10.9057048,5.78958765 C10.5547292,5.89958007 10.4187388,6.55653434 10.8857062,6.71952321 C11.1006915,6.79651785 11.4126698,6.73852195 11.7506463,6.73852195 C12.3286059,6.73852195 12.8875671,6.85551381 12.9975593,6.35454844 L12.9975593,6.17356141 C12.8935665,5.68559514 12.4066005,5.77058942 11.7696448,5.77058942 L11.7696445,5.7695891 Z M11.9256337,8.58339839 C11.7056494,8.46640653 11.3216759,8.18742611 11.0416951,8.20042521 C10.6917199,8.21342431 10.4837343,8.68739116 10.658722,9.06436496 C10.7947123,9.3643445 11.2176831,9.48033605 11.5426605,9.65632401 C11.964631,9.88330803 12.8155691,10.4942656 12.9915647,9.65632401 L12.9915647,9.42234027 C12.8215761,8.94737309 12.4136051,8.83738093 11.9256388,8.58339839 L11.9256337,8.58339839 Z" id="形状"></path>
            </g>
        </g>
    </g>
</svg>