<?xml version="1.0" encoding="UTF-8"?>
<svg width="20px" height="15px" viewBox="0 0 20 15" version="1.1" xmlns="http://www.w3.org/2000/svg" xmlns:xlink="http://www.w3.org/1999/xlink">
    <!-- Generator: Sketch 60 (88103) - https://sketch.com -->
    <title>箭头</title>
    <desc>Created with Sketch.</desc>
    <g id="页面-1" stroke="none" stroke-width="1" fill="none" fill-rule="evenodd">
        <g id="超值优惠" transform="translate(-321.000000, -633.000000)" fill="#FFFFFF" fill-rule="nonzero">
            <g id="编组-5" transform="translate(0.000000, 614.000000)">
                <g id="箭头" transform="translate(321.500000, 19.000000)">
                    <path d="M1.2500096,8.5312704 L15.2601695,8.5312704 L10.8332014,12.9582384 L10.8332014,12.9582384 C10.4390862,13.3694015 10.4529082,14.0222061 10.8640704,14.4163213 C11.2587431,14.7946293 11.8800558,14.7991991 12.2802522,14.4267403 L12.2918022,14.4168403 L18.4793094,8.2293331 L18.4793094,8.22933312 C18.8820903,7.82665853 18.8821773,7.17370571 18.4795017,6.77092478 C18.4794376,6.77086068 18.4793735,6.77079658 18.4793094,6.7707325 L12.2918022,0.583225301 L12.2918023,0.583225372 C11.8890214,0.180444434 11.2359815,0.180444434 10.8332006,0.58322523 C10.4304197,0.986006167 10.4304197,1.63904599 10.8332005,2.04182693 C10.8332005,2.04182693 10.8332005,2.04182693 10.8332005,2.04182693 L15.2601685,6.46879497 L1.25000865,6.46879497 L1.25000865,6.46879497 C0.680464725,6.46879499 0.21875745,6.93050224 0.21875745,7.50004617 C0.21875745,8.06959009 0.680464725,8.53129737 1.25000865,8.53129737 L1.2500096,8.5312704 Z" id="形状"></path>
                </g>
            </g>
        </g>
    </g>
</svg>