<?xml version="1.0" encoding="UTF-8"?>
<svg width="67px" height="67px" viewBox="0 0 67 67" version="1.1" xmlns="http://www.w3.org/2000/svg" xmlns:xlink="http://www.w3.org/1999/xlink">
    <!-- Generator: Sketch 60 (88103) - https://sketch.com -->
    <title>编组 2</title>
    <desc>Created with Sketch.</desc>
    <defs>
        <rect id="path-1" x="0" y="0" width="67" height="67" rx="5"></rect>
        <mask id="mask-2" maskContentUnits="userSpaceOnUse" maskUnits="objectBoundingBox" x="0" y="0" width="67" height="67" fill="white">
            <use xlink:href="#path-1"></use>
        </mask>
    </defs>
    <g id="页面-1" stroke="none" stroke-width="1" fill="none" fill-rule="evenodd">
        <g id="打分-评论" transform="translate(-15.000000, -364.000000)">
            <g id="编组-2" transform="translate(15.000000, 364.000000)">
                <use id="矩形" stroke="#D1D1D1" mask="url(#mask-2)" stroke-width="2" stroke-dasharray="5" xlink:href="#path-1"></use>
                <text id="上传照片" font-family="PingFangSC-Regular, PingFang SC" font-size="10" font-weight="normal" letter-spacing="0.357142857" fill="#999999">
                    <tspan x="12" y="48">上传照片</tspan>
                </text>
                <g id="编组-3" transform="translate(23.000000, 16.000000)" fill-rule="nonzero">
                    <g id="照片-拍照" fill="#333333">
                        <path d="M10.0000116,14.465927 C12.3750144,14.465927 14.2500067,12.4659247 14.2500067,10.0909219 C14.2500067,7.7159168 12.3750144,5.7159168 10.0000116,5.7159168 C7.62500887,5.7159168 5.75000669,7.7159168 5.75000669,10.0909219 C5.75000669,12.4659247 7.62500887,14.465927 10.0000116,14.465927 Z M10.0000116,7.21591855 C11.6250083,7.21591855 12.875015,8.46592 12.875015,10.0909219 C12.875015,11.7159185 11.6250083,12.9659252 10.0000116,12.9659252 C8.37500975,12.9659252 7.12500829,11.7159185 7.12500829,10.0909219 C7.12500829,8.46592 8.37500975,7.21591855 10.0000116,7.21591855 Z M4.25000495,2.09091258 C4.62500538,2.09091258 5,2.46591302 5,2.84091345 C5,3.21591389 4.62500538,3.59091258 4.25000495,3.46591418 L4.25000495,3.46591418 L2.12500247,3.46591418 C1.75000204,3.46591418 1.3750016,3.84091462 1.3750016,4.21591505 L1.3750016,4.21591505 L1.3750016,15.9659287 C1.3750016,16.3409292 1.75000204,16.7159296 2.12500247,16.7159296 L2.12500247,16.7159296 L17.8750208,16.7159296 C18.2500212,16.7159296 18.6250217,16.3409292 18.6250217,15.9659287 L18.6250217,15.9659287 L18.625,8.09091025 L20,8.09091025 L20.0000233,15.8409286 C20.0000233,16.9659299 19.0000221,17.9659311 17.8750208,17.9659311 L17.8750208,17.9659311 L2.12500247,17.9659311 C1,17.9659311 0,17.09093 0,15.8409286 L0,15.8409286 L0,4.21591505 C0,3.09091258 1,2.09091258 2.12500247,2.09091258 L2.12500247,2.09091258 Z M14,2.09091025 L14,3.59091025 L10.0000116,3.59091258 C9.65626124,3.59091258 9.31251084,3.27580952 9.25760626,2.93444652 L9.25001076,2.84091345 C9.25001076,2.46591302 9.6250112,2.09091258 10.0000116,2.09091258 L10.0000116,2.09091258 L14,2.09091025 Z M5.00000524,1.59091025 L9.00000524,1.59091025 C9.25001076,1.59091025 9.50000524,1.34091171 9.50000524,1.09091025 L9.50000524,0.590910255 C9.50000524,0.340910545 9.25001076,0.0909102545 9.00000524,0.0909102545 L5.00000524,0.0909102545 C4.75000553,0.0909102545 4.50000524,0.340910545 4.50000524,0.590910255 L4.50000524,1.09091025 C4.50000524,1.34091171 4.75000553,1.59091025 5.00000524,1.59091025 Z" id="形状"></path>
                    </g>
                    <g id="加号" transform="translate(13.000000, 1.000000)" fill="#FF7564">
                        <path d="M7.29591875,4.49955263 L4.494487,4.49955263 L4.494487,7.3014312 C4.494487,7.57447328 4.27304024,7.79570084 3.99998974,7.79570084 C3.72694766,7.79570084 3.5055009,7.57447328 3.5055009,7.3014312 L3.5055009,4.49955263 L0.704052293,4.49955263 C0.430782592,4.49955263 0.20956346,4.27832507 0.20956346,4.00528299 C0.20956346,3.73234209 0.430807884,3.51101336 0.704052293,3.51101336 L3.50548404,3.51101336 L3.50548404,0.709134786 C3.50548404,0.436193879 3.7269308,0.214865149 3.99997288,0.214865149 C4.27302338,0.214865149 4.49447014,0.43620231 4.49447014,0.709134786 L4.49447014,3.51102179 L7.29590189,3.51102179 C7.56917159,3.51102179 7.79039915,3.73234209 7.79039915,4.00527456 C7.79039915,4.27831664 7.56917159,4.49952734 7.29590189,4.49952734 L7.29591875,4.49955263 Z" id="路径"></path>
                    </g>
                </g>
            </g>
        </g>
    </g>
</svg>