<?xml version="1.0" encoding="UTF-8"?>
<svg width="20px" height="20px" viewBox="0 0 20 20" version="1.1" xmlns="http://www.w3.org/2000/svg" xmlns:xlink="http://www.w3.org/1999/xlink">
    <!-- Generator: Sketch 60 (88103) - https://sketch.com -->
    <title>店铺</title>
    <desc>Created with Sketch.</desc>
    <g id="页面-1" stroke="none" stroke-width="1" fill="none" fill-rule="evenodd">
        <g id="确认订单" transform="translate(-30.000000, -191.000000)" fill="#B7B7B7" fill-rule="nonzero">
            <g id="店铺" transform="translate(30.000000, 191.000000)">
                <path d="M18.1292795,9.89803711 C18.5766234,9.89803711 18.9457823,10.232785 18.999929,10.6654535 L19.0067658,10.7755236 L19.0067658,10.7755236 L19.0067658,16.4611757 C19.0063468,17.9182068 17.8187645,19.1036955 16.3617293,19.1036955 L4.11506062,19.1036955 C2.65524679,19.1018278 1.47229527,17.9188756 1.47045375,16.4590679 L1.47045375,10.7755234 C1.47045375,10.2909008 1.86331749,9.89803711 2.34794008,9.89803711 C2.795284,9.89803711 3.16444287,10.2327849 3.21858954,10.6654534 L3.2254264,10.7755235 L3.2254264,10.7755235 L3.2254264,16.4611755 C3.2254264,16.9523007 3.62436102,17.3508139 4.11506471,17.3508139 L16.3621549,17.3508139 C16.8533926,17.3505826 17.251562,16.9524133 17.2517932,16.4611755 L17.2517932,10.7755236 C17.2517931,10.290901 17.6446569,9.89803711 18.1292795,9.89803711 Z M14.6214232,12.0883948 C15.0687672,12.0883948 15.4379261,12.4231426 15.4920728,12.8558111 L15.4989097,12.9658812 L15.4989097,12.9658812 L15.4989097,14.2808442 C15.4991461,14.7652356 15.1066617,15.1581034 14.6222703,15.158341 L14.6214232,15.158341 C14.1370319,15.1585724 13.7441681,14.7660828 13.7439368,14.2816915 L13.7439368,12.9658812 C13.7439368,12.4812586 14.1368006,12.0883948 14.6214232,12.0883948 Z M15.4989284,0.692382568 C17.9155756,0.692382568 19.881746,2.65897451 19.881746,5.07520017 C19.881746,7.49184733 17.9151541,9.46012558 15.4989284,9.46012558 C14.6303351,9.46012558 13.7905066,9.20038502 13.078605,8.72687041 L12.8689716,8.57844867 C12.1110797,9.14997054 11.1878357,9.45943388 10.2386058,9.46012558 C9.37003337,9.46012558 8.53020488,9.20038493 7.81798039,8.72687031 L7.60824028,8.57844848 C6.8504773,9.14991101 5.92738676,9.45937231 4.97830418,9.46012558 C2.56165702,9.46012558 0.59548658,7.49353334 0.59548658,5.07730769 C0.59548658,2.66066053 2.56207853,0.692382568 4.97830418,0.692382568 L15.4989284,0.692382568 Z M15.4985902,2.44694967 L4.97786352,2.44694967 C3.5815782,2.4482825 2.43982233,3.53639119 2.35282345,4.91103415 L2.34749764,5.07720759 C2.34882421,6.52934432 3.52561824,7.70624339 4.97776112,7.70767748 C5.72995247,7.70767748 6.44903943,7.38081816 6.95022137,6.81175165 L7.60770744,6.06375078 L8.2651933,6.8117514 C8.76366412,7.37958819 9.48206767,7.70589939 10.2376536,7.70767748 C10.9898449,7.70767748 11.7089319,7.38081996 12.2101138,6.81175345 L12.8684388,6.06375258 L12.8685418,6.06374886 L13.5260276,6.81174949 C13.9829592,7.33226654 14.6246954,7.64983502 15.3104718,7.70051945 L15.4984878,7.70767748 C16.9506245,7.70628956 18.1274622,6.52944652 18.1288537,5.07730979 C18.1275271,3.62528103 16.9507331,2.44838197 15.4985902,2.44694967 Z" id="形状结合"></path>
                <path d="M7.60823988,7.67876201 L7.60823985,7.67876201 C7.12384848,7.67899338 6.73098474,7.28650382 6.73075343,6.80211245 C6.73075343,6.80183301 6.73075343,6.80155358 6.73075343,6.80127415 L6.73075343,5.95270173 L6.73075343,5.95270185 C6.73075343,5.46807926 7.12361727,5.07521553 7.60823985,5.07521553 C8.09286244,5.07521553 8.48572628,5.46807926 8.48572628,5.95270185 C8.48572628,5.95270186 8.48572628,5.95270187 8.48572628,5.95270188 L8.48572628,6.80127429 L8.48572628,6.80126519 C8.48596269,7.28565656 8.09347832,7.67852439 7.60908695,7.67876201 C7.60880752,7.67876201 7.60852808,7.67876201 7.60824865,7.67876201 L7.60823988,7.67876201 Z M12.8685418,7.67876201 L12.8685417,7.67876201 C12.3841504,7.67899338 11.9912866,7.28650382 11.9910553,6.80211245 C11.9910553,6.80183301 11.9910553,6.80155358 11.9910553,6.80127415 L11.9910553,5.95270173 L11.9910553,5.95270187 C11.9910553,5.46807928 12.3839191,5.07521554 12.8685417,5.07521554 C13.3531643,5.07521554 13.7460282,5.46807928 13.7460282,5.95270187 C13.7460282,5.95270187 13.7460282,5.95270187 13.7460282,5.95270187 L13.7460282,6.80127428 L13.7460282,6.80126518 C13.7462646,7.28565655 13.3537802,7.67852438 12.8693888,7.67876201 C12.8691094,7.67876201 12.86883,7.67876201 12.8685505,7.67876201 L12.8685418,7.67876201 Z" id="形状"></path>
            </g>
        </g>
    </g>
</svg>