<?xml version="1.0" encoding="UTF-8"?>
<svg width="13px" height="13px" viewBox="0 0 13 13" version="1.1" xmlns="http://www.w3.org/2000/svg" xmlns:xlink="http://www.w3.org/1999/xlink">
    <!-- Generator: Sketch 60 (88103) - https://sketch.com -->
    <title>电 话</title>
    <desc>Created with Sketch.</desc>
    <g id="页面-1" stroke="none" stroke-width="1" fill="none" fill-rule="evenodd">
        <g id="超级优惠详情" transform="translate(-15.000000, -562.000000)" fill="#333333" fill-rule="nonzero">
            <g id="电-话" transform="translate(15.000000, 562.000000)">
                <path d="M5.04843963,4.26378518 C5.51921058,3.79301423 5.55845183,3.04760104 5.12689111,2.53758884 L3.79301423,0.850633747 C3.36145351,0.2817519 2.53758884,0.203284903 1.98835089,0.634845627 C1.94910963,0.674071367 1.90988389,0.674071367 1.90988389,0.713312624 L0.732925494,1.89027102 C-0.385194297,3.0083753 1.20369644,6.02922278 4.1068667,8.93237753 C6.99040858,11.8159349 9.95240193,13.3655999 11.0901346,12.2867059 L12.2474801,11.1293759 C12.7574923,10.6193481 12.7574923,9.79548346 12.2474801,9.32469699 L12.1690131,9.24624551 L10.482058,7.91235312 C9.97203032,7.48080791 9.22661713,7.52003365 8.75584618,7.99082012 L8.03004586,8.71660492 C7.24542244,8.24583398 6.55886337,7.71619339 5.95075578,7.12771418 C5.34266371,6.51962211 4.83265151,5.83306305 4.36186505,5.04842411 L5.04842411,4.26378518 L5.04843963,4.26378518 Z M4.44034756,3.10645517 C4.57765317,3.28300203 4.57765317,3.53800037 4.40109079,3.6753215 L3.45954889,4.67573303 C3.32222777,4.81303864 3.28300203,5.02881124 3.3810819,5.18574524 C3.8910941,6.12730265 4.53841191,6.97078019 5.2838251,7.73580626 C6.0292383,8.48121945 6.89232871,9.12853726 7.83388612,9.63856498 C8.01043299,9.71701646 8.20659272,9.67779072 8.34391384,9.56009798 L9.34432538,8.55968645 C9.52085673,8.38313958 9.73664485,8.38313958 9.91317619,8.52044519 L11.6001468,9.89356332 C11.6001468,9.89356332 11.6393881,9.89356332 11.6393881,9.93280458 C11.8159349,10.0897231 11.8159349,10.3643498 11.6590009,10.5212683 C11.6590009,10.5212683 11.6590009,10.5408967 11.6393881,10.5408967 L10.4428168,11.6982267 C9.87395045,12.267093 7.20618118,10.8351363 4.65610465,8.32428546 C2.10604363,5.81345018 0.732909977,3.10645517 1.28216344,2.53758884 L2.49834758,1.32140469 C2.67489444,1.18408357 2.96913404,1.18408357 3.10643965,1.39987169 L4.44033204,3.10645517 L4.44034756,3.10645517 Z" id="形状"></path>
            </g>
        </g>
    </g>
</svg>