<?xml version="1.0" encoding="UTF-8"?>
<svg width="13px" height="13px" viewBox="0 0 13 13" version="1.1" xmlns="http://www.w3.org/2000/svg" xmlns:xlink="http://www.w3.org/1999/xlink">
    <!-- Generator: Sketch 60 (88103) - https://sketch.com -->
    <title>时间</title>
    <desc>Created with Sketch.</desc>
    <g id="页面-1" stroke="none" stroke-width="1" fill="none" fill-rule="evenodd">
        <g id="超级优惠详情" transform="translate(-15.000000, -535.000000)" fill="#333333" fill-rule="nonzero">
            <g id="时间" transform="translate(15.000000, 535.000000)">
                <path d="M6.49153723,0.229181961 C3.03411719,0.229181961 0.220709945,3.04257369 0.220709945,6.50000924 C0.220709945,9.95742928 3.03410167,12.7708365 6.49153723,12.7708365 C9.94895727,12.7708365 12.7623645,9.9574448 12.7623645,6.50000924 C12.7623645,3.04258921 9.94897278,0.229181961 6.49153723,0.229181961 Z M6.49153723,11.8047785 C3.56797827,11.8047785 1.18676793,9.4235682 1.18676793,6.50000924 C1.18676793,3.57645029 3.56797827,1.19523994 6.49153723,1.19523994 C9.41509619,1.19523994 11.7963065,3.57645029 11.7963065,6.50000924 C11.7963065,9.4235682 9.4235682,11.8047785 6.49153723,11.8047785 Z" id="形状"></path>
                <path d="M5.85597007,2.95783802 C5.85597007,2.69514194 6.06783252,2.47481524 6.33900372,2.47481524 C6.61017492,2.47481524 6.8220265,2.68666682 6.8220265,2.95783802 L6.8220265,6.16952307 L9.07612559,6.16952307 C9.33882167,6.16952307 9.55914837,6.38137466 9.55914837,6.65254586 C9.55914837,6.91524194 9.34729679,7.13556864 9.07612559,7.13556864 L6.4830528,7.13556864 C6.13561484,7.13556864 5.85597007,6.85592387 5.85597007,6.50848591 L5.85597007,2.95784268 L5.85597007,2.95783802 Z" id="路径"></path>
            </g>
        </g>
    </g>
</svg>