<?xml version="1.0" encoding="UTF-8"?>
<svg width="22px" height="22px" viewBox="0 0 22 22" version="1.1" xmlns="http://www.w3.org/2000/svg" xmlns:xlink="http://www.w3.org/1999/xlink">
    <!-- Generator: Sketch 60 (88103) - https://sketch.com -->
    <title>住宅</title>
    <desc>Created with Sketch.</desc>
    <g id="页面-1" stroke="none" stroke-width="1" fill="none" fill-rule="evenodd">
        <g id="iPhone-8备份-6" transform="translate(-231.000000, -92.000000)" fill-rule="nonzero">
            <g id="住宅" transform="translate(231.000000, 92.000000)">
                <path d="M3.99996559,-1.77635684e-15 L18.00006,-1.77635684e-15 C20.6667037,-1.77635684e-15 22.0000256,1.33332186 22.0000256,3.99996559 L22.0000256,18.00006 C22.0000256,20.6667037 20.6667037,22.0000256 18.00006,22.0000256 L3.99996559,22.0000256 C1.33332186,22.0000256 -1.77635684e-15,20.6667037 -1.77635684e-15,18.00006 L-1.77635684e-15,3.99996559 C-1.77635684e-15,1.33332186 1.33332186,-1.77635684e-15 3.99996559,-1.77635684e-15 Z" id="路径" fill="#42CE2E"></path>
                <polygon id="路径" fill="#FFFFFF" points="17.9968373 11.4090758 15.9968546 11.4090758 15.9968546 17.9989858 11.9966741 17.9989858 11.9966741 13.9990202 9.99669132 13.9990202 9.99669132 17.9989858 5.99672573 17.9989858 5.99672573 11.4090758 3.99674293 11.4090758 10.9967901 3.99889137 17.9968373 11.4090758"></polygon>
            </g>
        </g>
    </g>
</svg>