<?xml version="1.0" encoding="UTF-8"?>
<svg width="10px" height="18px" viewBox="0 0 10 18" version="1.1" xmlns="http://www.w3.org/2000/svg" xmlns:xlink="http://www.w3.org/1999/xlink">
    <!-- Generator: Sketch 60 (88103) - https://sketch.com -->
    <title>箭头</title>
    <desc>Created with Sketch.</desc>
    <g id="页面-1" stroke="none" stroke-width="1" fill="none" fill-rule="evenodd">
        <g id="信息通知" transform="translate(-15.000000, -33.000000)" fill="#666666" fill-rule="nonzero">
            <g id="箭头" transform="translate(20.000000, 42.000000) rotate(-270.000000) translate(-20.000000, -42.000000) translate(11.000000, 37.000000)">
                <path d="M17.731273,0.39375744 C17.4562726,0.11875712 17.0437722,0.1875072 16.7687718,0.46250752 L9.06876288,8.02501632 L1.23125376,0.46250752 C1.02500352,0.1875072 0.54375296,0.11875712 0.26875264,0.39375744 C0.13125248,0.5312576 0.0625024,0.73750784 0.0625024,0.94375808 C0.0625024,1.08125824 0.13125248,1.28750848 0.26875264,1.42500864 L8.58751232,9.53751808 C8.58751232,9.53751808 8.58751232,9.53751808 8.58751232,9.53751808 C8.58751232,9.53751808 8.58751232,9.53751808 8.58751232,9.53751808 C8.58751232,9.53751808 8.6562624,9.53751808 8.6562624,9.60626816 C8.72501248,9.60626816 8.72501248,9.67501824 8.79376256,9.67501824 C8.86251264,9.67501824 8.86251264,9.67501824 8.93126272,9.67501824 C9.0000128,9.67501824 9.0000128,9.67501824 9.06876288,9.67501824 C9.13751296,9.67501824 9.13751296,9.67501824 9.20626304,9.67501824 C9.27501312,9.67501824 9.27501312,9.67501824 9.3437632,9.67501824 C9.41251328,9.67501824 9.41251328,9.60626816 9.48126336,9.60626816 C9.48126336,9.60626816 9.55001344,9.60626816 9.55001344,9.53751808 C9.55001344,9.53751808 9.55001344,9.53751808 9.55001344,9.53751808 C9.55001344,9.53751808 9.55001344,9.53751808 9.55001344,9.53751808 L17.731273,1.49375872 C18.0062733,1.08125824 18.0062733,0.66875776 17.731273,0.39375744 Z" id="路径"></path>
            </g>
        </g>
    </g>
</svg>