<?xml version="1.0" encoding="UTF-8"?>
<svg width="16px" height="16px" viewBox="0 0 16 16" version="1.1" xmlns="http://www.w3.org/2000/svg" xmlns:xlink="http://www.w3.org/1999/xlink">
    <!-- Generator: Sketch 60 (88103) - https://sketch.com -->
    <title>首 页</title>
    <desc>Created with Sketch.</desc>
    <g id="页面-1" stroke="none" stroke-width="1" fill="none" fill-rule="evenodd">
        <g id="超级优惠详情" transform="translate(-331.000000, -588.000000)" fill="#000000" fill-rule="nonzero">
            <g id="首-页" transform="translate(331.000000, 588.000000)">
                <path d="M3.33810964,14.8460038 L12.6614705,14.8460038 L12.6614705,9.65302934 L12.6614705,9.65302943 C12.6614704,9.33436192 12.9223597,9.07603138 13.2441835,9.07603138 C13.5660073,9.07603138 13.8268966,9.33436192 13.8268966,9.65302943 C13.8268966,9.65302943 13.8268966,9.65302943 13.8268966,9.65302943 L13.8268966,15.4230256 L13.8268966,15.4230098 C13.8268966,15.74166 13.5660297,16 13.2442234,16 L2.75538863,16 L2.75538861,16 C2.43356957,16 2.17268353,15.7416726 2.17268353,15.4230098 C2.17268353,15.4230098 2.17268353,15.4230098 2.17268353,15.4230098 L2.17268353,9.65302943 L2.17268353,9.65302951 C2.17268353,9.33436201 2.43357276,9.07603138 2.75539657,9.07603138 C3.07722039,9.07603138 3.33810961,9.33436201 3.33810961,9.65302951 C3.33810961,9.65302951 3.33810961,9.65302951 3.33810961,9.65302951 L3.33810961,14.846004 L3.33810964,14.8460038 Z M7.99979803,1.39390226 L0.995594134,8.32939616 L0.995594133,8.32939616 C0.768064938,8.55501097 0.398907388,8.55526972 0.171057929,8.32997204 C-0.0567915299,8.10467435 -0.0570528398,7.73913734 0.17047635,7.51352253 C0.17047635,7.51352253 0.170476356,7.51352252 0.170476356,7.51352252 L7.58723118,0.169523822 L7.58723112,0.169523874 C7.81449741,-0.0560956682 8.18344624,-0.0565674082 8.41130047,0.168469232 C8.41165593,0.168820291 8.41201092,0.169171802 8.41236546,0.169523769 L15.8291043,7.51352247 L15.8291043,7.51352247 C16.0569586,7.73913412 16.0569665,8.10492831 15.8291203,8.33054785 C15.601274,8.55616739 15.2318568,8.55617528 15.0040025,8.33056364 C15.0040025,8.33056364 15.0040025,8.33056363 15.0040025,8.33056363 L7.9997986,1.39505395 L7.99979803,1.39390226 Z" id="形状"></path>
            </g>
        </g>
    </g>
</svg>