<?xml version="1.0" encoding="UTF-8"?>
<svg width="15px" height="13px" viewBox="0 0 15 13" version="1.1" xmlns="http://www.w3.org/2000/svg" xmlns:xlink="http://www.w3.org/1999/xlink">
    <!-- Generator: Sketch 60 (88103) - https://sketch.com -->
    <title>对号</title>
    <desc>Created with Sketch.</desc>
    <g id="页面-1" stroke="none" stroke-width="1" fill="none" fill-rule="evenodd">
        <g id="确认订单" transform="translate(-326.000000, -273.000000)" fill="#FFFFFF" fill-rule="nonzero">
            <g id="编组-4" transform="translate(30.000000, 221.000000)">
                <g id="编组-2" transform="translate(292.000000, 47.000000)">
                    <g id="对号" transform="translate(4.000000, 5.000000)">
                        <path d="M1.48746394,5.52787753 L4.99292846,8.31841178 L13.7258341,0.27737418 C13.7258341,0.27737418 14.3100787,-0.260745974 14.8251348,0.162062847 C14.9788832,0.285061662 15.1556946,0.638682422 14.755948,1.19986484 L5.63865931,11.8776943 L5.63865933,11.8776942 C5.37270455,12.3022598 4.81292749,12.4308373 4.38836197,12.1648825 C4.27215697,12.0920897 4.17396757,11.9938994 4.10117369,11.8776942 L0.172894946,6.55800409 C0.172894946,6.55800409 -0.288350385,5.8353858 0.295893761,5.40489076 L0.295893681,5.40489082 C0.662360303,5.121697 1.18655481,5.17580684 1.48744352,5.52788945 L1.48746394,5.52787753 Z" id="路径"></path>
                    </g>
                </g>
            </g>
        </g>
    </g>
</svg>