<?xml version="1.0" encoding="UTF-8"?>
<svg width="15px" height="15px" viewBox="0 0 15 15" version="1.1" xmlns="http://www.w3.org/2000/svg" xmlns:xlink="http://www.w3.org/1999/xlink">
    <!-- Generator: Sketch 60 (88103) - https://sketch.com -->
    <title>删 除 </title>
    <desc>Created with Sketch.</desc>
    <g id="页面-1" stroke="none" stroke-width="1" fill="none" fill-rule="evenodd">
        <g id="我的地址" transform="translate(-314.000000, -166.000000)" fill="#BDBDBD" fill-rule="nonzero">
            <g id="编组" transform="translate(0.000000, 74.000000)">
                <g id="删-除-" transform="translate(314.000000, 92.000000)">
                    <g id="删-除-copy-5">
                        <path d="M12.4138123,12.9310551 C12.4138123,13.5460558 11.9601819,13.9655392 11.3793194,13.9655392 L3.6206922,13.9655392 C3.03982971,13.9655392 2.58620809,13.5460558 2.58620809,12.9310551 L2.58620809,3.10345088 L12.4138123,3.10345088 L12.4138123,12.9310551 L12.4138123,12.9310551 Z M5.17241325,1.03448851 C5.17241325,1.11104031 6.72413868,1.11104031 9.82758956,1.03448851 C9.76810673,1.03448851 9.76810673,1.37948891 9.82758956,2.06897262 L5.17241325,2.06897262 L5.17241325,1.03448851 L5.17241325,1.03448851 Z M10.8620781,2.06897262 L10.8620781,1.5517313 C11.081906,0.588626173 10.4482841,5.85938182e-06 9.82759396,5.85938182e-06 L5.17241764,5.85938182e-06 C4.56465766,5.85938182e-06 3.93103729,0.588627638 4.13793353,1.5517313 L4.13793353,2.06897262 L0.517245719,2.06897262 C0.27155598,1.87345531 4.39453636e-06,2.12586927 4.39453636e-06,2.58621395 C4.39453636e-06,2.75017996 0.27155598,3.00259334 0.517245719,3.10345527 L1.55172983,3.10345527 L1.55172983,12.9310595 C1.38362563,14.075199 2.89655903,15.0000218 4.13794378,15.0000218 L11.379334,15.0000218 C12.6207144,15.0000218 13.6164021,14.0751931 13.4482964,12.9310595 L13.4482964,3.10345527 L14.4827805,3.10345527 C14.7284703,2.99017921 15.0000218,2.73828248 15.0000218,2.58621395 C15.0000218,2.11345412 14.7284703,1.87345384 14.4827805,2.06897262 L10.8620927,2.06897262 L10.8620781,2.06897262 Z M7.75862719,12.4138138 C8.0446617,12.4138138 8.27586852,12.1577793 8.27586852,11.8965724 L8.27586852,5.68967068 C8.27586852,5.42846384 8.0446617,5.17242936 7.75862719,5.17242936 C7.47259268,5.17242936 7.24138587,5.42846384 7.24138587,5.68967068 L7.24138587,11.8965724 C7.24138587,12.1577793 7.47259268,12.4138138 7.75862719,12.4138138 Z M4.65517632,12.4138138 C4.94121083,12.4138138 5.17241764,12.1577793 5.17241764,11.8965724 L5.17241764,5.68967068 C5.17241764,5.42846384 4.94121083,5.17242936 4.65517632,5.17242936 C4.3691418,5.17242936 4.13793499,5.42846384 4.13793499,5.68967068 L4.13793499,11.8965724 C4.14879707,12.1577793 4.38000363,12.4138138 4.65517632,12.4138138 Z M10.3448411,12.4138138 C10.6308757,12.4138138 10.8620825,12.1577793 10.8620825,11.8965724 L10.8620825,5.68967068 C10.8620825,5.42846384 10.6308757,5.17242936 10.3448411,5.17242936 C10.0588066,5.17242936 9.82759981,5.42846384 9.82759981,5.68967068 L9.82759981,11.8965724 C9.82759981,12.1577793 10.0588066,12.4138138 10.3448411,12.4138138 Z" id="形状"></path>
                    </g>
                </g>
            </g>
        </g>
    </g>
</svg>