<?xml version="1.0" encoding="UTF-8"?>
<svg width="149px" height="110px" viewBox="0 0 149 110" version="1.1" xmlns="http://www.w3.org/2000/svg" xmlns:xlink="http://www.w3.org/1999/xlink">
    <!-- Generator: Sketch 60 (88103) - https://sketch.com -->
    <title>编组 2</title>
    <desc>Created with Sketch.</desc>
    <defs>
        <linearGradient x1="100%" y1="51.6240292%" x2="5.79766656%" y2="49.5493154%" id="linearGradient-1">
            <stop stop-color="#FFFFFF" offset="0%"></stop>
            <stop stop-color="#A9E9D9" stop-opacity="0.313893138" offset="100%"></stop>
        </linearGradient>
        <linearGradient x1="22.7641323%" y1="40.8731506%" x2="50%" y2="62.9112721%" id="linearGradient-2">
            <stop stop-color="#F3FFFB" offset="0%"></stop>
            <stop stop-color="#D1FEEF" offset="100%"></stop>
        </linearGradient>
        <linearGradient x1="34.7602554%" y1="2.02702703%" x2="68.1592707%" y2="103.498491%" id="linearGradient-3">
            <stop stop-color="#E2EDFC" offset="0%"></stop>
            <stop stop-color="#C5FFF0" offset="100%"></stop>
        </linearGradient>
        <linearGradient x1="103.208093%" y1="52.2378821%" x2="-13.9922893%" y2="47.7621179%" id="linearGradient-4">
            <stop stop-color="#FFFFFF" offset="0%"></stop>
            <stop stop-color="#AAFFEA" offset="100%"></stop>
        </linearGradient>
        <linearGradient x1="50%" y1="0%" x2="50%" y2="100%" id="linearGradient-5">
            <stop stop-color="#E6FCED" offset="0%"></stop>
            <stop stop-color="#8ADAC6" offset="100%"></stop>
        </linearGradient>
        <linearGradient x1="50%" y1="0%" x2="50%" y2="100%" id="linearGradient-6">
            <stop stop-color="#FFFFFF" offset="0%"></stop>
            <stop stop-color="#88D9C5" offset="100%"></stop>
        </linearGradient>
    </defs>
    <g id="页面-1" stroke="none" stroke-width="1" fill="none" fill-rule="evenodd">
        <g id="通过" transform="translate(-113.000000, -147.000000)">
            <g id="编组-2" transform="translate(112.420588, 147.000000)">
                <g id="编组" transform="translate(0.579412, 3.000000)">
                    <path d="M139.200699,102.136364 C146.641366,102.136364 149,101.845497 149,99.0021081 C149,96.1587195 144.354165,94.8409091 135.102338,94.8409091 C125.850511,94.8409091 117.245902,95.9357361 117.245902,98.7228637 C117.245902,101.509991 131.760032,102.136364 139.200699,102.136364 Z" id="椭圆形备份-2" fill="url(#linearGradient-1)"></path>
                    <path d="M36.2322404,64.0378788 C43.1255722,64.0378788 48.8755938,68.9113184 50.1958285,75.3862584 L63.9153005,75.3863636 C71.7846037,75.3863636 78.1639344,81.7374758 78.1639344,89.5719697 C78.1639344,97.4064636 71.7846037,103.757576 63.9153005,103.757576 L14.2486339,103.757576 C6.37933068,103.757576 0,97.4064636 0,89.5719697 C0,81.7780621 6.31340606,75.4522069 14.1264545,75.3868743 C15.4462172,68.9118213 21.1964765,64.0378788 28.0901639,64.0378788 L36.2322404,64.0378788 Z" id="形状结合" fill="url(#linearGradient-2)"></path>
                    <path d="M41.1553644,94.3106608 C37.0703551,75.523503 29.1012469,63.2551064 17.2480399,57.5054711 C14.9271523,56.4307527 12.311561,55.7568369 9.401266,55.4837237 C12.7290007,59.9741914 14.392868,62.8087044 14.392868,63.9872628 C14.392868,65.7551004 16.5506284,73.6994328 19.421501,73.6994328 C21.3354161,73.6994328 22.9053034,74.5346992 24.131163,76.205232 L20.8446673,76.205232 C18.6544076,93.3443094 21.2684992,102.55667 28.6869422,103.842315 C36.1053851,105.127959 40.2615259,101.950741 41.1553644,94.3106608 L41.1553644,94.3106608 Z" id="路径-5" fill="url(#linearGradient-3)"></path>
                    <path d="M78.4179956,107 C93.6809016,107 98.5191257,106.450585 98.5191257,101.07974 C98.5191257,95.7088943 88.9892079,93.219697 70.0111013,93.219697 C51.0329947,93.219697 33.3825137,95.2877035 33.3825137,100.552278 C33.3825137,105.816852 63.1550896,107 78.4179956,107 Z" id="椭圆形" fill="url(#linearGradient-4)"></path>
                    <g id="审核备份" transform="translate(33.382514, 0.000000)" fill="url(#linearGradient-5)" fill-rule="nonzero">
                        <path d="M65.8222797,0 C71.8810467,0 76.7926751,4.87926278 76.7926751,10.8981696 L76.792,61.01 L64.3565267,48.4646628 C63.2067909,47.3046934 61.3403896,47.2775606 60.1574208,48.4036183 L50.2467453,57.8375032 C49.0466609,58.9798531 48.9998577,60.8787714 50.1422076,62.0788558 C50.1533954,62.0906091 50.1646784,62.1022714 50.1760555,62.1138416 L63.2270433,75.3863636 L49.766966,88.7817474 C48.2263482,90.3149605 48.1920013,92.7978341 49.6896181,94.3730767 L53.216,98.083 L10.9703965,98.0833333 C4.91162847,98.0833333 0,93.204061 0,87.1851637 L0,10.898168 C0,4.87929151 4.91159955,0 10.970396,0 L65.8222797,0 Z M38.3962901,16.3471474 L16.4554981,16.3471474 L16.455498,16.3471474 C13.4261094,16.3475465 10.9706374,18.7875068 10.9710424,21.796941 C10.971444,24.8058197 13.4266879,27.2448956 16.455498,27.2452883 L38.39629,27.2452883 L38.3962903,27.2452883 C41.4256789,27.2448891 43.8811508,24.8049289 43.8807459,21.7954947 C43.8803442,18.786616 41.4251004,16.3475401 38.3962903,16.3471474 L38.3962901,16.3471474 Z M49.3666862,38.1434866 L16.4555945,38.1434866 L16.4555943,38.1434866 C13.4262057,38.1434866 10.9704059,40.583118 10.9704059,43.5925619 C10.9704059,46.6020057 13.4262057,49.0416371 16.4555943,49.0416371 L49.3666859,49.0416371 L49.3666857,49.0416371 C52.3960743,49.0416371 54.851874,46.6020057 54.851874,43.5925619 C54.851874,40.583118 52.3960743,38.1434866 49.3666857,38.1434866 L49.3666862,38.1434866 Z M45.667017,59.9397493 L16.3209187,59.9397493 C13.3659092,59.9397493 10.9704057,62.3793806 10.9704057,65.3888245 C10.9704057,68.3982683 13.3659092,70.8378997 16.3209184,70.8378997 L53.6985772,70.8378997 C54.250862,70.8378997 54.6985772,70.3901845 54.6985772,69.8378997 C54.6985772,69.5814048 54.6000184,69.3347165 54.4232768,69.1488348 L45.667017,59.9397493 L45.667017,59.9397493 Z" id="形状"></path>
                    </g>
                    <path d="M132.84612,92.4847475 L127.94459,97.4024242 C127.032678,98.310303 125.588816,98.310303 124.676903,97.4024242 L110.770237,83.5194444 L96.8255738,97.4024242 C95.9136612,98.310303 94.4697996,98.310303 93.5578871,97.4024242 L88.6183607,92.4847475 C87.7064481,91.5768687 87.7064481,90.1393939 88.6183607,89.2315152 L102.563024,75.3485354 L88.6183607,61.5033838 C87.7064481,60.5955051 87.7064481,59.1580303 88.6183607,58.2501515 L93.5198907,53.370303 C94.4318033,52.4624242 95.8756648,52.4624242 96.7875774,53.370303 L110.73224,67.2532828 L124.676903,53.370303 C125.588816,52.4624242 127.032678,52.4624242 127.94459,53.370303 L132.84612,58.2501515 C133.758033,59.1580303 133.758033,60.5955051 132.84612,61.5033838 L118.901457,75.3863636 L132.84612,89.2693434 C133.758033,90.1393939 133.758033,91.5768687 132.84612,92.4847475 Z" id="路径" fill="#88D9C5" fill-rule="nonzero"></path>
                </g>
                <circle id="椭圆形备份" fill="url(#linearGradient-6)" cx="115.079412" cy="4.5" r="4.5"></circle>
            </g>
        </g>
    </g>
</svg>