<?xml version="1.0" encoding="UTF-8"?>
<svg width="19px" height="18px" viewBox="0 0 19 18" version="1.1" xmlns="http://www.w3.org/2000/svg" xmlns:xlink="http://www.w3.org/1999/xlink">
    <!-- Generator: Sketch 60 (88103) - https://sketch.com -->
    <title>盒盒币 1</title>
    <desc>Created with Sketch.</desc>
    <g id="页面-1" stroke="none" stroke-width="1" fill="none" fill-rule="evenodd">
        <g id="提现" transform="translate(-50.000000, -137.000000)">
            <g id="盒盒币" transform="translate(50.000000, 137.000000)">
                <g id="编组-9">
                    <g id="编组-7备份" transform="translate(0.642857, 0.000000)" fill-rule="nonzero">
                        <path d="M8.81979458,0 C4.10893246,0 0.274509804,3.91332051 0.274509804,8.72111428 C0.274509804,13.5289081 4.10893246,17.4422286 8.81979458,17.4422286 L8.90196078,17.4422286 L8.90196078,0 L8.81979458,0 Z" id="路径" fill="#FF9F00"></path>
                        <path d="M17.5294118,8.72111428 C17.5294118,3.9412728 13.6763754,0.0559045787 8.90196078,0 L8.90196078,17.4422286 C13.6763754,17.4142763 17.5294118,13.5289081 17.5294118,8.72111428 Z" id="路径" fill="#FF8B37"></path>
                        <path d="M8.81459419,1.7254902 C5.05783073,1.7254902 2,4.82252388 2,8.62745098 C2,12.4323781 5.05783073,15.5294118 8.81459419,15.5294118 L8.90196078,15.5294118 L8.90196078,1.7254902 L8.81459419,1.7254902 Z" id="路径" fill="#FFE470"></path>
                        <path d="M15.8039216,8.62745098 C15.8039216,4.85201944 12.7264239,1.78448131 8.90196078,1.7254902 L8.90196078,15.5294118 C12.7264239,15.4999162 15.8039216,12.4323781 15.8039216,8.62745098 L15.8039216,8.62745098 Z" id="路径" fill="#FFD400"></path>
                        <path d="M8.90196078,2.58823529 L8.81769266,2.58823529 C5.53123575,2.58823529 2.8627451,5.28811995 2.8627451,8.61324106 C2.8627451,11.9383622 5.53123575,14.6666667 8.81769266,14.6666667 L8.90196078,14.6666667 L8.90196078,2.58823529 Z" id="路径" fill="#FDBF00"></path>
                        <path d="M14.9411765,8.62745098 C14.9411765,5.32297447 12.2249742,2.61672216 8.90196078,2.58823529 L8.90196078,14.6666667 C12.25387,14.6381798 14.9411765,11.9604144 14.9411765,8.62745098 Z" id="路径" fill="#FF9F00"></path>
                    </g>
                    <g id="无限" transform="translate(4.500000, 6.428571)" fill="#FFF284" fill-rule="nonzero">
                        <path d="M2.57028227,4.61468415 C1.98381407,4.61468415 1.42933504,4.39075993 1.02413883,3.97490066 C0.608279565,3.55904139 0.384355343,3.01522543 0.384355343,2.42875723 C0.384355343,1.84228903 0.608279565,1.28781 1.02413883,0.88261379 C1.4399981,0.466754521 1.98381407,0.2428303 2.57028227,0.2428303 C3.15675047,0.2428303 3.71122949,0.466754521 4.1164257,0.88261379 L6.39832015,3.16450824 C6.59558673,3.36177482 6.85683166,3.4684054 7.12340811,3.4684054 C7.40064762,3.4684054 7.65122949,3.35644329 7.84849607,3.16450824 C8.04576264,2.96724166 8.15239322,2.70599674 8.15239322,2.43942028 C8.15239322,2.16218077 8.04043111,1.9115989 7.84849607,1.71433233 C7.65122949,1.51706575 7.38998456,1.41043517 7.12340811,1.41043517 C6.8461686,1.41043517 6.59558673,1.52239728 6.39832015,1.71433233 L6.19039052,1.92226196 L5.36933504,1.07454884 L5.57726467,0.866619203 C5.99312394,0.450759934 6.53693991,0.226835712 7.12340811,0.226835712 C7.70987631,0.226835712 8.26435534,0.450759934 8.66955155,0.866619203 C9.08541082,1.28247847 9.30933504,1.82629444 9.30933504,2.41276264 C9.30933504,2.99923084 9.08541082,3.55370986 8.66955155,3.95890607 C8.25369228,4.37476534 7.70987631,4.59868956 7.12340811,4.59868956 C6.53693991,4.59868956 5.98246089,4.37476534 5.57726467,3.95890607 L3.29537023,1.70366927 C3.09810365,1.50640269 2.83685872,1.39977211 2.57028227,1.39977211 C2.29304276,1.39977211 2.04246089,1.51173422 1.84519431,1.70366927 C1.64792774,1.89560432 1.54129716,2.1675123 1.54129716,2.42875723 C1.54129716,2.70599674 1.65325927,2.95657861 1.84519431,3.15384518 C2.03712936,3.35111176 2.30370581,3.45774234 2.57028227,3.45774234 C2.83685872,3.45774234 3.09810365,3.34578023 3.29537023,3.15384518 L3.50329986,2.94591555 L4.32435534,3.76697103 L4.1164257,3.97490066 C3.71122949,4.39609146 3.15675047,4.61468415 2.57028227,4.61468415 L2.57028227,4.61468415 Z" id="路径"></path>
                    </g>
                </g>
            </g>
        </g>
    </g>
</svg>