<?xml version="1.0" encoding="UTF-8"?>
<svg width="9px" height="8px" viewBox="0 0 9 8" version="1.1" xmlns="http://www.w3.org/2000/svg" xmlns:xlink="http://www.w3.org/1999/xlink">
    <!-- Generator: Sketch 60 (88103) - https://sketch.com -->
    <title>形状</title>
    <desc>Created with Sketch.</desc>
    <g id="页面-1" stroke="none" stroke-width="1" fill="none" fill-rule="evenodd">
        <g id="团长信息" transform="translate(-322.000000, -255.000000)" fill="#999999" fill-rule="nonzero">
            <g id="编组-2" transform="translate(32.000000, 230.000000)">
                <g id="编组-5" transform="translate(241.000000, 20.000000)">
                    <g id="箭头备份-2" transform="translate(48.000000, 5.000000)">
                        <g id="更多" transform="translate(0.500000, 0.000000)">
                            <path d="M5.08774156,4 C5.08774156,4 5.08774156,4.09877082 4.98746297,4.09877082 L1.27715865,7.85185173 C1.07660125,8.04938276 0.775765156,8.04938276 0.675487534,7.85185173 C0.474930137,7.65432071 0.474930137,7.35802418 0.575208943,7.16049422 C1.67827355,6.07407466 2.78133816,4.98765511 3.88440277,4 L0.575208943,0.83950578 C0.474930352,0.641974759 0.474930352,0.345678226 0.575208943,0.148148266 C0.775766341,-0.0493827553 0.976323739,-0.0493827553 1.17688006,0.148148266 C2.48049991,1.43209672 3.78411977,2.61728073 4.987462,3.90122918 C5.08774156,3.90122918 5.08774156,4 5.08774156,4 L5.08774156,4 Z M9.5,4.00000541 C9.5,4.00000541 9.5,4.09876657 9.39972141,4.09876657 L5.68941709,7.85185173 C5.48885969,7.95061714 5.1880236,7.95061714 5.08774598,7.85185173 C4.88718858,7.65432071 4.88718858,7.35802418 5.08774598,7.25925973 C6.19081059,6.17284017 7.2938752,5.08642062 8.39693981,4.09876657 L5.08774598,0.839506841 C4.88718858,0.641975819 4.88718858,0.345679287 5.08774598,0.246914838 C5.28830337,0.0493838163 5.48886077,0.0493838163 5.68941709,0.246914838 C6.99303695,1.43209884 8.19637918,2.7160473 9.5,3.90123131 L9.5,3.99999671 L9.5,4.00000541 Z" id="形状"></path>
                        </g>
                    </g>
                </g>
            </g>
        </g>
    </g>
</svg>