<?xml version="1.0" encoding="UTF-8"?>
<svg width="13px" height="14px" viewBox="0 0 13 14" version="1.1" xmlns="http://www.w3.org/2000/svg" xmlns:xlink="http://www.w3.org/1999/xlink">
    <!-- Generator: Sketch 60 (88103) - https://sketch.com -->
    <title>Search Icon</title>
    <desc>Created with Sketch.</desc>
    <g id="页面-1" stroke="none" stroke-width="1" fill="none" fill-rule="evenodd">
        <g id="商城备份" transform="translate(-27.000000, -79.000000)" fill="#8E8E93">
            <g id="Bars/Navigation-Bar/Search---Grey-Active" transform="translate(0.000000, 64.000000)">
                <path d="M32,15.5 C34.7614237,15.5 37,17.7385763 37,20.5 C37,21.6284013 36.6262055,22.6694983 35.9956849,23.5062223 C36.0766103,23.5400799 36.151943,23.5912829 36.2177516,23.6570914 L39.649991,27.0893308 C39.91804,27.3573798 39.9454093,27.7738316 39.7265811,28.068924 L39.6535412,28.1535412 C39.360648,28.4464344 38.8812716,28.4419317 38.5893308,28.149991 L35.1570914,24.7177516 C35.0908997,24.6515599 35.0393843,24.5763187 35.0026284,24.4960903 C34.1686654,25.1265044 33.12795,25.5 32,25.5 C29.2385763,25.5 27,23.2614237 27,20.5 C27,17.7385763 29.2385763,15.5 32,15.5 Z M32,16.5 C29.790861,16.5 28,18.290861 28,20.5 C28,22.709139 29.790861,24.5 32,24.5 C34.209139,24.5 36,22.709139 36,20.5 C36,18.290861 34.209139,16.5 32,16.5 Z" id="Search-Icon"></path>
            </g>
        </g>
    </g>
</svg>