<?xml version="1.0" encoding="UTF-8"?>
<svg width="149px" height="109px" viewBox="0 0 149 109" version="1.1" xmlns="http://www.w3.org/2000/svg" xmlns:xlink="http://www.w3.org/1999/xlink">
    <!-- Generator: Sketch 60 (88103) - https://sketch.com -->
    <title>编组 3</title>
    <desc>Created with Sketch.</desc>
    <defs>
        <linearGradient x1="100%" y1="51.7258638%" x2="5.79766656%" y2="49.5210553%" id="linearGradient-1">
            <stop stop-color="#FFFFFF" offset="0%"></stop>
            <stop stop-color="#A9E9D9" stop-opacity="0.313893138" offset="100%"></stop>
        </linearGradient>
        <linearGradient x1="22.7641323%" y1="40.9328746%" x2="50%" y2="62.8267836%" id="linearGradient-2">
            <stop stop-color="#F3FFFB" offset="0%"></stop>
            <stop stop-color="#D1FEEF" offset="100%"></stop>
        </linearGradient>
        <linearGradient x1="35.087817%" y1="2.02702703%" x2="67.7689571%" y2="103.498491%" id="linearGradient-3">
            <stop stop-color="#E2EDFC" offset="0%"></stop>
            <stop stop-color="#C5FFF0" offset="100%"></stop>
        </linearGradient>
        <linearGradient x1="103.208093%" y1="52.3374726%" x2="-13.9922893%" y2="47.6625274%" id="linearGradient-4">
            <stop stop-color="#FFFFFF" offset="0%"></stop>
            <stop stop-color="#AAFFEA" offset="100%"></stop>
        </linearGradient>
        <linearGradient x1="50%" y1="0%" x2="50%" y2="100%" id="linearGradient-5">
            <stop stop-color="#E6FCED" offset="0%"></stop>
            <stop stop-color="#8ADAC6" offset="100%"></stop>
        </linearGradient>
    </defs>
    <g id="页面-1" stroke="none" stroke-width="1" fill="none" fill-rule="evenodd">
        <g id="审核" transform="translate(-113.000000, -147.000000)">
            <g id="编组-3" transform="translate(112.363971, 147.000000)">
                <path d="M137.909246,109 C146.813461,109 149.636029,108.641174 149.636029,105.133442 C149.636029,101.62571 144.076378,100 133.004754,100 C121.93313,100 111.636029,101.350628 111.636029,104.788953 C111.636029,108.227279 129.005031,109 137.909246,109 Z" id="椭圆形备份-2" fill="url(#linearGradient-1)"></path>
                <path d="M36.3287377,63 C43.119149,63 48.7833653,67.784752 50.0842384,74.1419888 L63.5995711,74.1428571 C71.351693,74.1428571 77.6360294,80.378891 77.6360294,88.0714286 C77.6360294,95.7639662 71.351693,102 63.5995711,102 L14.6724877,102 C6.92036587,102 0.636029412,95.7639662 0.636029412,88.0714286 C0.636029412,80.4186183 6.85562382,74.2073067 14.5525007,74.1433554 C15.8520879,67.7857563 21.5167805,63 28.3079044,63 L36.3287377,63 Z" id="形状结合" fill="url(#linearGradient-2)"></path>
                <path d="M41.6360294,93.3189211 C37.6480312,74.7775765 29.8681739,62.669701 18.2964576,56.9952946 C16.0306866,55.934638 13.4772106,55.2695398 10.6360294,55 C13.8847369,59.4317139 15.5090906,62.2291398 15.5090906,63.3922778 C15.5090906,65.1369849 17.6156083,72.9773727 20.4183033,72.9773727 C22.2867666,72.9773727 23.8193721,73.8017104 25.0161199,75.4503858 L21.8076721,75.4503858 C19.6694268,92.3652136 22.2214388,101.457039 29.4637081,102.725862 C36.7059774,103.994685 40.7634178,100.859038 41.6360294,93.3189211 L41.6360294,93.3189211 Z" id="路径-5" fill="url(#linearGradient-3)"></path>
                <path d="M84.7996617,108 C102.13945,108 107.636029,107.362086 107.636029,101.126119 C107.636029,94.8901511 96.8093393,92 75.2488091,92 C53.6882789,92 33.6360294,94.4011158 33.6360294,100.513695 C33.6360294,106.626274 67.4598736,108 84.7996617,108 Z" id="椭圆形" fill="url(#linearGradient-4)"></path>
                <g id="编组" transform="translate(33.636029, 0.000000)" fill-rule="nonzero">
                    <g id="审核备份" fill="url(#linearGradient-5)">
                        <path d="M64.5483664,0 C70.489873,0 75.3064426,4.82427383 75.3064426,10.775348 L75.3062992,48.6120957 C73.545117,48.268326 71.725681,48.0882353 69.8643411,48.0882353 C54.2098513,48.0882353 41.5193798,60.8267218 41.5193798,76.5404412 C41.5193798,84.5609231 44.8255157,91.806294 50.144429,96.9783019 L10.7580773,96.9779412 C4.81656964,96.9779412 0,92.1536579 0,86.2025932 L0,10.7753464 C0,4.82430225 4.81654128,0 10.7580768,0 L64.5483664,0 Z M37.6531748,16.1629162 L16.1370211,16.1629162 L16.137021,16.1629162 C13.1662627,16.1633108 10.7583136,18.5757729 10.7587107,21.5512911 C10.7591045,24.5262599 13.16683,26.9378476 16.137021,26.9382358 L37.6531747,26.9382358 L37.653175,26.9382358 C40.6239333,26.9378412 43.0318824,24.5253792 43.0314853,21.549861 C43.0310914,18.5748922 40.623366,16.1633045 37.653175,16.1629162 L37.6531748,16.1629162 Z M48.4112516,37.7136123 L16.1371157,37.7136123 L16.1371155,37.7136123 C13.1663571,37.7136123 10.7580865,40.1257492 10.7580865,43.1012768 C10.7580865,46.0768044 13.1663571,48.4889414 16.1371155,48.4889414 L48.4112514,48.4889414 L48.4112511,48.4889414 C51.3820095,48.4889414 53.7902801,46.0768044 53.7902801,43.1012768 C53.7902801,40.1257492 51.3820095,37.7136123 48.4112511,37.7136123 L48.4112516,37.7136123 Z M47.3241664,59.2642326 L16.0050463,59.2642326 C13.1072276,59.2642326 10.7580863,61.6763695 10.7580863,64.6518971 C10.7580863,67.6274247 13.1072276,70.0395616 16.0050461,70.0395616 L42.275149,70.0395616 C43.262968,65.9467239 44.9459738,62.3549475 47.3241664,59.2642326 Z" id="形状"></path>
                    </g>
                    <g id="审核" transform="translate(47.906977, 53.698529)" fill="#88D9C5">
                        <path d="M54.0776509,47.5938631 L43.1979566,36.673014 C45.6633261,32.9356505 47.1159792,28.465225 47.1159792,23.6471641 C47.1159792,10.5869917 36.5684949,0 23.5580505,0 C10.5470949,0 0,10.5868818 0,23.6471641 C0,36.7067258 10.5469854,47.2943283 23.5580505,47.2943283 C28.3579302,47.2943283 32.8115213,45.8359358 36.5348127,43.3613505 L47.4145069,54.2821996 C48.7682917,55.6412276 50.9837463,55.6412276 52.3375311,54.2821996 L54.0775778,52.5355708 C55.4314843,51.1765428 55.4314843,48.95283 54.0777023,47.5937898 L54.0776509,47.5938631 Z M36.2797628,29.7287726 C34.885883,32.6595674 32.5364421,35.0180178 29.6166919,36.4170481 C27.774041,37.3001109 25.7358924,37.8356947 23.55816,37.8356947 C15.7516232,37.8356947 9.42320802,31.4832676 9.42320802,23.6472741 C9.42320802,15.8112073 15.7515745,9.45885344 23.55816,9.45885344 C31.3645751,9.45885344 37.6931119,15.8111584 37.6931119,23.6472741 C37.6931119,25.8334886 37.1595428,27.8791027 36.2798114,29.7287237 L36.2797628,29.7287726 Z" id="形状"></path>
                    </g>
                </g>
            </g>
        </g>
    </g>
</svg>