<?xml version="1.0" encoding="UTF-8"?>
<svg width="41px" height="33px" viewBox="0 0 41 33" version="1.1" xmlns="http://www.w3.org/2000/svg" xmlns:xlink="http://www.w3.org/1999/xlink">
    <!-- Generator: Sketch 60 (88103) - https://sketch.com -->
    <title>微信</title>
    <desc>Created with Sketch.</desc>
    <g id="页面-1" stroke="none" stroke-width="1" fill="none" fill-rule="evenodd">
        <g id="提现记录" transform="translate(-30.000000, -89.000000)" fill="#7BC55E" fill-rule="nonzero">
            <g id="Repeat-Group" transform="translate(15.000000, 74.000000)">
                <g id="编组">
                    <g id="微信" transform="translate(15.000000, 15.000000)">
                        <path d="M27.9437895,10.3310318 C28.4024826,10.3310318 28.8536971,10.3659379 29.3074045,10.4158036 C28.0858846,4.72612198 22.0057071,0.5 15.0629869,0.5 C7.30259628,0.5 0.945707071,5.78826237 0.945707071,12.5076717 C0.945707071,16.3847334 3.05968434,19.5686613 6.59461332,22.0420023 L5.18363321,26.2880706 L10.1195707,23.8147296 C11.8845423,24.1612965 13.3005082,24.5203299 15.0629869,24.5203299 C15.5067227,24.5203299 15.9454727,24.5003836 16.3792369,24.4679708 C16.1050182,23.523015 15.9429798,22.5356732 15.9429798,21.5059455 C15.9454727,15.3375527 21.2403875,10.3310318 27.9437895,10.3310318 L27.9437895,10.3310318 Z M20.3554088,6.50383583 C21.422369,6.50383583 22.1228733,7.20444956 22.1228733,8.26658995 C22.1228733,9.32374377 21.422369,10.0318374 20.3554088,10.0318374 C19.300913,10.0318374 18.2389386,9.32374377 18.2389386,8.26658995 C18.2389386,7.20195627 19.2984201,6.50383583 20.3554088,6.50383583 Z M10.4760551,10.0318374 C9.41657355,10.0318374 8.34961332,9.32374377 8.34961332,8.26658995 C8.34961332,7.20444956 9.41657355,6.50383583 10.4760551,6.50383583 C11.5355366,6.50383583 12.2385338,7.20195627 12.2385338,8.26658995 C12.2385338,9.32374377 11.5355366,10.0318374 10.4760551,10.0318374 Z M40.8320707,21.336402 C40.8320707,15.6915995 35.1831645,11.0914845 28.8387397,11.0914845 C22.1203804,11.0914845 16.8329443,15.6940928 16.8329443,21.336402 C16.8329443,26.9961642 22.1228733,31.5813195 28.8387397,31.5813195 C30.2447341,31.5813195 31.6631929,31.229766 33.074173,30.8757192 L36.9456432,33 L35.8836687,29.4695052 C38.7180934,27.3402378 40.8320707,24.5203299 40.8320707,21.336402 Z M24.9448335,19.5686613 C24.2443292,19.5686613 23.5338534,18.8705409 23.5338534,18.1574607 C23.5338534,17.4543537 24.2443292,16.7462601 24.9448335,16.7462601 C26.0167795,16.7462601 26.712298,17.4543537 26.712298,18.1574607 C26.712298,18.8705409 26.0167795,19.5686613 24.9448335,19.5686613 Z M32.7102099,19.5686613 C32.0146914,19.5686613 31.3067085,18.8705409 31.3067085,18.1574607 C31.3067085,17.4543537 32.0121985,16.7462601 32.7102099,16.7462601 C33.7721843,16.7462601 34.4776744,17.4543537 34.4776744,18.1574607 C34.4776744,18.8705409 33.7721843,19.5686613 32.7102099,19.5686613 Z" id="形状"></path>
                    </g>
                </g>
            </g>
        </g>
    </g>
</svg>