<?xml version="1.0" encoding="UTF-8"?>
<svg width="15px" height="15px" viewBox="0 0 15 15" version="1.1" xmlns="http://www.w3.org/2000/svg" xmlns:xlink="http://www.w3.org/1999/xlink">
    <!-- Generator: Sketch 60 (88103) - https://sketch.com -->
    <title>编辑</title>
    <desc>Created with Sketch.</desc>
    <g id="页面-1" stroke="none" stroke-width="1" fill="none" fill-rule="evenodd">
        <g id="我的地址" transform="translate(-221.000000, -166.000000)" fill="#BDBDBD" fill-rule="nonzero">
            <g id="编组" transform="translate(0.000000, 74.000000)">
                <g id="编辑" transform="translate(221.000000, 92.000000)">
                    <path d="M3.79530997,10.6776131 L4.00822515,10.8905283 C4.1846073,11.0668914 4.47058854,11.0668914 4.64695159,10.8905283 L14.5189856,0.999396996 C14.6953487,0.823033944 14.6953487,0.537071806 14.5189856,0.360670559 L14.3060705,0.14775538 C14.1296883,-0.0286076722 13.8437071,-0.0286076722 13.667344,0.14775538 L3.79530997,10.0388867 C3.61894692,10.2152497 3.61894692,10.5012119 3.79530997,10.6776131 Z M14.6661108,7.94754744 C14.6661108,7.7863476 14.5354284,7.65566516 14.3742285,7.65566516 L13.7357504,7.65566516 C13.5745505,7.65566516 13.4438681,7.7863476 13.4438681,7.94754744 L13.4438681,8.58602562 C13.4438681,8.58988326 13.4442882,8.59364542 13.444441,8.59746487 L13.444441,13.1389806 C13.444441,13.3077047 13.3076474,13.4444983 13.1388851,13.4444983 L1.52776046,13.4444983 C1.35899811,13.4444983 1.22220455,13.3077047 1.22220455,13.1389806 L1.22220455,1.52776046 C1.22220455,1.3590363 1.35899811,1.22224274 1.52776046,1.22224274 L7.94911342,1.22224274 C7.94936168,1.22224274 7.94960994,1.22228094 7.94987731,1.22228094 L8.58835548,1.22228094 C8.74955532,1.22228094 8.88023776,1.09159849 8.88023776,0.930398652 L8.88023776,0.291939576 C8.88023776,0.130739735 8.74955532,0 8.58835548,0 L8.25957732,0 L8.25957732,0 L0.305555911,0 C0.136793562,0 0,0.136793562 0,0.305517717 L0,14.3611851 C0,14.5299093 0.136793562,14.6667028 0.305555911,14.6667028 L14.3611278,14.6667028 C14.5298902,14.6667028 14.6667028,14.5299093 14.6667028,14.3611851 L14.6667028,8.27871276 L14.6661108,8.27871276 L14.6661108,7.94754744 Z" id="形状"></path>
                </g>
            </g>
        </g>
    </g>
</svg>