<?xml version="1.0" encoding="UTF-8"?>
<svg width="18px" height="18px" viewBox="0 0 18 18" version="1.1" xmlns="http://www.w3.org/2000/svg" xmlns:xlink="http://www.w3.org/1999/xlink">
    <!-- Generator: Sketch 60 (88103) - https://sketch.com -->
    <title>地址</title>
    <desc>Created with Sketch.</desc>
    <g id="页面-1" stroke="none" stroke-width="1" fill="none" fill-rule="evenodd">
        <g id="个人中心" transform="translate(-307.000000, -200.000000)">
            <g id="地址" transform="translate(307.000000, 200.000000)">
                <rect id="矩形" fill="#FFBEDE" x="1" y="1" width="11" height="16.4683799" rx="1"></rect>
                <path d="M11.2741912,16.1016649 L11.2741912,2.00981807 C11.2741912,1.71998943 11.1329265,1.56425916 10.8430978,1.56425916 L2.6311479,1.56425916 C2.34131926,1.56425916 2.10539155,1.80018688 2.10539155,2.09001552 L2.10539155,15.798245 L0.853814111,15.798245 L0.853814111,1.90638256 C0.853814111,1.03663755 1.56132075,0.329130903 2.43106577,0.329130903 L10.8430978,0.329130903 C11.7128428,0.329130903 12.4203495,1.03663755 12.4203495,1.90638256 L12.4203495,16.1016649 L11.2741912,16.1016649 Z M17.677855,16.1016649 L16.6263597,16.1016649 L16.6263597,5.5866345 C16.6263597,5.29680586 16.390432,5.06087815 16.1006034,5.06087815 L13.4718409,5.06087815 L13.4718409,4.00938284 L16.1006034,4.00938284 C16.9703484,4.00938284 17.677855,4.71688949 17.677855,5.5866345 L17.677855,16.1016649 L17.677855,16.1016649 Z M0.328046156,16.6274213 L17.677855,16.6274213 L17.677855,17.6789166 L0.328046156,17.6789166 L0.328046156,16.6274213 Z" id="形状" fill="#D4237A" fill-rule="nonzero"></path>
                <path d="M3.749931,4.15080412 L5.8018244,4.15080412 L5.8018244,6.20269752 L3.749931,6.20269752 L3.749931,4.15080412 Z M7.38019948,4.15080412 L9.43209288,4.15080412 L9.43209288,6.20269752 L7.38019948,6.20269752 L7.38019948,4.15080412 Z M12.9439673,7.18917953 L14.9958607,7.18917953 L14.9958607,9.24107293 L12.9439673,9.24107293 L12.9439673,7.18917953 Z M12.9439673,11.5691805 L14.9958607,11.5691805 L14.9958607,13.6210739 L12.9439673,13.6210739 L12.9439673,11.5691805 Z M3.749931,7.34701897 L5.8018244,7.34701897 L5.8018244,9.39891237 L3.749931,9.39891237 L3.749931,7.34701897 Z M7.38019948,7.34701897 L9.43209288,7.34701897 L9.43209288,9.39891237 L7.38019948,9.39891237 L7.38019948,7.34701897 Z M3.749931,10.5432338 L5.8018244,10.5432338 L5.8018244,12.5951272 L3.749931,12.5951272 L3.749931,10.5432338 Z M7.38019948,10.5432338 L9.43209288,10.5432338 L9.43209288,12.5951272 L7.38019948,12.5951272 L7.38019948,10.5432338 Z" id="形状" fill="#D4237A" fill-rule="nonzero"></path>
            </g>
        </g>
    </g>
</svg>