<?xml version="1.0" encoding="UTF-8"?>
<svg width="22px" height="22px" viewBox="0 0 22 22" version="1.1" xmlns="http://www.w3.org/2000/svg" xmlns:xlink="http://www.w3.org/1999/xlink">
    <!-- Generator: Sketch 60 (88103) - https://sketch.com -->
    <title>编组 3</title>
    <desc>Created with Sketch.</desc>
    <g id="页面-1" stroke="none" stroke-width="1" fill="none" fill-rule="evenodd">
        <g id="我的地址" transform="translate(-15.000000, -214.000000)" fill="#329FFF" fill-rule="nonzero">
            <g id="编组-3" transform="translate(0.000000, 204.000000)">
                <g id="编组-4" transform="translate(15.000000, 10.000000)">
                    <g id="学校" transform="translate(0.000000, 1.000000)">
                        <path d="M20.9687744,5.51216178 C20.4531488,5.22570311 12.2890768,1.11979556 12.2890768,1.11979556 C12.2890768,1.11979556 11.4297008,0.642364444 11.0000128,0.642364444 C10.5703248,0.642364444 9.7109488,1.11979556 9.7109488,1.11979556 C9.7109488,1.11979556 1.5468768,5.22570311 1.0312512,5.51216178 C0.5156256,5.79862044 1.0312512,6.08507911 1.0312512,6.08507911 C1.0312512,6.08507911 7.9921968,9.61806933 9.2812608,10.1909867 C10.312512,10.6684178 10.5703248,10.6684178 11.0000128,10.6684178 C11.4297008,10.6684178 11.6875136,10.6684178 12.7187648,10.1909867 C13.5781408,9.71355556 17.18752,7.89931733 19.33596,6.84896889 L19.33596,9.904528 L18.6484592,10.6684178 L19.5937728,11.7187662 L20.5390864,10.6684178 L19.8515856,9.904528 L19.8515856,6.65799644 C20.5390864,6.37153778 20.9687744,6.08507911 20.9687744,6.08507911 C20.9687744,6.08507911 21.4844,5.79862044 20.9687744,5.51216178 Z" id="路径"></path>
                        <path d="M11.0000128,12.3426016 C10.5416796,12.3426016 10.2666793,12.3426016 9.16667805,11.8333425 C8.52500992,11.5277866 6.32500091,10.4074157 4.30834622,9.38889524 L4.30834622,16.824097 C6.32501595,17.8426175 8.52502496,18.9629884 9.16667805,19.2685443 C10.2666793,19.7778034 10.5416796,19.7778034 11.0000128,19.7778034 C11.458346,19.7778034 11.7333463,19.7778034 12.8333476,19.2685443 C13.4750157,18.9629884 15.6750247,17.8426175 17.6916794,16.824097 L17.6916794,9.38889524 C15.6750096,10.4074157 13.4750006,11.5277866 12.8333476,11.8333425 C11.7333463,12.4444543 11.458346,12.3426016 11.0000128,12.3426016 Z" id="路径"></path>
                    </g>
                </g>
            </g>
        </g>
    </g>
</svg>