<?xml version="1.0" encoding="UTF-8"?>
<svg width="22px" height="20px" viewBox="0 0 22 20" version="1.1" xmlns="http://www.w3.org/2000/svg" xmlns:xlink="http://www.w3.org/1999/xlink">
    <!-- Generator: Sketch 60 (88103) - https://sketch.com -->
    <title>卡券</title>
    <desc>Created with Sketch.</desc>
    <g id="页面-1" stroke="none" stroke-width="1" fill="none" fill-rule="evenodd">
        <g id="个人中心" transform="translate(-42.000000, -199.000000)" fill-rule="nonzero">
            <g id="卡券" transform="translate(42.000000, 199.000000)">
                <polygon id="路径" fill="#80E0E0" points="1.692309 4.9230772 7.61538621 4.9230772 7.61538621 18.4615578 1.692309 18.4615578"></polygon>
                <path d="M20.3077209,0.692309 L5.0769356,0.692309 C4.14616479,0.692309 3.38462659,1.45384934 3.38462659,2.384618 L20.3077166,2.384618 L20.3077166,14.2307939 C21.2384874,14.2307939 22.0000256,13.4692536 22.0000256,12.5384849 L22.0000256,2.38463519 C22.0000256,1.45386438 21.2384853,0.692309 20.3077166,0.692309 L20.3077209,0.692309 Z" id="路径" fill="#009E9F"></path>
                <path d="M16.92309,4.0769356 L1.6923047,4.0769356 C0.761533894,4.0769356 -4.29688e-06,4.83847593 -4.29688e-06,5.7692446 L-4.29688e-06,9.91541153 L0.592303424,10.0846424 C1.26922745,10.3384892 1.6923047,11.0154132 1.6923047,11.6923373 C1.6923047,12.3692613 1.26922745,13.0461853 0.592303424,13.3000321 L-4.29688e-06,13.469263 L-4.29688e-06,17.6154299 C-4.29688e-06,18.5462008 0.761536042,19.3077389 1.6923047,19.3077389 L16.92309,19.3077389 C17.8538608,19.3077389 18.615399,18.5461986 18.615399,17.6154299 L18.615399,13.469263 L18.0230913,13.3000321 C17.3461673,13.0461853 16.92309,12.4538776 16.92309,11.6923373 C16.92309,11.0154132 17.3461673,10.3384892 18.0230913,10.0846424 L18.615399,9.91541153 L18.615399,5.7692446 C18.615399,4.83847379 17.8538587,4.0769356 16.92309,4.0769356 Z M16.92309,8.7307789 C15.907705,9.32308662 15.230781,10.4230879 15.230781,11.6923175 C15.230781,12.8769351 15.907705,14.0615527 16.92309,14.6538561 L16.92309,17.6153947 L7.61538191,17.6153947 L7.61538191,15.0769269 L5.92307291,15.0769269 L5.92307291,17.6153947 L1.69230041,17.6153947 L1.69230041,14.6538561 C2.70768538,14.0615484 3.38460941,12.9615471 3.38460941,11.6923175 C3.38460941,10.5076999 2.70768538,9.32308232 1.69230041,8.7307789 L1.69230041,5.7692403 L5.92307291,5.7692403 L5.92307291,8.3077081 L7.61538191,8.3077081 L7.61538191,5.7692403 L16.92309,5.7692403 L16.92309,8.7307789 Z" id="形状" fill="#009E9F"></path>
                <polygon id="路径" fill="#009E9F" points="5.9230772 10.0000128 7.61538621 10.0000128 7.61538621 13.3846222 5.9230772 13.3846222"></polygon>
            </g>
        </g>
    </g>
</svg>
