<?xml version="1.0" encoding="UTF-8"?>
<svg width="32px" height="32px" viewBox="0 0 32 32" version="1.1" xmlns="http://www.w3.org/2000/svg" xmlns:xlink="http://www.w3.org/1999/xlink">
    <!-- Generator: Sketch 60 (88103) - https://sketch.com -->
    <title>形状</title>
    <desc>Created with Sketch.</desc>
    <g id="页面-1" stroke="none" stroke-width="1" fill="none" fill-rule="evenodd">
        <g id="卡片弹窗" transform="translate(-171.000000, -458.000000)" fill="#FFFFFF" fill-rule="nonzero">
            <path d="M186.974511,489.949022 C178.150632,489.949022 171,482.798359 171,473.974511 C171,465.150632 178.150663,458 186.974511,458 C195.79839,458 202.949022,465.150663 202.949022,473.974511 C202.949022,482.79839 195.798359,489.949022 186.974511,489.949022 Z M186.974511,459.521105 C179.012352,459.521105 172.521105,466.013102 172.521105,473.97523 C172.521105,481.937389 179.013102,488.428636 186.974511,488.428636 C194.93667,488.428636 201.427917,481.936639 201.427917,473.97523 C201.427917,466.013071 194.93592,459.521824 186.974511,459.521824 L186.974511,459.521105 Z M188.141177,473.974511 L194.327484,467.788204 C194.632433,467.483256 194.632433,466.975977 194.327484,466.620809 L194.276538,466.569863 L194.276538,466.569863 C193.966899,466.266202 193.471184,466.266202 193.161547,466.569863 L186.974521,472.807864 L180.788214,466.621557 L180.788214,466.621557 C180.478399,466.316943 179.981581,466.316943 179.671766,466.621557 L179.62082,466.672503 C179.316599,466.975997 179.316599,467.483274 179.62082,467.838441 L185.807845,473.974523 L179.621539,480.16083 C179.31659,480.465779 179.31659,480.973058 179.621539,481.327496 L179.672485,481.378442 L179.672485,481.378442 C179.982123,481.682104 180.477839,481.682104 180.787476,481.378442 L186.974502,475.141193 L193.160809,481.327499 L193.160809,481.327499 C193.470624,481.632114 193.967441,481.632114 194.277257,481.327499 L194.328203,481.276553 C194.632424,480.97306 194.632424,480.465783 194.328203,480.110615 L188.141177,473.974533 L188.141177,473.974511 Z" id="形状"></path>
        </g>
    </g>
</svg>