<?xml version="1.0" encoding="UTF-8"?>
<svg width="17px" height="15px" viewBox="0 0 17 15" version="1.1" xmlns="http://www.w3.org/2000/svg" xmlns:xlink="http://www.w3.org/1999/xlink">
    <!-- Generator: Sketch 60 (88103) - https://sketch.com -->
    <title>评论</title>
    <desc>Created with Sketch.</desc>
    <g id="页面-1" stroke="none" stroke-width="1" fill="none" fill-rule="evenodd">
        <g id="个人中心" transform="translate(-15.000000, -351.000000)" fill-rule="nonzero">
            <g id="评论" transform="translate(15.000000, 351.000000)">
                <path d="M12.9169759,2.81859535 L3.34883966,2.81859535 L3.34883963,2.81859535 C2.95251533,2.81859535 2.63122941,3.16275778 2.63122941,3.58730474 C2.63122941,3.58730474 2.63122941,3.58730474 2.63122941,3.58730474 L2.63122941,8.45578892 L2.63122941,8.455789 C2.63122941,8.88033452 2.95251399,9.22449839 3.34883963,9.22449839 L6.21928319,9.22449839 L7.79323797,10.9105304 L7.79323796,10.9105304 C7.97930023,11.1114817 8.28220763,11.1128132 8.46980089,10.9135019 C8.47072934,10.9125155 8.471654,10.911525 8.47257486,10.9105304 L10.0465296,9.2244984 L12.9169732,9.2244984 L12.9169732,9.2244984 C13.3132975,9.22449842 13.6345834,8.88033598 13.6345834,8.45578902 L13.6345834,3.58730484 L13.6345834,3.58730484 C13.6345834,3.16275931 13.3132988,2.81859535 12.9169732,2.81859535 L12.9169759,2.81859535 Z" id="路径" fill="#FFC824"></path>
                <path d="M8.1329078,6.85175427 L8.13290778,6.85175427 C7.86869158,6.85175427 7.65450097,6.62231303 7.65450097,6.33928125 L7.65450097,5.57057186 L7.65450097,5.57057192 C7.65450097,5.28754157 7.86869024,5.05809899 8.13290778,5.05809899 C8.39712398,5.05809899 8.6113146,5.28754013 8.6113146,5.57057192 C8.6113146,5.57057193 8.6113146,5.57057194 8.6113146,5.57057195 L8.6113146,6.33928134 L8.6113146,6.33928134 C8.6113146,6.62231169 8.39712532,6.85175427 8.13290778,6.85175427 L8.1329078,6.85175427 Z M5.14286522,6.85175425 L5.14286519,6.85175425 C4.878649,6.85175425 4.66445838,6.62231303 4.66445838,6.33928125 L4.66445838,5.57057186 L4.66445838,5.57057193 C4.66445838,5.28754158 4.87864766,5.05809901 5.14286519,5.05809901 C5.40708139,5.05809901 5.62127201,5.28754015 5.62127201,5.57057193 C5.62127201,5.57057193 5.62127201,5.57057193 5.62127201,5.57057193 L5.62127201,6.33928132 L5.62127201,6.33928132 C5.62127201,6.62231167 5.40708273,6.85175425 5.14286519,6.85175425 L5.14286522,6.85175425 Z M11.1229504,6.85175427 L11.1229504,6.85175427 C10.8587342,6.85175427 10.6445436,6.62231303 10.6445436,6.33928125 L10.6445436,5.57057186 L10.6445436,5.57057192 C10.6445436,5.28754157 10.8587328,5.05809899 11.1229504,5.05809899 C11.3871666,5.05809899 11.6013572,5.28754013 11.6013572,5.57057192 C11.6013572,5.57057193 11.6013572,5.57057194 11.6013572,5.57057195 L11.6013572,6.33928134 L11.6013572,6.33928134 C11.6013572,6.62231169 11.3871679,6.85175427 11.1229504,6.85175427 L11.1229504,6.85175427 Z M4.84147674,1.02493724 L4.60227334,1.02493724 L4.60227332,1.02493724 C4.33805712,1.02493724 4.1238665,0.795496102 4.1238665,0.512464316 C4.1238665,0.229433966 4.33805578,-8.60893907e-06 4.60227332,-8.60893907e-06 L4.84147672,-8.60893907e-06 L4.8414767,-8.60893907e-06 C5.1056929,-8.60893907e-06 5.31988352,0.229432531 5.31988352,0.512464316 C5.31988352,0.795494667 5.10569424,1.02493724 4.8414767,1.02493724 L4.84147674,1.02493724 Z" id="形状" fill="#6B400D"></path>
                <path d="M8.1329078,14.6925894 L8.13290772,14.6925894 C7.75239155,14.6922305 7.38758305,14.5300181 7.11868549,14.2416129 L5.06632122,12.0431051 L1.91361646,12.0431051 L1.91361637,12.0431051 C0.85675024,12.0431051 -8.2027336e-06,11.1253377 -8.2027336e-06,9.9932163 C-8.2027336e-06,9.9932163 -8.2027336e-06,9.9932163 -8.2027336e-06,9.9932163 L-8.2027336e-06,2.0498917 L-8.2027336e-06,2.04989201 C-8.2027336e-06,0.917769173 0.856751579,1.94888174e-06 1.91361637,1.94888174e-06 L2.6312266,1.94888174e-06 L2.63122658,1.94888174e-06 C2.89544277,1.94888174e-06 3.10963339,0.229444319 3.10963339,0.512476104 C3.1096334,0.795506455 2.89544411,1.02494903 2.63122658,1.02494903 L1.91361769,1.02494903 L1.91361765,1.02494903 C1.38518391,1.02494905 0.956804023,1.48383274 0.956804023,2.04989488 C0.956804023,2.04989488 0.956804023,2.04989488 0.956804023,2.04989488 L0.956804023,9.99321948 L0.956804023,9.99321963 C0.956804103,10.5592818 1.38518391,11.018164 1.91361765,11.018164 L5.26245731,11.018164 L5.26245729,11.018164 C5.38961922,11.0173765 5.51184182,11.0708531 5.60212575,11.1667816 L7.79322971,13.5190307 L7.7932297,13.5190307 C7.97929198,13.719982 8.28219938,13.7213135 8.46979264,13.5220022 C8.47072108,13.5210158 8.47164575,13.5200253 8.4725666,13.5190307 L10.6636706,11.1667816 L10.6636705,11.1667816 C10.7539549,11.0708537 10.8761775,11.0173764 11.003339,11.0181641 L14.3521787,11.0181641 L14.3521786,11.0181641 C14.8806123,11.0181641 15.3089922,10.5592804 15.3089922,9.99321825 L15.3089922,2.04989365 L15.3089922,2.04989365 C15.3089922,1.48383151 14.8806123,1.0249478 14.3521786,1.0249478 L7.1760764,1.0249478 L7.17607638,1.0249478 C6.91186018,1.02494779 6.69766956,0.795506659 6.69766956,0.512474874 C6.69766958,0.229444523 6.91185884,1.94888174e-06 7.17607638,1.94888174e-06 L14.3521786,1.94888174e-06 L14.3521785,1.94888174e-06 C15.4090446,1.94888174e-06 16.2658031,0.917769377 16.2658031,2.04989078 L16.2658031,9.99321538 L16.2658031,9.99321538 C16.2658031,11.1253382 15.4090433,12.0431042 14.3521785,12.0431042 L11.1994737,12.0431042 L9.14710948,14.241612 L9.14710949,14.241612 C8.87821193,14.5300158 8.51340343,14.6922297 8.13288726,14.6925894 L8.1329078,14.6925894 Z" id="路径" fill="#6B400D"></path>
            </g>
        </g>
    </g>
</svg>