<?xml version="1.0" encoding="UTF-8"?>
<svg width="20px" height="20px" viewBox="0 0 20 20" version="1.1" xmlns="http://www.w3.org/2000/svg" xmlns:xlink="http://www.w3.org/1999/xlink">
    <!-- Generator: Sketch 60 (88103) - https://sketch.com -->
    <title>编辑</title>
    <desc>Created with Sketch.</desc>
    <g id="页面-1" stroke="none" stroke-width="1" fill="none" fill-rule="evenodd">
        <g id="个人中心" transform="translate(-215.000000, -199.000000)">
            <g id="编辑" transform="translate(215.000000, 199.000000)">
                <rect id="矩形备份-3" fill="#B3D8FF" transform="translate(10.052583, 7.212734) rotate(-45.000000) translate(-10.052583, -7.212734) " x="4.05258346" y="4.71273414" width="12" height="5"></rect>
                <path d="M17.4017397,17.297331 L0.870091635,17.297331 L0.870091609,17.297331 C0.389556588,17.297331 5.55148154e-06,17.686882 5.55148154e-06,18.167417 C5.55148154e-06,18.6479521 0.389556588,19.0375031 0.870091609,19.0375031 L18.2718313,19.0375031 L18.2718314,19.0375031 C18.5043584,19.0365378 18.7268238,18.942538 18.8895925,18.7764775 L18.8895925,18.7764774 C19.0503359,18.6144146 19.1409563,18.3956755 19.1419174,18.167417 L19.1419174,14.6870691 L19.1419174,14.687069 C19.1419174,14.206534 18.7523664,13.816983 18.2718314,13.816983 C18.2718314,13.816983 18.2718314,13.816983 18.2718314,13.816983 L10.4410438,13.816983 L10.4410438,13.816983 C9.96050877,13.816983 9.57095774,14.206534 9.57095774,14.687069 C9.57095776,15.1676041 9.96050877,15.5571551 10.4410438,15.5571551 L17.4017397,15.5571551 L17.4017397,17.297331 Z" id="路径" fill="#5685F6" fill-rule="nonzero"></path>
                <path d="M3.83589081,11.5865671 L3.83589087,11.586567 C3.60806373,11.8837955 3.50788449,12.2594681 3.55746378,12.6306714 L3.6531733,13.5007574 L3.6531733,13.5007575 C3.69684372,13.9122555 4.02429106,14.236064 4.43625205,14.2751355 L4.42755119,14.2751355 L5.2541336,14.3622173 L5.41074916,14.3622173 L5.41074916,14.3622173 C5.79783499,14.3661617 6.16821839,14.2047122 6.42875135,13.9183994 L15.5298641,4.8085859 L15.5298641,4.80858592 C15.8710443,4.47019258 15.8733031,3.91928761 15.5349092,3.57810743 C15.5332344,3.57641886 15.5315527,3.57473716 15.5298641,3.57306237 L14.3030426,2.34624078 L14.3030426,2.34624082 C13.9646493,2.00506064 13.4137443,2.0028018 13.0725641,2.34119568 C13.0708755,2.34287047 13.0691938,2.34455217 13.067519,2.34624075 L4.06211431,11.3516455 L4.06211429,11.3516455 C3.98332825,11.4175888 3.91053679,11.4903801 3.84459417,11.5691656 L3.83589081,11.5865671 Z M2.47855641,10.4902583 L2.6003685,10.3510444 L12.4497441,0.510369541 L12.4497441,0.510369525 C13.1289458,-0.16958884 14.2307632,-0.170200494 14.9107122,0.50900064 C14.9111688,0.509456692 14.9116251,0.509912997 14.9120812,0.510369557 L17.3657243,2.96401272 L17.3657244,2.96401278 C18.0456827,3.64321448 18.0462944,4.74503185 17.3670932,5.42498092 C17.3666371,5.42543747 17.3661808,5.42589377 17.3657243,5.42634982 L7.5250494,15.2757254 L7.5250494,15.2757254 C7.45366938,15.3441446 7.37811693,15.4080736 7.29882669,15.4671452 L7.29882669,15.4671452 C6.99118523,15.7556581 6.58923193,15.9226247 6.16771501,15.9369921 L3.74017403,15.9369921 L3.74017397,15.9369921 C2.77910207,15.9369921 2,15.15789 2,14.1968181 L2,14.1359121 L2.06090604,11.5952616 L2.06090598,11.5952655 C2.06701481,11.1894991 2.21474512,10.7986263 2.47854476,10.4902541 L2.47855641,10.4902583 Z" id="形状" fill="#5685F6" fill-rule="nonzero"></path>
                <polygon id="路径" fill="#5685F6" fill-rule="nonzero" points="3.47860037 9.81892303 4.70977231 8.58862115 8.44418903 12.3230379 7.21388715 13.5533397"></polygon>
            </g>
        </g>
    </g>
</svg>