<?xml version="1.0" encoding="UTF-8"?>
<svg width="16px" height="15px" viewBox="0 0 16 15" version="1.1" xmlns="http://www.w3.org/2000/svg" xmlns:xlink="http://www.w3.org/1999/xlink">
    <!-- Generator: Sketch 60 (88103) - https://sketch.com -->
    <title>代理备份</title>
    <desc>Created with Sketch.</desc>
    <g id="页面-1" stroke="none" stroke-width="1" fill="none" fill-rule="evenodd">
        <g id="团长信息" transform="translate(-207.000000, -384.000000)" fill="#3E3E3E" fill-rule="nonzero">
            <g id="编组-5" transform="translate(195.000000, 367.000000)">
                <g id="代理备份" transform="translate(12.000000, 16.000000)">
                    <g id="钻石" transform="translate(-0.000000, 0.887089)">
                        <path d="M13.961941,8.72928261 L14.252257,8.38986915 L13.2648804,7.27076533 L10.3677695,7.27076533 L9.36527238,8.39947519 L11.8117888,11.4285802 L12.2170214,10.9274651 L13.961941,8.72928261 L13.961941,8.72928261 Z M14.4642365,6.6499178 L15.5762691,7.91107735 C15.7447068,8.10216213 15.7464255,8.39697865 15.5814253,8.58988329 L14.9712684,9.30508633 L12.9964223,11.7910083 L12.1731401,12.811947 C11.9840774,13.0467083 11.6420457,13.0467083 11.452983,12.811947 L8.03438528,8.57896416 C7.87797885,8.38423967 7.8831351,8.09488271 8.04985405,7.9092575 L9.62079338,6.14035838 C9.71016848,6.04026635 9.83563738,5.98203099 9.96626253,5.98203099 C12.2112353,5.98324423 13.3423155,5.9856707 13.359503,5.98931041 L14.1948165,5.01022839 L11.7262646,2.21384873 L4.5373687,2.21384873 L2.10298565,5.01022839 L8.04985405,12.501587 L8.73117307,11.9146611 C8.90476702,11.7071977 9.42485565,11.7308558 9.62079338,11.9146611 C9.8167311,12.0984665 9.69641846,12.6809175 9.52282451,12.8883809 L8.35751066,14.2878495 C8.16672918,14.5171512 7.82813504,14.5135115 7.64079107,14.2823899 L0.416876416,5.33052288 C0.260469984,5.13579839 0.26562624,4.84644143 0.432345184,4.66081622 L3.7546928,0.921014072 C3.8440679,0.820922044 3.9695368,0.762686682 4.10016195,0.762686682 L11.9325148,0.762686682 C12.06314,0.762686682 12.1903276,0.820922044 12.2797027,0.922833928 L15.5762691,4.66263607 C15.7447068,4.85372085 15.7464255,5.14853737 15.5814253,5.34144201 L14.4642365,6.6499178 Z" id="形状"></path>
                    </g>
                </g>
            </g>
        </g>
    </g>
</svg>