<?xml version="1.0" encoding="UTF-8"?>
<svg width="138px" height="102px" viewBox="0 0 138 102" version="1.1" xmlns="http://www.w3.org/2000/svg" xmlns:xlink="http://www.w3.org/1999/xlink">
    <!-- Generator: Sketch 60 (88103) - https://sketch.com -->
    <title>编组</title>
    <desc>Created with Sketch.</desc>
    <g id="页面-1" stroke="none" stroke-width="1" fill="none" fill-rule="evenodd">
        <g id="提现" transform="translate(-203.000000, -83.000000)" fill-rule="nonzero">
            <g id="编组" transform="translate(203.000000, 82.571429)">
                <path d="M71,0.428571429 C82.3627327,0.428571429 92.8575562,4.14453282 101.33553,10.4275152 L131.100951,10.4285714 C134.911361,10.429244 138,13.9908898 138,18.3841699 C138,22.7774501 134.911361,26.3390958 131.100951,26.3397684 L131.100951,26.3397684 L115.412271,26.3394916 C117.984868,30.8836786 119.88019,35.8618264 120.961098,41.1367967 L127.926902,41.1371817 C131.737725,41.1371817 134.827008,44.6990245 134.827008,49.0927802 C134.827008,53.486536 131.737725,57.0483788 127.926902,57.0483788 L127.926902,57.0483788 L121.69388,57.0485205 C118.896286,82.5707287 97.2671666,102.428571 71,102.428571 C57.9308303,102.428571 46.0098268,97.5126877 36.9851974,89.4291282 L22.1482827,89.4281279 C20.5625427,89.4489256 19.0353964,88.7374904 17.90757,87.4520896 C16.7797437,86.1666889 16.1450836,84.4142806 16.1451908,82.5858501 L16.1451908,82.5858501 L16.1451908,80.5969504 C16.1156211,76.5773104 18.6913846,73.1637793 22.1482827,72.6413518 L22.1482827,72.6413518 L24.6071676,72.6410746 C22.3806697,67.779532 20.8958584,62.5074398 20.2975311,56.9695956 L6.89904933,56.9688228 C3.08863876,56.9681502 0,53.4065044 0,49.0132243 C0,44.6199441 3.08863876,41.0582984 6.89904933,41.0576258 L6.89904933,41.0576258 L21.0551455,41.0578468 C25.846254,17.8641076 46.3869832,0.428571429 71,0.428571429 Z" id="形状结合" fill="#EAF8FF"></path>
                <path d="M51,38.4285714 L62.2,23.7102098 C63.2499999,22.3410598 65.3499999,21.9987724 67.1,23.0256348 L72,26.7907971 L51,38.4285714 L51,38.4285714 Z" id="路径" fill="#30E9C8"></path>
                <path d="M52,38.4285714 L78.2363637,23.904665 C80.0090909,22.8913693 82.1363636,23.5668998 82.8454546,25.2557261 L91,38.4285714 L52,38.4285714 L52,38.4285714 Z" id="路径" fill="#7CFFE8"></path>
                <path d="M50.5135135,39.4285714 L95.4864865,39.4285714 C97.2432432,39.4285714 99,40.8427129 99,42.9639249 L99,70.893218 C99,72.6608947 97.5945946,74.4285714 95.4864865,74.4285714 L50.5135135,74.4285714 C48.7567568,74.4285714 47,73.01443 47,70.893218 L47,42.9639249 C47,41.1962482 48.4054054,39.4285714 50.5135135,39.4285714 Z" id="路径" fill="#21D4FF"></path>
                <path d="M53,68.8330658 L55,68.8330658 L55,72.4285714 L53,72.4285714 L53,68.8330658 Z M53,62.0016051 L55,62.0016051 L55,65.5971108 L53,65.5971108 L53,62.0016051 Z M53,54.8105939 L55,54.8105939 L55,58.4060995 L53,58.4060995 L53,54.8105939 Z M53,47.6195827 L55,47.6195827 L55,51.2150882 L53,51.2150882 L53,47.6195827 Z M53,40.4285714 L55,40.4285714 L55,44.0240771 L53,44.0240771 L53,40.4285714 Z" id="形状" fill="#A0FFEE"></path>
                <path d="M84.9814815,51.4285714 L98,51.4285714 L98,63.4285714 L84.9814815,63.4285714 C81.4629629,63.4285714 79,60.6857143 79,57.6 C79,54.5142857 81.4629629,51.4285714 84.9814815,51.4285714 Z" id="路径" fill="#00AC8D"></path>
                <path d="M85.5,53.4285714 C87.25,53.4285714 89,54.8285714 89,56.9285714 C89,58.6785714 87.6,60.4285714 85.5,60.4285714 C83.75,60.4285714 82,59.0285714 82,56.9285714 C82,54.8285714 83.4,53.4285714 85.5,53.4285714 Z" id="路径" fill="#7CFFE8"></path>
                <path d="M100,68.4285714 C105.04,68.4285714 109,70.6785714 109,72.9285714 C109,75.5535714 105.04,77.4285714 100,77.4285714 C94.96,77.4285714 91,75.1785714 91,72.9285714 C91,70.6785714 94.96,68.4285714 100,68.4285714 Z" id="路径" fill="#FFB400"></path>
                <path d="M100,68.4285714 C105.04,68.4285714 109,69.8285714 109,71.9285714 C109,73.6785714 105.04,75.4285714 100,75.4285714 C94.96,75.4285714 91,74.0285714 91,71.9285714 C91,70.1785715 94.96,68.4285714 100,68.4285714 Z" id="路径" fill="#FFD200"></path>
                <path d="M100,65.4285714 C105.04,65.4285714 109,67.5885714 109,69.7485715 C109,71.9085715 105.04,74.4285714 100,74.4285714 C94.96,74.4285714 91,72.2685714 91,70.1085715 C91,67.5885715 94.96,65.4285714 100,65.4285714 L100,65.4285714 Z" id="路径" fill="#FFB400"></path>
                <path d="M100,65.4285714 C105.04,65.4285714 109,66.8285714 109,68.9285714 C109,70.6785714 105.04,72.4285714 100,72.4285714 C94.96,72.4285714 91,71.0285714 91,68.9285714 C91,67.1785715 94.96,65.4285714 100,65.4285714 Z" id="路径" fill="#FFD200"></path>
                <path d="M100,62.4285714 C105.04,62.4285714 109,64.6785714 109,66.9285714 C109,69.5535714 105.04,71.4285714 100,71.4285714 C94.96,71.4285714 91,69.1785714 91,66.9285714 C91,64.3035715 94.96,62.4285714 100,62.4285714 Z" id="路径" fill="#FFB400"></path>
                <path d="M100,62.4285714 C105.04,62.4285714 109,63.8285714 109,65.9285714 C109,67.6785714 105.04,69.4285714 100,69.4285714 C94.96,69.4285714 91,68.0285714 91,65.9285714 C91,63.8285714 94.96,62.4285714 100,62.4285714 Z" id="路径" fill="#FFD200"></path>
                <path d="M36,71.9285714 C36,74.5535714 39.96,76.4285714 45,76.4285714 C50.04,76.4285714 54,74.1785714 54,71.9285714 C54,69.6785713 50.04,67.4285714 45,67.4285714 C39.96,67.4285714 36,69.3035714 36,71.9285714 Z" id="路径" fill="#FFB400"></path>
                <path d="M45,67.4285714 C50.04,67.4285714 54,68.8285714 54,70.9285714 C54,72.6785715 50.04,74.4285714 45,74.4285714 C39.96,74.4285714 36,73.0285714 36,70.9285714 C36,68.8285715 40.32,67.4285714 45,67.4285714 Z" id="路径" fill="#FFD200"></path>
                <path d="M49.7599995,68.4285714 C51.5359923,68.4285714 53,69.0952355 53,69.9285714 C53,70.7507902 51.5360091,71.4285714 49.7599995,71.4285714 C49.0880031,71.4285714 48.440003,71.3396808 47.912018,71.1618996 C47.6960179,71.0952355 47.6480085,70.9507902 47.7920029,70.8507902 C47.9359973,70.7507902 48.2479993,70.7285714 48.4639993,70.7952355 C48.8480069,70.9174542 49.3040032,70.9841261 49.7599995,70.9841261 C51.0080072,70.9841261 52.039998,70.5063449 52.039998,69.9285714 C52.039998,69.350798 51.0080072,68.8730167 49.7600164,68.8730167 C48.5565966,68.8730167 47.5539925,69.3172729 47.4839129,69.8670592 L47.480001,69.9285714 C47.480001,70.7507902 46.0160102,71.4285714 44.2400005,71.4285714 C42.4640077,71.4285714 41,70.7507902 41,69.9285714 C41,69.1063527 42.4640077,68.4285714 44.2400005,68.4285714 C44.8640044,68.4285714 45.4640119,68.5063449 45.991997,68.6618996 C46.2079971,68.7285714 46.2800027,68.8618996 46.1360083,68.9730167 C45.991997,69.0730167 45.7040082,69.1063449 45.4640119,69.0396808 C45.1040006,68.9285714 44.6720006,68.8730167 44.2400005,68.8730167 C42.9920097,68.8730167 41.9600189,69.3507902 41.9600189,69.9285714 C41.9600189,70.5063371 42.9920097,70.9841261 44.2400005,70.9841261 C45.4434202,70.9841261 46.4460087,70.5398627 46.5160872,69.9900759 L46.524,69.8542363 C46.6090132,69.0658901 48.0378247,68.4285714 49.7599995,68.4285714 Z" id="路径备份-2" fill="#FFFFFF" opacity="0.620372954"></path>
                <path d="M35.8348045,67.4788104 C40.0747736,65.0625872 44.3147428,64.7174124 45.7280658,66.7884609 C46.788058,68.8595094 44.6680735,71.6209074 40.7814351,74.0371306 C33.3614891,78.1792276 31.5948352,76.1081791 30.534843,74.0371306 C28.7681892,72.3112569 31.5948352,69.8950336 35.8348045,67.4788104 Z" id="路径" fill="#FFB400"></path>
                <path d="M35.7789565,66.868508 C39.9332658,64.3484557 44.0875751,63.6284408 44.77996,65.4284781 C45.8185373,67.2285154 43.0489979,70.4685827 39.2408809,72.9886349 C35.0865716,75.5086871 30.9322623,76.2287021 30.2398775,74.4286648 C29.2013002,72.9886349 31.6246473,69.3885602 35.7789565,66.868508 Z" id="路径" fill="#FFD200"></path>
                <path d="M42.6354956,67.7303062 C43.0450881,68.4438583 42.09685,69.6653809 40.5369137,70.4336782 C39.9466739,70.7243822 39.3332296,70.9275628 38.7809178,71.0016826 C38.5579877,71.0372701 38.4438631,70.9326838 38.5205233,70.7836084 C38.5971835,70.6345331 38.8601582,70.4802796 39.0830882,70.4446921 C39.4812604,70.3846374 39.9149922,70.2452349 40.3155109,70.047972 C41.4116832,69.508087 42.0801104,68.647014 41.7922896,68.1456006 C41.5044688,67.6441872 40.3600232,67.6759874 39.2638657,68.2158651 C38.2068568,68.7364614 37.5475403,69.5557276 37.7598656,70.0631689 L37.7870722,70.1182438 C38.1966647,70.8317959 37.2484266,72.0533186 35.6884903,72.8216159 C34.1285688,73.5899059 32.5050353,73.635028 32.0954428,72.9214759 C31.6858503,72.2079237 32.6341033,70.9863938 34.1940248,70.2181038 C34.7421109,69.9481613 35.3078635,69.7560942 35.8491031,69.6626854 C36.072037,69.6271047 36.2017003,69.7116623 36.1305782,69.8703856 C36.0539032,70.0194682 35.8175544,70.1729749 35.5735475,70.2189431 C35.2019863,70.2782582 34.7948695,70.4169279 34.4154275,70.60381 C33.3192701,71.1436877 32.6508389,72.004754 32.9386598,72.5061673 C33.2264806,73.0075807 34.3709301,72.9757873 35.4670875,72.4359096 C36.5240965,71.9153133 37.1833956,71.0960477 36.9710691,70.5886064 L36.9103501,70.4672966 C36.5923016,69.7463638 37.5297971,68.5751746 39.0424482,67.8301662 C40.6023697,67.0618762 42.220365,67.0071061 42.6354956,67.7303062 Z M103.776916,64.4285714 C105.543636,64.4285714 107,65.0838266 107,65.9029013 C107,66.7110491 105.543653,67.3772312 103.776916,67.3772312 C103.108428,67.3772312 102.463811,67.2898618 101.938582,67.115123 C101.72371,67.0495998 101.675951,66.9076264 101.819194,66.8093378 C101.962436,66.7110491 102.272809,66.6892106 102.487682,66.7547338 C102.869684,66.874861 103.3233,66.9403919 103.776916,66.9403919 C105.018407,66.9403919 106.04501,66.4707871 106.04501,65.9029013 C106.04501,65.3350156 105.018407,64.8654108 103.776932,64.8654108 C102.579796,64.8654108 101.582426,65.3020642 101.512712,65.8424418 L101.508821,65.9029013 C101.508821,66.7110491 100.052473,67.3772312 98.2857364,67.3772312 C96.519016,67.3772312 95.0626519,66.7110491 95.0626519,65.9029013 C95.0626519,65.0947535 96.519016,64.4285714 98.2857364,64.4285714 C98.9064823,64.4285714 99.5033573,64.5050139 100.028586,64.6579065 C100.243458,64.7234374 100.315088,64.8544838 100.171845,64.9636994 C100.028586,65.0619881 99.7421005,65.0947459 99.5033573,65.0292226 C99.1452256,64.9200147 98.715481,64.8654108 98.2857364,64.8654108 C97.0442613,64.8654108 96.0176585,65.3350079 96.0176585,65.9028936 C96.0176585,66.4707794 97.0442613,66.9403919 98.2857364,66.9403919 C99.482873,66.9403919 100.480227,66.5037313 100.54994,65.9633532 L100.557811,65.8298384 C100.64238,65.0549834 102.063732,64.4285714 103.776916,64.4285714 Z" id="路径-2" fill="#FFFFFF" opacity="0.930733817"></path>
            </g>
        </g>
    </g>
</svg>