<?xml version="1.0" encoding="UTF-8"?>
<svg width="178px" height="60px" viewBox="0 0 178 60" version="1.1" xmlns="http://www.w3.org/2000/svg" xmlns:xlink="http://www.w3.org/1999/xlink">
    <!-- Generator: Sketch 60 (88103) - https://sketch.com -->
    <title>编组 2</title>
    <desc>Created with Sketch.</desc>
    <g id="页面-1" stroke="none" stroke-width="1" fill="none" fill-rule="evenodd">
        <g id="营业额明细" transform="translate(-63.000000, -528.000000)" fill="#FFFFFF" fill-rule="nonzero">
            <g id="编组-2" transform="translate(62.070247, 526.818578)">
                <path d="M5.1875,28.3625 C5.8125,28.5708333 6.33333333,28.6 6.75,28.45 C7.16666667,28.3 7.48333333,27.9833333 7.7,27.5 C7.91666667,27.0166667 8.025,26.4 8.025,25.65 L8.025,25.65 L8.025,13.95 C8.025,13.6166667 7.925,13.3333333 7.725,13.1 C7.525,12.8666667 7.275,12.7333333 6.975,12.7 L6.975,12.7 L6.15,12.625 L8.75,6.125 C9,5.475 8.84166667,5.15 8.275,5.15 L8.275,5.15 L5.3,5.15 L2.775,11.35 C2.54166667,11.9833333 2.27083333,12.3791667 1.9625,12.5375 C1.65416667,12.6958333 1.33333333,12.7083333 1,12.575 C1.11666667,13.2416667 1.30416667,13.775 1.5625,14.175 C1.82083333,14.575 2.1125,14.8625 2.4375,15.0375 C2.7625,15.2125 3.10416667,15.2916667 3.4625,15.275 C3.82083333,15.2583333 4.16666667,15.1583333 4.5,14.975 L4.5,14.975 L4.5,25.075 C4.5,25.875 4.37083333,26.4125 4.1125,26.6875 C3.85416667,26.9625 3.5,27.1166667 3.05,27.15 C3.85,27.75 4.5625,28.1541667 5.1875,28.3625 Z M22.55,28.525 C23,28.5416667 23.4041667,28.425 23.7625,28.175 C24.1208333,27.925 24.4083333,27.5208333 24.625,26.9625 C24.8416667,26.4041667 24.9416667,25.65 24.925,24.7 C24.5916667,25.0333333 24.2416667,25.2291667 23.875,25.2875 C23.5083333,25.3458333 23.15,25.275 22.8,25.075 C21.6,24.375 20.5458333,23.15 19.6375,21.4 C18.7291667,19.65 18.0333333,17.3416667 17.55,14.475 L17.55,14.475 L22.25,14.475 C23.2833333,14.475 23.9791667,14.1666667 24.3375,13.55 C24.6958333,12.9333333 24.8333333,12.0583333 24.75,10.925 C24.4,11.2583333 24.0708333,11.4875 23.7625,11.6125 C23.4541667,11.7375 23.0666667,11.8 22.6,11.8 L22.6,11.8 L17.175,11.8 C17.075,10.8 16.9958333,9.75416667 16.9375,8.6625 C16.8791667,7.57083333 16.85,6.40833333 16.85,5.175 L16.85,5.175 L14.125,5.175 C13.8416667,5.175 13.6458333,5.2375 13.5375,5.3625 C13.4291667,5.4875 13.3666667,5.74166667 13.35,6.125 C13.3166667,8.10833333 13.3916667,10 13.575,11.8 L13.575,11.8 L11.3,11.8 C10.25,11.8 9.54583333,12.075 9.1875,12.625 C8.82916667,13.175 8.69166667,14.025 8.775,15.175 C9.125,14.8416667 9.45833333,14.6416667 9.775,14.575 C10.0916667,14.5083333 10.4833333,14.475 10.95,14.475 L10.95,14.475 L13.9,14.475 C14.1666667,16.2583333 14.5333333,17.9041667 15,19.4125 C15.4666667,20.9208333 16.0125,22.2625 16.6375,23.4375 C17.2625,24.6125 17.9625,25.6083333 18.7375,26.425 C19.5125,27.2416667 20.35,27.8416667 21.25,28.225 C21.6666667,28.4083333 22.1,28.5083333 22.55,28.525 Z M20.15,10.4 C20.5833333,10.7666667 21.0958333,10.8708333 21.6875,10.7125 C22.2791667,10.5541667 22.975,10.0416667 23.775,9.175 C23.5416667,9.125 23.3416667,9.04583333 23.175,8.9375 C23.0083333,8.82916667 22.8583333,8.70833333 22.725,8.575 C22.4416667,8.24166667 22.2333333,7.84583333 22.1,7.3875 C21.9666667,6.92916667 21.875,6.43333333 21.825,5.9 L21.825,5.9 L19.2,5.9 C18.9833333,5.9 18.8291667,5.99583333 18.7375,6.1875 C18.6458333,6.37916667 18.6166667,6.60833333 18.65,6.875 C18.7833333,7.725 18.9708333,8.45 19.2125,9.05 C19.4541667,9.65 19.7666667,10.1 20.15,10.4 Z M35.9785714,28.625 C36.1619048,28.4583333 36.3327381,28.3291667 36.4910714,28.2375 C36.6494048,28.1458333 36.8119048,28.0791667 36.9785714,28.0375 C37.1452381,27.9958333 37.3244048,27.9708333 37.5160714,27.9625 C37.7077381,27.9541667 37.9202381,27.95 38.1535714,27.95 L38.1535714,27.95 L48.6035714,27.95 C49.6535714,27.95 50.3577381,27.6416667 50.7160714,27.025 C51.0744048,26.4083333 51.2119048,25.5333333 51.1285714,24.4 C50.7785714,24.7333333 50.4452381,24.9625 50.1285714,25.0875 C49.8119048,25.2125 49.4202381,25.275 48.9535714,25.275 L48.9535714,25.275 L45.3285714,25.275 L45.3285714,22.975 L48.2285714,22.975 C49.2619048,22.975 49.9577381,22.6666667 50.3160714,22.05 C50.6744048,21.4333333 50.8119048,20.5583333 50.7285714,19.425 C50.3785714,19.775 50.0494048,20.0125 49.7410714,20.1375 C49.4327381,20.2625 49.0452381,20.325 48.5785714,20.325 L48.5785714,20.325 L45.3285714,20.325 L45.3285714,18.45 L48.5035714,18.45 C49.0702381,18.45 49.5577381,18.2333333 49.9660714,17.8 C50.3744048,17.3666667 50.5785714,16.8333333 50.5785714,16.2 L50.5785714,16.2 L50.5785714,8.15 C50.5785714,7.53333333 50.3785714,7.00416667 49.9785714,6.5625 C49.5785714,6.12083333 49.0869048,5.9 48.5035714,5.9 L48.5035714,5.9 L38.6285714,5.9 C38.3285714,5.9 38.0494048,5.95833333 37.7910714,6.075 C37.5327381,6.19166667 37.3077381,6.35416667 37.1160714,6.5625 C36.9244048,6.77083333 36.7744048,7.0125 36.6660714,7.2875 C36.5577381,7.5625 36.5035714,7.85 36.5035714,8.15 L36.5035714,8.15 L36.5035714,16.2 C36.5035714,16.5166667 36.5577381,16.8125 36.6660714,17.0875 C36.7744048,17.3625 36.9244048,17.6 37.1160714,17.8 C37.3077381,18 37.5327381,18.1583333 37.7910714,18.275 C38.0494048,18.3916667 38.3285714,18.45 38.6285714,18.45 L38.6285714,18.45 L41.7785714,18.45 L41.7785714,20.325 L38.8785714,20.325 C37.8285714,20.325 37.1285714,20.6 36.7785714,21.15 C36.4285714,21.7 36.2869048,22.5416667 36.3535714,23.675 C36.7202381,23.3416667 37.0619048,23.1416667 37.3785714,23.075 C37.6952381,23.0083333 38.0869048,22.975 38.5535714,22.975 L38.5535714,22.975 L41.7785714,22.975 L41.7785714,25.275 L38.5035714,25.275 C37.4535714,25.275 36.7494048,25.5541667 36.3910714,26.1125 C36.0327381,26.6708333 35.8952381,27.5083333 35.9785714,28.625 Z M27.7785714,27.325 C27.9785714,27.1416667 28.1869048,27.0291667 28.4035714,26.9875 C28.6202381,26.9458333 28.8535714,26.925 29.1035714,26.925 L29.1035714,26.925 L33.9535714,26.925 C34.8035714,26.925 35.3869048,26.65 35.7035714,26.1 C36.0202381,25.55 35.9952381,24.7416667 35.6285714,23.675 C35.4452381,23.9083333 35.2535714,24.0625 35.0535714,24.1375 C34.8535714,24.2125 34.6119048,24.25 34.3285714,24.25 L34.3285714,24.25 L33.4785714,24.25 L33.4785714,17.775 L33.8285714,17.775 C34.6619048,17.775 35.2410714,17.5 35.5660714,16.95 C35.8910714,16.4 35.8619048,15.6 35.4785714,14.55 C35.2952381,14.7666667 35.1035714,14.9166667 34.9035714,15 C34.7035714,15.0833333 34.4619048,15.125 34.1785714,15.125 L34.1785714,15.125 L33.4785714,15.125 L33.4785714,9.275 L33.9285714,9.275 C34.7619048,9.275 35.3410714,9 35.6660714,8.45 C35.9910714,7.9 35.9702381,7.1 35.6035714,6.05 C35.4202381,6.26666667 35.2244048,6.4125 35.0160714,6.4875 C34.8077381,6.5625 34.5619048,6.6 34.2785714,6.6 L34.2785714,6.6 L29.4785714,6.6 C28.6785714,6.6 28.1535714,6.86666667 27.9035714,7.4 C27.6535714,7.93333333 27.6202381,8.69166667 27.8035714,9.675 C28.0202381,9.49166667 28.2369048,9.37916667 28.4535714,9.3375 C28.6702381,9.29583333 28.8952381,9.275 29.1285714,9.275 L29.1285714,9.275 L30.0785714,9.275 L30.0785714,15.125 L29.6035714,15.125 C28.8035714,15.125 28.2744048,15.3875 28.0160714,15.9125 C27.7577381,16.4375 27.7285714,17.1916667 27.9285714,18.175 C28.1285714,17.9916667 28.3327381,17.8791667 28.5410714,17.8375 C28.7494048,17.7958333 28.9785714,17.775 29.2285714,17.775 L29.2285714,17.775 L30.0785714,17.775 L30.0785714,24.25 L29.4535714,24.25 C28.6535714,24.25 28.1244048,24.5166667 27.8660714,25.05 C27.6077381,25.5833333 27.5785714,26.3416667 27.7785714,27.325 Z M41.7785714,10.85 L40.0285714,10.85 L40.0285714,9.05 C40.0285714,8.91666667 40.0744048,8.8 40.1660714,8.7 C40.2577381,8.6 40.3702381,8.55 40.5035714,8.55 L40.5035714,8.55 L41.7785714,8.55 L41.7785714,10.85 Z M47.0785714,10.85 L45.3285714,10.85 L45.3285714,8.55 L46.6285714,8.55 C46.7452381,8.55 46.8494048,8.6 46.9410714,8.7 C47.0327381,8.8 47.0785714,8.91666667 47.0785714,9.05 L47.0785714,9.05 L47.0785714,10.85 Z M41.7785714,15.8 L40.5035714,15.8 C40.1869048,15.8 40.0285714,15.6333333 40.0285714,15.3 L40.0285714,15.3 L40.0285714,13.525 L41.7785714,13.525 L41.7785714,15.8 Z M46.6285714,15.8 L45.3285714,15.8 L45.3285714,13.525 L47.0785714,13.525 L47.0785714,15.3 C47.0785714,15.45 47.0369048,15.5708333 46.9535714,15.6625 C46.8702381,15.7541667 46.7619048,15.8 46.6285714,15.8 L46.6285714,15.8 Z M62.1446429,11.4875 C62.5363095,11.5958333 62.9696429,11.5291667 63.4446429,11.2875 C63.9196429,11.0458333 64.4238095,10.6 64.9571429,9.95 C64.3404762,9.98333333 63.8988095,9.61666667 63.6321429,8.85 L63.6321429,8.85 L64.2571429,8.85 C64.5904762,8.86666667 64.8988095,8.83333333 65.1821429,8.75 C65.4654762,8.66666667 65.7071429,8.5125 65.9071429,8.2875 C66.1071429,8.0625 66.2571429,7.74583333 66.3571429,7.3375 C66.4571429,6.92916667 66.4904762,6.40833333 66.4571429,5.775 C66.1738095,6.00833333 65.8904762,6.1625 65.6071429,6.2375 C65.3238095,6.3125 65.0238095,6.35 64.7071429,6.35 L64.7071429,6.35 L60.5321429,6.35 L60.8071429,5.85 C60.9738095,5.53333333 60.9696429,5.31666667 60.7946429,5.2 C60.6196429,5.08333333 60.3654762,5.025 60.0321429,5.025 L60.0321429,5.025 L57.7321429,5.025 L56.0821429,8.25 C55.9154762,8.55 55.7571429,8.79166667 55.6071429,8.975 C55.4571429,9.15833333 55.3071429,9.2875 55.1571429,9.3625 C55.0071429,9.4375 54.8529762,9.47083333 54.6946429,9.4625 C54.5363095,9.45416667 54.3738095,9.41666667 54.2071429,9.35 C54.4404762,10.0833333 54.7654762,10.6125 55.1821429,10.9375 C55.5988095,11.2625 56.0363095,11.4208333 56.4946429,11.4125 C56.9529762,11.4041667 57.4029762,11.2458333 57.8446429,10.9375 C58.2863095,10.6291667 58.6488095,10.1916667 58.9321429,9.625 L58.9321429,9.625 L59.3071429,8.85 L60.4321429,8.85 C60.5988095,9.6 60.8279762,10.2 61.1196429,10.65 C61.4113095,11.1 61.7529762,11.3791667 62.1446429,11.4875 Z M73.5821429,11.6125 C73.9821429,11.7375 74.4196429,11.6791667 74.8946429,11.4375 C75.3696429,11.1958333 75.8821429,10.7416667 76.4321429,10.075 C76.1321429,10.0916667 75.8613095,10.0041667 75.6196429,9.8125 C75.3779762,9.62083333 75.1904762,9.3 75.0571429,8.85 L75.0571429,8.85 L75.2321429,8.85 C75.5654762,8.86666667 75.8738095,8.83333333 76.1571429,8.75 C76.4404762,8.66666667 76.6821429,8.5125 76.8821429,8.2875 C77.0821429,8.0625 77.2321429,7.74583333 77.3321429,7.3375 C77.4321429,6.92916667 77.4654762,6.40833333 77.4321429,5.775 C77.1488095,6.00833333 76.8654762,6.1625 76.5821429,6.2375 C76.2988095,6.3125 75.9988095,6.35 75.6821429,6.35 L75.6821429,6.35 L71.6571429,6.35 L71.8821429,5.85 C72.0488095,5.53333333 72.0488095,5.31666667 71.8821429,5.2 C71.7154762,5.08333333 71.4654762,5.025 71.1321429,5.025 L71.1321429,5.025 L68.8321429,5.025 L67.3071429,8.05 C66.9738095,8.66666667 66.6654762,9.03333333 66.3821429,9.15 C66.0988095,9.26666667 65.7821429,9.25833333 65.4321429,9.125 C65.6654762,9.85833333 65.9904762,10.3958333 66.4071429,10.7375 C66.8238095,11.0791667 67.2654762,11.2583333 67.7321429,11.275 C68.1988095,11.2916667 68.6529762,11.15 69.0946429,10.85 C69.5363095,10.55 69.8904762,10.1166667 70.1571429,9.55 L70.1571429,9.55 L70.4821429,8.85 L71.8571429,8.85 C72.0238095,9.63333333 72.2529762,10.2583333 72.5446429,10.725 C72.8363095,11.1916667 73.1821429,11.4875 73.5821429,11.6125 Z M54.5071429,19.7 C54.7571429,19.4666667 55.0613095,19.3291667 55.4196429,19.2875 C55.7779762,19.2458333 56.1904762,19.225 56.6571429,19.225 L56.6571429,19.225 L74.7571429,19.225 C75.8071429,19.225 76.5113095,18.975 76.8696429,18.475 C77.2279762,17.975 77.3654762,17.1583333 77.2821429,16.025 C76.9321429,16.3583333 76.6029762,16.5625 76.2946429,16.6375 C75.9863095,16.7125 75.5988095,16.75 75.1321429,16.75 L75.1321429,16.75 L67.6571429,16.75 L67.6571429,15.575 L73.6071429,15.575 C74.6571429,15.575 75.3571429,15.3125 75.7071429,14.7875 C76.0571429,14.2625 76.1904762,13.4333333 76.1071429,12.3 C75.7571429,12.6333333 75.4238095,12.8375 75.1071429,12.9125 C74.7904762,12.9875 74.3988095,13.025 73.9321429,13.025 L73.9321429,13.025 L67.6571429,13.025 L67.6571429,12.7 C67.6571429,12.3666667 67.5571429,12.0833333 67.3571429,11.85 C67.1571429,11.6166667 66.9071429,11.4833333 66.6071429,11.45 L66.6071429,11.45 L64.1321429,11.2 L64.1321429,13.025 L58.1821429,13.025 C57.1488095,13.025 56.4529762,13.2583333 56.0946429,13.725 C55.7363095,14.1916667 55.5988095,14.9916667 55.6821429,16.125 C55.9821429,15.8416667 56.3029762,15.6791667 56.6446429,15.6375 C56.9863095,15.5958333 57.3904762,15.575 57.8571429,15.575 L57.8571429,15.575 L64.1321429,15.575 L64.1321429,16.75 L57.0321429,16.75 C56.4988095,16.75 56.0613095,16.8 55.7196429,16.9 C55.3779762,17 55.1113095,17.1625 54.9196429,17.3875 C54.7279762,17.6125 54.5988095,17.9125 54.5321429,18.2875 C54.4654762,18.6625 54.4571429,19.1333333 54.5071429,19.7 Z M71.6321429,28.5 C71.9488095,28.5 72.2446429,28.4333333 72.5196429,28.3 C72.7946429,28.1666667 73.0321429,27.9875 73.2321429,27.7625 C73.4321429,27.5375 73.5904762,27.275 73.7071429,26.975 C73.8238095,26.675 73.8821429,26.35 73.8821429,26 L73.8821429,26 L73.8821429,23.325 L74.8821429,23.325 C75.8654762,23.325 76.5238095,23.05 76.8571429,22.5 C77.1904762,21.95 77.3154762,21.15 77.2321429,20.1 C76.8988095,20.4166667 76.5863095,20.6333333 76.2946429,20.75 C76.0029762,20.8666667 75.6404762,20.925 75.2071429,20.925 L75.2071429,20.925 L73.8821429,20.925 C73.8821429,20.2916667 73.5654762,19.95 72.9321429,19.9 L72.9321429,19.9 L70.1821429,19.625 L70.1821429,20.925 L56.9071429,20.925 C55.9238095,20.925 55.2654762,21.1708333 54.9321429,21.6625 C54.5988095,22.1541667 54.4738095,22.925 54.5571429,23.975 C54.8738095,23.6583333 55.1821429,23.4708333 55.4821429,23.4125 C55.7821429,23.3541667 56.1488095,23.325 56.5821429,23.325 L56.5821429,23.325 L70.1821429,23.325 L70.1821429,25.125 C70.1821429,25.4083333 70.1029762,25.625 69.9446429,25.775 C69.7863095,25.925 69.5904762,26 69.3571429,26 L69.3571429,26 L67.7321429,26 C67.2821429,26 66.9113095,25.9375 66.6196429,25.8125 C66.3279762,25.6875 66.0654762,25.5333333 65.8321429,25.35 C65.8488095,26.35 66.0154762,27.125 66.3321429,27.675 C66.6488095,28.225 67.2488095,28.5 68.1321429,28.5 L68.1321429,28.5 L71.6321429,28.5 Z M60.5321429,28.0875 C61.1321429,28.2458333 61.7279762,28.1666667 62.3196429,27.85 C62.9113095,27.5333333 63.4654762,26.9 63.9821429,25.95 C63.7488095,25.95 63.4904762,25.9458333 63.2071429,25.9375 C62.9238095,25.9291667 62.6404762,25.875 62.3571429,25.775 C62.0738095,25.675 61.7946429,25.5041667 61.5196429,25.2625 C61.2446429,25.0208333 60.9988095,24.65 60.7821429,24.15 L60.7821429,24.15 L57.8821429,24.15 C57.6654762,24.15 57.5071429,24.225 57.4071429,24.375 C57.3071429,24.525 57.2988095,24.7 57.3821429,24.9 C57.7988095,25.7333333 58.2779762,26.4333333 58.8196429,27 C59.3613095,27.5666667 59.9321429,27.9291667 60.5321429,28.0875 Z M86.3857143,23.3 C87.3857143,23.3 88.0690476,23.0083333 88.4357143,22.425 C88.802381,21.8416667 88.9190476,20.975 88.7857143,19.825 C88.402381,20.2083333 88.052381,20.4458333 87.7357143,20.5375 C87.4190476,20.6291667 87.0440476,20.675 86.6107143,20.675 L86.6107143,20.675 L84.8107143,20.675 C84.6607143,20.675 84.5732143,20.5875 84.5482143,20.4125 C84.5232143,20.2375 84.552381,20.0833333 84.6357143,19.95 L84.6357143,19.95 L89.3857143,11.9 C89.5190476,11.6333333 89.5482143,11.4125 89.4732143,11.2375 C89.3982143,11.0625 89.2107143,10.9666667 88.9107143,10.95 L88.9107143,10.95 L86.2357143,10.95 L85.0107143,13.05 L84.5857143,13.05 C84.4190476,13.05 84.3232143,12.9791667 84.2982143,12.8375 C84.2732143,12.6958333 84.2940476,12.5416667 84.3607143,12.375 L84.3607143,12.375 L87.4357143,6.25 C87.5690476,5.98333333 87.602381,5.76666667 87.5357143,5.6 C87.4690476,5.43333333 87.2857143,5.35 86.9857143,5.35 L86.9857143,5.35 L84.2857143,5.35 L80.5107143,13.2 C80.2440476,13.8333333 80.227381,14.3708333 80.4607143,14.8125 C80.6940476,15.2541667 81.1440476,15.475 81.8107143,15.475 L81.8107143,15.475 L83.5607143,15.475 L80.7607143,20.25 C80.5607143,20.6333333 80.4607143,21.0041667 80.4607143,21.3625 C80.4607143,21.7208333 80.5440476,22.0458333 80.7107143,22.3375 C80.877381,22.6291667 81.1107143,22.8625 81.4107143,23.0375 C81.7107143,23.2125 82.0690476,23.3 82.4857143,23.3 L82.4857143,23.3 L86.3857143,23.3 Z M95.3107143,28.55 C95.6607143,28.5833333 96.0107143,28.5083333 96.3607143,28.325 C96.7940476,28.075 97.2107143,27.7833333 97.6107143,27.45 C98.0107143,27.1166667 98.3857143,26.7416667 98.7357143,26.325 C99.1357143,26.7583333 99.5357143,27.1458333 99.9357143,27.4875 C100.335714,27.8291667 100.727381,28.1 101.110714,28.3 C101.460714,28.4833333 101.798214,28.5583333 102.123214,28.525 C102.448214,28.4916667 102.752381,28.35 103.035714,28.1 C103.319048,27.85 103.564881,27.4791667 103.773214,26.9875 C103.981548,26.4958333 104.135714,25.875 104.235714,25.125 C103.902381,25.3583333 103.585714,25.4875 103.285714,25.5125 C102.985714,25.5375 102.685714,25.425 102.385714,25.175 C102.102381,24.9416667 101.819048,24.6791667 101.535714,24.3875 C101.252381,24.0958333 100.969048,23.7833333 100.685714,23.45 C101.285714,22.35 101.831548,21.1583333 102.323214,19.875 C102.814881,18.5916667 103.277381,17.275 103.710714,15.925 C103.827381,15.5583333 103.885714,15.2 103.885714,14.85 C103.885714,14.5 103.827381,14.1916667 103.710714,13.925 C103.594048,13.6583333 103.414881,13.4458333 103.173214,13.2875 C102.931548,13.1291667 102.627381,13.05 102.260714,13.05 L102.260714,13.05 L100.710714,13.05 C100.544048,13.05 100.444048,12.9875 100.410714,12.8625 C100.377381,12.7375 100.402381,12.5666667 100.485714,12.35 L100.485714,12.35 L101.910714,9.125 C102.060714,8.775 102.148214,8.42083333 102.173214,8.0625 C102.198214,7.70416667 102.156548,7.3875 102.048214,7.1125 C101.939881,6.8375 101.773214,6.6125 101.548214,6.4375 C101.323214,6.2625 101.035714,6.175 100.685714,6.175 L100.685714,6.175 L90.7607143,6.175 C90.0440476,6.175 89.5607143,6.45 89.3107143,7 C89.0607143,7.55 88.9607143,8.39166667 89.0107143,9.525 C89.2440476,9.19166667 89.477381,8.99166667 89.7107143,8.925 C89.9440476,8.85833333 90.2107143,8.825 90.5107143,8.825 L90.5107143,8.825 L91.2857143,8.825 C91.202381,10.125 91.1065476,11.4625 90.9982143,12.8375 C90.889881,14.2125 90.764881,15.5791667 90.6232143,16.9375 C90.4815476,18.2958333 90.3357143,19.6291667 90.1857143,20.9375 C90.0357143,22.2458333 89.877381,23.4916667 89.7107143,24.675 C89.5940476,25.425 89.452381,25.8875 89.2857143,26.0625 C89.1190476,26.2375 88.8690476,26.2583333 88.5357143,26.125 C88.852381,26.925 89.2315476,27.525 89.6732143,27.925 C90.114881,28.325 90.5482143,28.5291667 90.9732143,28.5375 C91.3982143,28.5458333 91.777381,28.3666667 92.1107143,28 C92.4440476,27.6333333 92.6690476,27.0916667 92.7857143,26.375 C92.9857143,25.125 93.1732143,23.8083333 93.3482143,22.425 C93.5232143,21.0416667 93.6857143,19.625 93.8357143,18.175 C94.2190476,19.125 94.6482143,20.0625 95.1232143,20.9875 C95.5982143,21.9125 96.102381,22.7916667 96.6357143,23.625 C96.3857143,23.9583333 96.127381,24.2625 95.8607143,24.5375 C95.5940476,24.8125 95.3190476,25.0333333 95.0357143,25.2 C94.702381,25.3666667 94.389881,25.4541667 94.0982143,25.4625 C93.8065476,25.4708333 93.502381,25.3666667 93.1857143,25.15 C93.252381,25.8666667 93.389881,26.4708333 93.5982143,26.9625 C93.8065476,27.4541667 94.0565476,27.8333333 94.3482143,28.1 C94.639881,28.3666667 94.9607143,28.5166667 95.3107143,28.55 Z M98.4857143,20.375 C97.9690476,19.525 97.502381,18.6541667 97.0857143,17.7625 C96.6690476,16.8708333 96.3190476,15.9916667 96.0357143,15.125 L96.0357143,15.125 L94.1357143,15.125 C94.2190476,14.025 94.302381,12.9458333 94.3857143,11.8875 C94.4690476,10.8291667 94.5440476,9.80833333 94.6107143,8.825 L94.6107143,8.825 L98.0857143,8.825 C98.1690476,8.825 98.227381,8.86666667 98.2607143,8.95 C98.2940476,9.03333333 98.2857143,9.14166667 98.2357143,9.275 L98.2357143,9.275 L96.8607143,12.6 C96.6607143,13.1166667 96.552381,13.5666667 96.5357143,13.95 C96.5190476,14.3333333 96.577381,14.6541667 96.7107143,14.9125 C96.8440476,15.1708333 97.0440476,15.3666667 97.3107143,15.5 C97.577381,15.6333333 97.8857143,15.7 98.2357143,15.7 L98.2357143,15.7 L99.8107143,15.7 C100.110714,15.7 100.202381,15.85 100.085714,16.15 C99.902381,16.6833333 99.6732143,17.325 99.3982143,18.075 C99.1232143,18.825 98.8190476,19.5916667 98.4857143,20.375 Z M80.4857143,28.4 C80.852381,28.0666667 81.189881,27.8666667 81.4982143,27.8 C81.8065476,27.7333333 82.1940476,27.7 82.6607143,27.7 L82.6607143,27.7 L86.0857143,27.6 C87.102381,27.6 87.7857143,27.2958333 88.1357143,26.6875 C88.4857143,26.0791667 88.6190476,25.2166667 88.5357143,24.1 C88.202381,24.4333333 87.877381,24.6583333 87.5607143,24.775 C87.2440476,24.8916667 86.8607143,24.95 86.4107143,24.95 L86.4107143,24.95 L83.2107143,25.05 C82.1607143,25.05 81.4232143,25.325 80.9982143,25.875 C80.5732143,26.425 80.402381,27.2666667 80.4857143,28.4 Z M108.076786,28.3875 C108.501786,28.5958333 108.876786,28.6666667 109.201786,28.6 C109.526786,28.5333333 109.805952,28.3208333 110.039286,27.9625 C110.272619,27.6041667 110.472619,27.075 110.639286,26.375 C111.105952,26.9583333 111.739286,27.4416667 112.539286,27.825 C113.339286,28.2083333 114.280952,28.4 115.364286,28.4 L115.364286,28.4 L128.114286,28.4 C129.180952,28.4 129.897619,28.0916667 130.264286,27.475 C130.630952,26.8583333 130.772619,25.9833333 130.689286,24.85 C130.305952,25.1833333 129.960119,25.4125 129.651786,25.5375 C129.343452,25.6625 128.947619,25.725 128.464286,25.725 L128.464286,25.725 L116.539286,25.725 C116.272619,25.725 115.980952,25.7 115.664286,25.65 L115.664286,25.65 L115.664286,22.525 L115.739286,22.525 C116.505952,22.525 117.064286,22.2708333 117.414286,21.7625 C117.764286,21.2541667 117.822619,20.45 117.589286,19.35 C117.389286,19.5666667 117.189286,19.7166667 116.989286,19.8 C116.789286,19.8833333 116.539286,19.925 116.239286,19.925 L116.239286,19.925 L115.664286,19.925 L115.664286,16.625 C116.580952,16.5583333 117.193452,16.2583333 117.501786,15.725 C117.810119,15.1916667 117.922619,14.3916667 117.839286,13.325 C117.472619,13.5583333 117.135119,13.7 116.826786,13.75 C116.518452,13.8 116.122619,13.825 115.639286,13.825 L115.639286,13.825 L114.264286,13.825 L114.264286,10.7 L114.614286,10.7 C115.664286,10.7 116.372619,10.4333333 116.739286,9.9 C117.105952,9.36666667 117.247619,8.525 117.164286,7.375 C116.797619,7.60833333 116.455952,7.75 116.139286,7.8 C115.822619,7.85 115.430952,7.875 114.964286,7.875 L114.964286,7.875 L114.264286,7.875 L114.264286,6.325 C114.264286,5.69166667 113.972619,5.35 113.389286,5.3 L113.389286,5.3 L110.689286,5.025 L110.689286,7.875 L110.339286,7.875 C109.272619,7.875 108.560119,8.1375 108.201786,8.6625 C107.843452,9.1875 107.705952,10.025 107.789286,11.175 C108.155952,10.9416667 108.493452,10.8041667 108.801786,10.7625 C109.110119,10.7208333 109.505952,10.7 109.989286,10.7 L109.989286,10.7 L110.689286,10.7 L110.689286,13.825 L109.639286,13.825 C108.589286,13.825 107.880952,14.0875 107.514286,14.6125 C107.147619,15.1375 107.005952,15.975 107.089286,17.125 C107.455952,16.8916667 107.797619,16.7541667 108.114286,16.7125 C108.430952,16.6708333 108.830952,16.65 109.314286,16.65 L109.314286,16.65 L111.939286,16.65 L111.939286,24.2 C111.605952,23.9166667 111.322619,23.6 111.089286,23.25 C111.139286,22.8166667 111.180952,22.35 111.214286,21.85 C111.247619,21.35 111.280952,20.8083333 111.314286,20.225 C111.330952,19.975 111.264286,19.775 111.114286,19.625 C110.964286,19.475 110.789286,19.4 110.589286,19.4 L110.589286,19.4 L108.439286,19.4 C108.372619,20.55 108.285119,21.6125 108.176786,22.5875 C108.068452,23.5625 107.939286,24.4041667 107.789286,25.1125 C107.639286,25.8208333 107.464286,26.375 107.264286,26.775 C107.064286,27.175 106.847619,27.3833333 106.614286,27.4 C107.164286,27.85 107.651786,28.1791667 108.076786,28.3875 Z M121.714286,25.075 C122.164286,25.075 122.539286,24.9875 122.839286,24.8125 C123.139286,24.6375 123.372619,24.4 123.539286,24.1 C123.705952,23.8 123.814286,23.4541667 123.864286,23.0625 C123.914286,22.6708333 123.922619,22.2583333 123.889286,21.825 C123.639286,22.175 123.410119,22.3875 123.201786,22.4625 C122.993452,22.5375 122.722619,22.575 122.389286,22.575 C122.255952,22.575 122.143452,22.5291667 122.051786,22.4375 C121.960119,22.3458333 121.914286,22.2333333 121.914286,22.1 L121.914286,22.1 L121.914286,11.825 C121.914286,11.6916667 121.968452,11.575 122.076786,11.475 C122.185119,11.375 122.305952,11.325 122.439286,11.325 L122.439286,11.325 L123.764286,11.325 C123.814286,12.025 123.872619,12.7291667 123.939286,13.4375 C124.005952,14.1458333 124.080952,14.85 124.164286,15.55 C123.580952,15.7333333 123.189286,16.0791667 122.989286,16.5875 C122.789286,17.0958333 122.722619,17.8 122.789286,18.7 C123.089286,18.5166667 123.372619,18.4 123.639286,18.35 C123.905952,18.3 124.214286,18.2666667 124.564286,18.25 C124.680952,18.9833333 124.822619,19.6791667 124.989286,20.3375 C125.155952,20.9958333 125.339286,21.6 125.539286,22.15 C125.739286,22.7 125.955952,23.1791667 126.189286,23.5875 C126.422619,23.9958333 126.680952,24.3083333 126.964286,24.525 C127.164286,24.6916667 127.472619,24.8083333 127.889286,24.875 C128.305952,24.9416667 128.722619,24.8875 129.139286,24.7125 C129.555952,24.5375 129.918452,24.2041667 130.226786,23.7125 C130.535119,23.2208333 130.689286,22.5 130.689286,21.55 C130.355952,21.8166667 130.043452,21.9375 129.751786,21.9125 C129.460119,21.8875 129.255952,21.7083333 129.139286,21.375 C128.972619,20.875 128.818452,20.3583333 128.676786,19.825 C128.535119,19.2916667 128.405952,18.7583333 128.289286,18.225 C129.155952,18.1416667 129.739286,17.8333333 130.039286,17.3 C130.339286,16.7666667 130.447619,15.975 130.364286,14.925 C130.014286,15.1583333 129.680952,15.3 129.364286,15.35 C129.047619,15.4 128.647619,15.425 128.164286,15.425 L128.164286,15.425 L127.789286,15.425 C127.689286,14.7583333 127.605952,14.0833333 127.539286,13.4 C127.472619,12.7166667 127.414286,12.025 127.364286,11.325 L127.364286,11.325 L128.114286,11.325 C129.180952,11.325 129.893452,11.0208333 130.251786,10.4125 C130.610119,9.80416667 130.747619,8.975 130.664286,7.925 C130.297619,8.25833333 129.960119,8.4625 129.651786,8.5375 C129.343452,8.6125 128.947619,8.65 128.464286,8.65 L128.464286,8.65 L127.239286,8.65 C127.205952,8.06666667 127.189286,7.48333333 127.189286,6.9 L127.189286,6.9 L127.189286,5.125 L124.289286,5.125 C124.022619,5.125 123.843452,5.19583333 123.751786,5.3375 C123.660119,5.47916667 123.614286,5.675 123.614286,5.925 L123.614286,5.925 L123.614286,7.1875 C123.614286,7.64583333 123.630952,8.13333333 123.664286,8.65 L123.664286,8.65 L120.614286,8.65 C119.964286,8.65 119.426786,8.8375 119.001786,9.2125 C118.576786,9.5875 118.364286,10.125 118.364286,10.825 L118.364286,10.825 L118.364286,22.9 C118.364286,23.5 118.568452,24.0125 118.976786,24.4375 C119.385119,24.8625 119.872619,25.075 120.439286,25.075 L120.439286,25.075 L121.714286,25.075 Z M128.801786,7.6375 C129.360119,7.8125 130.014286,7.48333333 130.764286,6.65 C130.530952,6.63333333 130.347619,6.52916667 130.214286,6.3375 C130.080952,6.14583333 129.989286,5.775 129.939286,5.225 L129.939286,5.225 L128.239286,5.225 C128.105952,5.225 128.001786,5.26666667 127.926786,5.35 C127.851786,5.43333333 127.830952,5.525 127.864286,5.625 C127.930952,6.79166667 128.243452,7.4625 128.801786,7.6375 Z M133.967857,10.125 C134.317857,9.79166667 134.647024,9.59166667 134.955357,9.525 C135.26369,9.45833333 135.65119,9.425 136.117857,9.425 L136.117857,9.425 L154.292857,9.425 C155.32619,9.425 156.022024,9.12083333 156.380357,8.5125 C156.73869,7.90416667 156.87619,7.03333333 156.792857,5.9 C156.442857,6.23333333 156.11369,6.4625 155.805357,6.5875 C155.497024,6.7125 155.109524,6.775 154.642857,6.775 L154.642857,6.775 L147.167857,6.775 L147.167857,6.425 C147.167857,6.09166667 147.06369,5.81666667 146.855357,5.6 C146.647024,5.38333333 146.384524,5.25833333 146.067857,5.225 L146.067857,5.225 L143.592857,5 L143.592857,6.775 L136.467857,6.775 C135.417857,6.775 134.717857,7.05 134.367857,7.6 C134.017857,8.15 133.884524,8.99166667 133.967857,10.125 Z M152.217857,16.65 C152.75119,16.65 153.197024,16.4583333 153.555357,16.075 C153.91369,15.6916667 154.092857,15.2333333 154.092857,14.7 L154.092857,14.7 L154.092857,12.225 C154.092857,11.6916667 153.91369,11.2333333 153.555357,10.85 C153.197024,10.4666667 152.75119,10.275 152.217857,10.275 L152.217857,10.275 L138.542857,10.275 C138.009524,10.275 137.56369,10.4666667 137.205357,10.85 C136.847024,11.2333333 136.667857,11.6916667 136.667857,12.225 L136.667857,12.225 L136.667857,14.7 C136.667857,15.2333333 136.847024,15.6916667 137.205357,16.075 C137.56369,16.4583333 138.009524,16.65 138.542857,16.65 L138.542857,16.65 L152.217857,16.65 Z M150.342857,14.125 L140.417857,14.125 C140.317857,14.125 140.234524,14.0875 140.167857,14.0125 C140.10119,13.9375 140.067857,13.85 140.067857,13.75 L140.067857,13.75 L140.067857,13.175 C140.067857,13.075 140.10119,12.9875 140.167857,12.9125 C140.234524,12.8375 140.317857,12.8 140.417857,12.8 L140.417857,12.8 L150.342857,12.8 C150.442857,12.8 150.52619,12.8375 150.592857,12.9125 C150.659524,12.9875 150.692857,13.075 150.692857,13.175 L150.692857,13.175 L150.692857,13.75 C150.692857,13.85 150.659524,13.9375 150.592857,14.0125 C150.52619,14.0875 150.442857,14.125 150.342857,14.125 L150.342857,14.125 Z M153.642857,28.45 C154.392857,28.45 155.01369,28.2208333 155.505357,27.7625 C155.997024,27.3041667 156.242857,26.5666667 156.242857,25.55 L156.242857,25.55 L156.242857,20.025 C156.242857,19.675 156.180357,19.35 156.055357,19.05 C155.930357,18.75 155.759524,18.4875 155.542857,18.2625 C155.32619,18.0375 155.07619,17.8625 154.792857,17.7375 C154.509524,17.6125 154.209524,17.55 153.892857,17.55 L153.892857,17.55 L136.942857,17.55 C136.309524,17.55 135.784524,17.7916667 135.367857,18.275 C134.95119,18.7583333 134.742857,19.3416667 134.742857,20.025 L134.742857,20.025 L134.742857,25.05 C134.742857,25.8333333 134.630357,26.3625 134.405357,26.6375 C134.180357,26.9125 133.834524,27.0666667 133.367857,27.1 C134.167857,27.7 134.87619,28.0958333 135.492857,28.2875 C136.109524,28.4791667 136.62619,28.5 137.042857,28.35 C137.459524,28.2 137.772024,27.8875 137.980357,27.4125 C138.18869,26.9375 138.292857,26.325 138.292857,25.575 L138.292857,25.575 L138.292857,20.95 C138.292857,20.65 138.367857,20.45 138.517857,20.35 C138.667857,20.25 138.859524,20.2 139.092857,20.2 L139.092857,20.2 L151.892857,20.2 C152.12619,20.2 152.31369,20.25 152.455357,20.35 C152.597024,20.45 152.667857,20.65 152.667857,20.95 L152.667857,20.95 L152.667857,25.125 C152.667857,25.325 152.60119,25.4958333 152.467857,25.6375 C152.334524,25.7791667 152.167857,25.85 151.967857,25.85 L151.967857,25.85 L151.817857,25.85 C151.684524,25.85 151.547024,25.8375 151.405357,25.8125 C151.26369,25.7875 151.117857,25.7166667 150.967857,25.6 L150.967857,25.6 L150.967857,22.975 C150.967857,22.4416667 150.784524,21.9916667 150.417857,21.625 C150.05119,21.2583333 149.60119,21.075 149.067857,21.075 L149.067857,21.075 L141.692857,21.075 C141.159524,21.075 140.709524,21.2583333 140.342857,21.625 C139.97619,21.9916667 139.792857,22.4416667 139.792857,22.975 L139.792857,22.975 L139.792857,25.725 C139.792857,26.2583333 139.97619,26.7083333 140.342857,27.075 C140.709524,27.4416667 141.159524,27.625 141.692857,27.625 L141.692857,27.625 L149.067857,27.625 C149.467857,27.625 149.830357,27.5083333 150.155357,27.275 C150.480357,27.0416667 150.709524,26.75 150.842857,26.4 C150.959524,27.1 151.20119,27.6166667 151.567857,27.95 C151.934524,28.2833333 152.492857,28.45 153.242857,28.45 L153.242857,28.45 L153.642857,28.45 Z M147.142857,25.075 L143.617857,25.075 C143.534524,25.075 143.455357,25.0416667 143.380357,24.975 C143.305357,24.9083333 143.267857,24.825 143.267857,24.725 L143.267857,24.725 L143.267857,23.975 C143.267857,23.875 143.305357,23.7916667 143.380357,23.725 C143.455357,23.6583333 143.534524,23.625 143.617857,23.625 L143.617857,23.625 L147.142857,23.625 C147.22619,23.625 147.305357,23.6583333 147.380357,23.725 C147.455357,23.7916667 147.492857,23.875 147.492857,23.975 L147.492857,23.975 L147.492857,24.725 C147.492857,24.825 147.455357,24.9083333 147.380357,24.975 C147.305357,25.0416667 147.22619,25.075 147.142857,25.075 L147.142857,25.075 Z" id="代理等级越高" transform="translate(78.908221, 16.812500) rotate(-3.000000) translate(-78.908221, -16.812500) "></path>
                <path d="M47.6007411,39.6359887 C48.0007411,39.9026553 48.5007411,39.9276553 49.1007411,39.7109887 C49.7007411,39.494322 50.4090744,39.0109887 51.2257411,38.2609887 C50.8590744,38.1609887 50.5674077,37.994322 50.3507411,37.7609887 C50.1340744,37.5276553 49.9632411,37.244322 49.8382411,36.9109887 C49.7132411,36.5776553 49.6299077,36.2151553 49.5882411,35.8234887 C49.5465744,35.431822 49.5257411,35.0359887 49.5257411,34.6359887 L49.5257411,34.6359887 L46.8507411,34.6359887 C46.6340744,34.6359887 46.4715744,34.731822 46.3632411,34.9234887 C46.2549077,35.1151553 46.2090744,35.344322 46.2257411,35.6109887 C46.2924077,36.6609887 46.4382411,37.5276553 46.6632411,38.2109887 C46.8882411,38.894322 47.2007411,39.369322 47.6007411,39.6359887 Z M58.2257411,54.1609887 C58.6424077,54.244322 59.1757411,54.144322 59.8257411,53.8609887 C60.2424077,53.6776553 60.6507411,53.444322 61.0507411,53.1609887 C61.4507411,52.8776553 61.8424077,52.544322 62.2257411,52.1609887 C62.6257411,52.5109887 63.0215744,52.819322 63.4132411,53.0859887 C63.8049077,53.3526553 64.1674077,53.5776553 64.5007411,53.7609887 C65.0674077,54.044322 65.5549077,54.181822 65.9632411,54.1734887 C66.3715744,54.1651553 66.7132411,54.031822 66.9882411,53.7734887 C67.2632411,53.5151553 67.4840744,53.1526553 67.6507411,52.6859887 C67.8174077,52.219322 67.9507411,51.669322 68.0507411,51.0359887 C67.7340744,51.1859887 67.3965744,51.244322 67.0382411,51.2109887 C66.6799077,51.1776553 66.3090744,51.069322 65.9257411,50.8859887 C65.6424077,50.769322 65.3632411,50.6151553 65.0882411,50.4234887 C64.8132411,50.231822 64.5340744,50.019322 64.2507411,49.7859887 C64.9007411,48.8859887 65.4924077,47.9526553 66.0257411,46.9859887 C66.5590744,46.019322 67.0090744,45.1276553 67.3757411,44.3109887 C67.5590744,43.8109887 67.6507411,43.344322 67.6507411,42.9109887 C67.6507411,42.4776553 67.5674077,42.1026553 67.4007411,41.7859887 C67.2340744,41.469322 66.9965744,41.219322 66.6882411,41.0359887 C66.3799077,40.8526553 66.0174077,40.7609887 65.6007411,40.7609887 L65.6007411,40.7609887 L56.8257411,40.7609887 L56.8257411,38.8109887 C56.8257411,38.644322 56.8840744,38.5026553 57.0007411,38.3859887 C57.1174077,38.269322 57.2590744,38.2109887 57.4257411,38.2109887 L57.4257411,38.2109887 L65.3507411,38.2109887 C66.4007411,38.2109887 67.1049077,37.9026553 67.4632411,37.2859887 C67.8215744,36.669322 67.9590744,35.794322 67.8757411,34.6609887 C67.5257411,34.994322 67.1924077,35.219322 66.8757411,35.3359887 C66.5590744,35.4526553 66.1674077,35.5109887 65.7007411,35.5109887 L65.7007411,35.5109887 L55.1757411,35.5109887 C54.6424077,35.5109887 54.1965744,35.7109887 53.8382411,36.1109887 C53.4799077,36.5109887 53.3007411,36.9859887 53.3007411,37.5359887 L53.3007411,37.5359887 L53.3007411,47.8359887 C53.3007411,48.8359887 53.2090744,49.6901553 53.0257411,50.3984887 C52.8424077,51.106822 52.5590744,51.6026553 52.1757411,51.8859887 C52.0424077,52.0026553 51.8965744,52.0776553 51.7382411,52.1109887 C51.5799077,52.144322 51.4257411,52.144322 51.2757411,52.1109887 C52.0090744,53.1276553 52.6674077,53.7484887 53.2507411,53.9734887 C53.8340744,54.1984887 54.3590744,54.1526553 54.8257411,53.8359887 C55.1757411,53.6026553 55.4757411,53.2609887 55.7257411,52.8109887 C55.9757411,52.3609887 56.1799077,51.8484887 56.3382411,51.2734887 C56.4965744,50.6984887 56.6174077,50.0859887 56.7007411,49.4359887 C56.7840744,48.7859887 56.8257411,48.144322 56.8257411,47.5109887 L56.8257411,47.5109887 L56.8257411,45.5859887 C57.2590744,46.3526553 57.7507411,47.1026553 58.3007411,47.8359887 C58.8507411,48.569322 59.4174077,49.2609887 60.0007411,49.9109887 C59.5007411,50.3776553 59.0174077,50.7109887 58.5507411,50.9109887 C57.8840744,51.1776553 57.2757411,51.144322 56.7257411,50.8109887 C56.7090744,51.3609887 56.7382411,51.8776553 56.8132411,52.3609887 C56.8882411,52.844322 57.0382411,53.244322 57.2632411,53.5609887 C57.4882411,53.8776553 57.8090744,54.0776553 58.2257411,54.1609887 Z M47.6437098,57.8004418 L47.8257411,57.7984887 C48.3090744,57.7734887 48.7549077,57.594322 49.1632411,57.2609887 C49.5715744,56.9276553 49.9090744,56.4609887 50.1757411,55.8609887 C50.5757411,56.394322 51.0299077,56.831822 51.5382411,57.1734887 C52.0465744,57.5151553 52.5590744,57.6859887 53.0757411,57.6859887 L53.0757411,57.6859887 L65.6257411,57.6859887 C66.6424077,57.6859887 67.3299077,57.3776553 67.6882411,56.7609887 C68.0465744,56.144322 68.1924077,55.2776553 68.1257411,54.1609887 C67.7757411,54.494322 67.4424077,54.719322 67.1257411,54.8359887 C66.8090744,54.9526553 66.4174077,55.0109887 65.9507411,55.0109887 L65.9507411,55.0109887 L53.6757411,55.0109887 C53.0590744,55.0109887 52.5132411,54.8151553 52.0382411,54.4234887 C51.5632411,54.031822 51.1424077,53.4609887 50.7757411,52.7109887 L50.7757411,52.7109887 L50.7757411,42.8359887 C50.7757411,42.2859887 50.5965744,41.8151553 50.2382411,41.4234887 C49.8799077,41.031822 49.4340744,40.8359887 48.9007411,40.8359887 L48.9007411,40.8359887 L46.6507411,40.8359887 C46.2174077,40.8359887 45.8757411,40.919322 45.6257411,41.0859887 C45.3757411,41.2526553 45.1882411,41.4859887 45.0632411,41.7859887 C44.9382411,42.0859887 44.8632411,42.4401553 44.8382411,42.8484887 C44.8132411,43.256822 44.8174077,43.7026553 44.8507411,44.1859887 C45.0840744,43.9026553 45.2882411,43.719322 45.4632411,43.6359887 C45.6382411,43.5526553 45.8590744,43.5109887 46.1257411,43.5109887 L46.1257411,43.5109887 L46.7757411,43.5109887 C47.0924077,43.5109887 47.2507411,43.6776553 47.2507411,44.0109887 L47.2507411,44.0109887 L47.2507411,52.4859887 C47.2507411,53.7359887 47.0174077,54.656822 46.5507411,55.2484887 C46.0840744,55.8401553 45.5007411,56.069322 44.8007411,55.9359887 C45.3007411,56.619322 45.8090744,57.106822 46.3257411,57.3984887 C46.8424077,57.6901553 47.3424077,57.8234887 47.8257411,57.7984887 L47.6437098,57.8004418 Z M61.9507411,47.4359887 C61.5674077,46.9526553 61.2257411,46.494322 60.9257411,46.0609887 C60.6257411,45.6276553 60.3840744,45.269322 60.2007411,44.9859887 C60.0840744,44.8026553 59.9507411,44.6776553 59.8007411,44.6109887 C59.6507411,44.544322 59.4590744,44.5109887 59.2257411,44.5109887 L59.2257411,44.5109887 L56.8257411,44.5109887 L56.8257411,43.5109887 L63.7007411,43.5109887 C63.7840744,43.5109887 63.8549077,43.556822 63.9132411,43.6484887 C63.9715744,43.7401553 63.9590744,43.8609887 63.8757411,44.0109887 C63.6924077,44.3776553 63.4382411,44.869322 63.1132411,45.4859887 C62.7882411,46.1026553 62.4007411,46.7526553 61.9507411,47.4359887 Z M91.8293125,57.7859887 C92.1626458,57.7859887 92.4959791,57.7109887 92.8293125,57.5609887 C93.1626458,57.4109887 93.4584791,57.1859887 93.7168125,56.8859887 C93.9751458,56.5859887 94.1876458,56.2234887 94.3543125,55.7984887 C94.5209791,55.3734887 94.6043125,54.8859887 94.6043125,54.3359887 L94.6043125,54.3359887 L94.6043125,35.8859887 C94.6043125,35.5526553 94.5001458,35.269322 94.2918125,35.0359887 C94.0834791,34.8026553 93.8376458,34.669322 93.5543125,34.6359887 L93.5543125,34.6359887 L90.9293125,34.3859887 L90.9293125,53.9859887 C90.9293125,54.269322 90.8376458,54.531822 90.6543125,54.7734887 C90.4709791,55.0151553 90.2043125,55.1359887 89.8543125,55.1359887 L89.8543125,55.1359887 L88.3543125,55.1359887 C87.8876458,55.1359887 87.5209791,55.0901553 87.2543125,54.9984887 C86.9876458,54.906822 86.6959791,54.7109887 86.3793125,54.4109887 C86.3793125,54.8776553 86.4293125,55.3151553 86.5293125,55.7234887 C86.6293125,56.131822 86.7834791,56.4901553 86.9918125,56.7984887 C87.2001458,57.106822 87.4626458,57.3484887 87.7793125,57.5234887 C88.0959791,57.6984887 88.4709791,57.7859887 88.9043125,57.7859887 L88.9043125,57.7859887 L91.8293125,57.7859887 Z M77.8293125,57.8859887 C78.1959791,57.8859887 78.5168125,57.7984887 78.7918125,57.6234887 C79.0668125,57.4484887 79.3001458,57.219322 79.4918125,56.9359887 C79.6834791,56.6526553 79.8293125,56.3276553 79.9293125,55.9609887 C80.0293125,55.594322 80.0793125,55.219322 80.0793125,54.8359887 L80.0793125,54.8359887 L80.0793125,42.8609887 L81.9293125,42.8609887 C83.0293125,42.8609887 83.7959791,42.644322 84.2293125,42.2109887 C84.6626458,41.7776553 84.8793125,41.1109887 84.8793125,40.2109887 L84.8793125,40.2109887 L84.8793125,39.8984887 C84.8793125,39.7901553 84.8709791,39.6776553 84.8543125,39.5609887 C84.6543125,39.694322 84.4709791,39.8026553 84.3043125,39.8859887 C84.1376458,39.969322 83.9709791,40.0359887 83.8043125,40.0859887 C83.6376458,40.1359887 83.4543125,40.169322 83.2543125,40.1859887 C83.0543125,40.2026553 82.8209791,40.2109887 82.5543125,40.2109887 L82.5543125,40.2109887 L80.0793125,40.2109887 L80.0793125,37.8109887 C80.8626458,37.7609887 81.5793125,37.706822 82.2293125,37.6484887 C82.8793125,37.5901553 83.3959791,37.5276553 83.7793125,37.4609887 C84.1793125,37.4109887 84.3793125,37.2109887 84.3793125,36.8609887 C84.3793125,36.8109887 84.3626458,36.719322 84.3293125,36.5859887 L84.3293125,36.5859887 L83.7293125,34.8859887 C83.2459791,34.9526553 82.5918125,35.019322 81.7668125,35.0859887 C80.9418125,35.1526553 80.0834791,35.2109887 79.1918125,35.2609887 C78.3001458,35.3109887 77.4626458,35.3526553 76.6793125,35.3859887 C75.8959791,35.419322 75.3126458,35.4359887 74.9293125,35.4359887 C74.6626458,35.4359887 74.4459791,35.419322 74.2793125,35.3859887 C74.1126458,35.3526553 73.9751458,35.306822 73.8668125,35.2484887 C73.7584791,35.1901553 73.6668125,35.119322 73.5918125,35.0359887 C73.5168125,34.9526553 73.4459791,34.8526553 73.3793125,34.7359887 C72.9959791,35.069322 72.7168125,35.3859887 72.5418125,35.6859887 C72.3668125,35.9859887 72.2793125,36.269322 72.2793125,36.5359887 C72.2793125,36.9359887 72.4459791,37.2609887 72.7793125,37.5109887 C73.1126458,37.7609887 73.5293125,37.9026553 74.0293125,37.9359887 C74.1459791,37.9359887 74.2751458,37.9401553 74.4168125,37.9484887 C74.5584791,37.956822 74.7126458,37.9609887 74.8793125,37.9609887 L74.8793125,37.9609887 L75.6168125,37.9609887 C75.8751458,37.9609887 76.1459791,37.9526553 76.4293125,37.9359887 L76.4293125,37.9359887 L76.4293125,40.2109887 L74.5043125,40.2109887 C73.4043125,40.2109887 72.6376458,40.419322 72.2043125,40.8359887 C71.7709791,41.2526553 71.5543125,41.894322 71.5543125,42.7609887 C71.5543125,42.894322 71.5584791,43.0151553 71.5668125,43.1234887 C71.5751458,43.231822 71.5876458,43.3526553 71.6043125,43.4859887 C71.8043125,43.3526553 71.9834791,43.244322 72.1418125,43.1609887 C72.3001458,43.0776553 72.4626458,43.0151553 72.6293125,42.9734887 C72.7959791,42.931822 72.9751458,42.9026553 73.1668125,42.8859887 C73.3584791,42.869322 73.5959791,42.8609887 73.8793125,42.8609887 L73.8793125,42.8609887 L76.4293125,42.8609887 L76.4293125,54.2609887 C76.4293125,54.744322 76.3918125,55.1234887 76.3168125,55.3984887 C76.2418125,55.6734887 76.1376458,55.8776553 76.0043125,56.0109887 C75.8709791,56.144322 75.7084791,56.231822 75.5168125,56.2734887 C75.3251458,56.3151553 75.1209791,56.344322 74.9043125,56.3609887 C75.4709791,56.9109887 75.9959791,57.3026553 76.4793125,57.5359887 C76.9626458,57.769322 77.4126458,57.8859887 77.8293125,57.8859887 Z M87.5293125,52.7109887 C88.0793125,52.7109887 88.5126458,52.5026553 88.8293125,52.0859887 C89.1459791,51.669322 89.3043125,51.0359887 89.3043125,50.1859887 L89.3043125,50.1859887 L89.3043125,38.0609887 C89.3043125,37.7276553 89.2001458,37.444322 88.9918125,37.2109887 C88.7834791,36.9776553 88.5293125,36.844322 88.2293125,36.8109887 L88.2293125,36.8109887 L85.9793125,36.5859887 L85.9793125,50.0859887 C85.9793125,50.719322 85.8876458,51.1151553 85.7043125,51.2734887 C85.5209791,51.431822 85.2126458,51.5109887 84.7793125,51.5109887 C85.3126458,51.9109887 85.8126458,52.2109887 86.2793125,52.4109887 C86.7459791,52.6109887 87.1626458,52.7109887 87.5293125,52.7109887 Z M73.1793125,55.9609887 C73.6293125,55.9609887 74.0001458,55.7109887 74.2918125,55.2109887 C74.5834791,54.7109887 74.8168125,53.9901553 74.9918125,53.0484887 C75.1668125,52.106822 75.3001458,50.956822 75.3918125,49.5984887 C75.4834791,48.2401553 75.5459791,46.7109887 75.5793125,45.0109887 C75.5793125,44.594322 75.3793125,44.3859887 74.9793125,44.3859887 L74.9793125,44.3859887 L72.7543125,44.3859887 C72.7376458,46.1359887 72.6751458,47.6526553 72.5668125,48.9359887 C72.4584791,50.219322 72.3293125,51.281822 72.1793125,52.1234887 C72.0293125,52.9651553 71.8668125,53.5984887 71.6918125,54.0234887 C71.5168125,54.4484887 71.3543125,54.669322 71.2043125,54.6859887 C71.5376458,55.119322 71.8751458,55.4401553 72.2168125,55.6484887 C72.5584791,55.856822 72.8793125,55.9609887 73.1793125,55.9609887 Z M83.2293125,55.9609887 C83.5293125,55.9609887 83.8543125,55.856822 84.2043125,55.6484887 C84.5543125,55.4401553 84.8959791,55.119322 85.2293125,54.6859887 C85.0793125,54.669322 84.9126458,54.4484887 84.7293125,54.0234887 C84.5459791,53.5984887 84.3793125,52.9651553 84.2293125,52.1234887 C84.0793125,51.281822 83.9543125,50.219322 83.8543125,48.9359887 C83.7543125,47.6526553 83.6959791,46.1359887 83.6793125,44.3859887 L83.6793125,44.3859887 L81.4793125,44.3859887 C81.0626458,44.3859887 80.8543125,44.594322 80.8543125,45.0109887 C80.9043125,46.7109887 80.9751458,48.2401553 81.0668125,49.5984887 C81.1584791,50.956822 81.2918125,52.106822 81.4668125,53.0484887 C81.6418125,53.9901553 81.8709791,54.7109887 82.1543125,55.2109887 C82.4376458,55.7109887 82.7959791,55.9609887 83.2293125,55.9609887 Z M113.357884,49.2359887 C114.007884,49.2359887 114.474551,48.9984887 114.757884,48.5234887 C115.041217,48.0484887 115.107884,47.5109887 114.957884,46.9109887 L114.957884,46.9109887 L114.357884,44.6609887 C114.291217,44.394322 114.116217,44.2609887 113.832884,44.2609887 L113.832884,44.2609887 L111.232884,44.2609887 L111.682884,45.9109887 C111.716217,46.0776553 111.703717,46.219322 111.645384,46.3359887 C111.587051,46.4526553 111.457884,46.5109887 111.257884,46.5109887 L111.257884,46.5109887 L108.782884,46.5109887 C108.699551,46.5109887 108.657884,46.4651553 108.657884,46.3734887 C108.657884,46.281822 108.674551,46.219322 108.707884,46.1859887 L108.707884,46.1859887 L113.557884,40.9609887 C113.741217,40.7776553 113.807884,40.6026553 113.757884,40.4359887 C113.707884,40.269322 113.574551,40.1859887 113.357884,40.1859887 L113.357884,40.1859887 L110.157884,40.1859887 L108.832884,41.6109887 L107.732884,41.6109887 C107.649551,41.6109887 107.612051,41.5651553 107.620384,41.4734887 C107.628717,41.381822 107.649551,41.319322 107.682884,41.2859887 L107.682884,41.2859887 L109.507884,38.7609887 L117.882884,38.7609887 C118.932884,38.7609887 119.637051,38.4651553 119.995384,37.8734887 C120.353717,37.281822 120.491217,36.444322 120.407884,35.3609887 C120.041217,35.6776553 119.703717,35.894322 119.395384,36.0109887 C119.087051,36.1276553 118.699551,36.1859887 118.232884,36.1859887 L118.232884,36.1859887 L111.107884,36.1859887 L111.107884,35.7609887 C111.107884,35.4276553 111.003717,35.156822 110.795384,34.9484887 C110.587051,34.7401553 110.332884,34.619322 110.032884,34.5859887 L110.032884,34.5859887 L107.557884,34.3359887 L107.557884,36.1859887 L100.782884,36.1859887 C99.7328839,36.1859887 99.0287172,36.4526553 98.6703839,36.9859887 C98.3120506,37.519322 98.1745506,38.319322 98.2578839,39.3859887 C98.6245506,39.069322 98.9620506,38.8859887 99.2703839,38.8359887 C99.5787172,38.7859887 99.9662172,38.7609887 100.432884,38.7609887 L100.432884,38.7609887 L105.682884,38.7609887 L103.607884,41.7859887 C103.457884,42.0026553 103.374551,42.231822 103.357884,42.4734887 C103.341217,42.7151553 103.374551,42.9401553 103.457884,43.1484887 C103.541217,43.356822 103.670384,43.5276553 103.845384,43.6609887 C104.020384,43.794322 104.232884,43.8609887 104.482884,43.8609887 L104.482884,43.8609887 L106.707884,43.8609887 L104.082884,46.7109887 C103.899551,46.9109887 103.778717,47.156822 103.720384,47.4484887 C103.662051,47.7401553 103.670384,48.0151553 103.745384,48.2734887 C103.820384,48.531822 103.957884,48.756822 104.157884,48.9484887 C104.357884,49.1401553 104.616217,49.2359887 104.932884,49.2359887 L104.932884,49.2359887 L113.357884,49.2359887 Z M116.970384,43.7359887 C117.478717,43.8859887 117.924551,43.8401553 118.307884,43.5984887 C118.691217,43.356822 119.007884,42.944322 119.257884,42.3609887 C119.507884,41.7776553 119.682884,41.0859887 119.782884,40.2859887 C119.832884,40.1026553 119.791217,39.919322 119.657884,39.7359887 C119.507884,39.5859887 119.357884,39.5109887 119.207884,39.5109887 L119.207884,39.5109887 L116.682884,39.5109887 C116.699551,39.8109887 116.678717,40.1276553 116.620384,40.4609887 C116.562051,40.794322 116.470384,41.1109887 116.345384,41.4109887 C116.220384,41.7109887 116.066217,41.969322 115.882884,42.1859887 C115.699551,42.4026553 115.499551,42.5276553 115.282884,42.5609887 C115.899551,43.194322 116.462051,43.5859887 116.970384,43.7359887 Z M100.157884,43.5984887 C100.541217,43.8401553 100.982884,43.8859887 101.482884,43.7359887 C101.982884,43.5859887 102.549551,43.194322 103.182884,42.5609887 C102.982884,42.5276553 102.791217,42.4026553 102.607884,42.1859887 C102.424551,41.969322 102.270384,41.7109887 102.145384,41.4109887 C102.020384,41.1109887 101.924551,40.794322 101.857884,40.4609887 C101.791217,40.1276553 101.774551,39.8109887 101.807884,39.5109887 L101.807884,39.5109887 L99.2578839,39.5109887 C99.1078839,39.5109887 98.9578839,39.5859887 98.8078839,39.7359887 C98.6912172,39.919322 98.6495506,40.1026553 98.6828839,40.2859887 C98.7828839,41.0859887 98.9578839,41.7776553 99.2078839,42.3609887 C99.4578839,42.944322 99.7745506,43.356822 100.157884,43.5984887 Z M117.257884,49.4984887 C117.707884,49.756822 118.220384,49.7901553 118.795384,49.5984887 C119.370384,49.406822 119.982884,49.0026553 120.632884,48.3859887 C120.082884,48.3526553 119.637051,47.994322 119.295384,47.3109887 C118.953717,46.6276553 118.724551,45.6776553 118.607884,44.4609887 L118.607884,44.4609887 L116.107884,44.4609887 C115.907884,44.4609887 115.757884,44.5359887 115.657884,44.6859887 C115.591217,44.769322 115.549551,44.8526553 115.532884,44.9359887 C115.516217,45.019322 115.507884,45.119322 115.507884,45.2359887 C115.607884,46.419322 115.812051,47.3609887 116.120384,48.0609887 C116.428717,48.7609887 116.807884,49.2401553 117.257884,49.4984887 Z M97.8328839,48.3859887 C99.1495506,49.619322 100.278717,49.9901553 101.220384,49.4984887 C102.162051,49.006822 102.741217,47.5859887 102.957884,45.2359887 C102.974551,45.0526553 102.932884,44.869322 102.832884,44.6859887 C102.699551,44.5359887 102.549551,44.4609887 102.382884,44.4609887 L102.382884,44.4609887 L99.8578839,44.4609887 C99.7578839,45.6776553 99.5370506,46.6276553 99.1953839,47.3109887 C98.8537172,47.994322 98.3995506,48.3526553 97.8328839,48.3859887 Z M108.270384,57.6609887 C108.895384,57.8609887 109.416217,57.8859887 109.832884,57.7359887 C110.249551,57.5859887 110.566217,57.269322 110.782884,56.7859887 C110.999551,56.3026553 111.107884,55.6859887 111.107884,54.9359887 L111.107884,54.9359887 L111.107884,54.1859887 L118.382884,54.1859887 C119.432884,54.1859887 120.137051,53.881822 120.495384,53.2734887 C120.853717,52.6651553 120.991217,51.794322 120.907884,50.6609887 C120.541217,50.994322 120.203717,51.2234887 119.895384,51.3484887 C119.587051,51.4734887 119.199551,51.5359887 118.732884,51.5359887 L118.732884,51.5359887 L111.107884,51.5359887 L111.107884,51.1609887 C111.107884,50.844322 111.007884,50.581822 110.807884,50.3734887 C110.607884,50.1651553 110.349551,50.044322 110.032884,50.0109887 L110.032884,50.0109887 L107.582884,49.7359887 L107.582884,51.5359887 L100.282884,51.5359887 C99.2328839,51.5359887 98.5287172,51.8109887 98.1703839,52.3609887 C97.8120506,52.9109887 97.6745506,53.7526553 97.7578839,54.8859887 C98.1245506,54.5526553 98.4620506,54.3526553 98.7703839,54.2859887 C99.0787172,54.219322 99.4662172,54.1859887 99.9328839,54.1859887 L99.9328839,54.1859887 L107.582884,54.1859887 L107.582884,54.3859887 C107.582884,55.1859887 107.453717,55.7234887 107.195384,55.9984887 C106.937051,56.2734887 106.582884,56.4276553 106.132884,56.4609887 C106.932884,57.0609887 107.645384,57.4609887 108.270384,57.6609887 Z M125.148955,57.6984887 C125.573955,57.906822 125.948955,57.9776553 126.273955,57.9109887 C126.598955,57.844322 126.878122,57.631822 127.111455,57.2734887 C127.344789,56.9151553 127.544789,56.3859887 127.711455,55.6859887 C128.178122,56.269322 128.811455,56.7526553 129.611455,57.1359887 C130.411455,57.519322 131.353122,57.7109887 132.436455,57.7109887 L132.436455,57.7109887 L145.186455,57.7109887 C146.253122,57.7109887 146.969789,57.4026553 147.336455,56.7859887 C147.703122,56.169322 147.844789,55.294322 147.761455,54.1609887 C147.378122,54.494322 147.032289,54.7234887 146.723955,54.8484887 C146.415622,54.9734887 146.019789,55.0359887 145.536455,55.0359887 L145.536455,55.0359887 L133.611455,55.0359887 C133.344789,55.0359887 133.053122,55.0109887 132.736455,54.9609887 L132.736455,54.9609887 L132.736455,51.8359887 L132.811455,51.8359887 C133.578122,51.8359887 134.136455,51.581822 134.486455,51.0734887 C134.836455,50.5651553 134.894789,49.7609887 134.661455,48.6609887 C134.461455,48.8776553 134.261455,49.0276553 134.061455,49.1109887 C133.861455,49.194322 133.611455,49.2359887 133.311455,49.2359887 L133.311455,49.2359887 L132.736455,49.2359887 L132.736455,45.9359887 C133.653122,45.869322 134.265622,45.569322 134.573955,45.0359887 C134.882289,44.5026553 134.994789,43.7026553 134.911455,42.6359887 C134.544789,42.869322 134.207289,43.0109887 133.898955,43.0609887 C133.590622,43.1109887 133.194789,43.1359887 132.711455,43.1359887 L132.711455,43.1359887 L131.336455,43.1359887 L131.336455,40.0109887 L131.686455,40.0109887 C132.736455,40.0109887 133.444789,39.744322 133.811455,39.2109887 C134.178122,38.6776553 134.319789,37.8359887 134.236455,36.6859887 C133.869789,36.919322 133.528122,37.0609887 133.211455,37.1109887 C132.894789,37.1609887 132.503122,37.1859887 132.036455,37.1859887 L132.036455,37.1859887 L131.336455,37.1859887 L131.336455,35.6359887 C131.336455,35.0026553 131.044789,34.6609887 130.461455,34.6109887 L130.461455,34.6109887 L127.761455,34.3359887 L127.761455,37.1859887 L127.411455,37.1859887 C126.344789,37.1859887 125.632289,37.4484887 125.273955,37.9734887 C124.915622,38.4984887 124.778122,39.3359887 124.861455,40.4859887 C125.228122,40.2526553 125.565622,40.1151553 125.873955,40.0734887 C126.182289,40.031822 126.578122,40.0109887 127.061455,40.0109887 L127.061455,40.0109887 L127.761455,40.0109887 L127.761455,43.1359887 L126.711455,43.1359887 C125.661455,43.1359887 124.953122,43.3984887 124.586455,43.9234887 C124.219789,44.4484887 124.078122,45.2859887 124.161455,46.4359887 C124.528122,46.2026553 124.869789,46.0651553 125.186455,46.0234887 C125.503122,45.981822 125.903122,45.9609887 126.386455,45.9609887 L126.386455,45.9609887 L129.011455,45.9609887 L129.011455,53.5109887 C128.678122,53.2276553 128.394789,52.9109887 128.161455,52.5609887 C128.211455,52.1276553 128.253122,51.6609887 128.286455,51.1609887 C128.319789,50.6609887 128.353122,50.119322 128.386455,49.5359887 C128.403122,49.2859887 128.336455,49.0859887 128.186455,48.9359887 C128.036455,48.7859887 127.861455,48.7109887 127.661455,48.7109887 L127.661455,48.7109887 L125.511455,48.7109887 C125.444789,49.8609887 125.357289,50.9234887 125.248955,51.8984887 C125.140622,52.8734887 125.011455,53.7151553 124.861455,54.4234887 C124.711455,55.131822 124.536455,55.6859887 124.336455,56.0859887 C124.136455,56.4859887 123.919789,56.694322 123.686455,56.7109887 C124.236455,57.1609887 124.723955,57.4901553 125.148955,57.6984887 Z M138.786455,54.3859887 C139.236455,54.3859887 139.611455,54.2984887 139.911455,54.1234887 C140.211455,53.9484887 140.444789,53.7109887 140.611455,53.4109887 C140.778122,53.1109887 140.886455,52.7651553 140.936455,52.3734887 C140.986455,51.981822 140.994789,51.569322 140.961455,51.1359887 C140.711455,51.4859887 140.482289,51.6984887 140.273955,51.7734887 C140.065622,51.8484887 139.794789,51.8859887 139.461455,51.8859887 C139.328122,51.8859887 139.215622,51.8401553 139.123955,51.7484887 C139.032289,51.656822 138.986455,51.544322 138.986455,51.4109887 L138.986455,51.4109887 L138.986455,41.1359887 C138.986455,41.0026553 139.040622,40.8859887 139.148955,40.7859887 C139.257289,40.6859887 139.378122,40.6359887 139.511455,40.6359887 L139.511455,40.6359887 L140.836455,40.6359887 C140.886455,41.3359887 140.944789,42.0401553 141.011455,42.7484887 C141.078122,43.456822 141.153122,44.1609887 141.236455,44.8609887 C140.653122,45.044322 140.261455,45.3901553 140.061455,45.8984887 C139.861455,46.406822 139.794789,47.1109887 139.861455,48.0109887 C140.161455,47.8276553 140.444789,47.7109887 140.711455,47.6609887 C140.978122,47.6109887 141.286455,47.5776553 141.636455,47.5609887 C141.753122,48.294322 141.894789,48.9901553 142.061455,49.6484887 C142.228122,50.306822 142.411455,50.9109887 142.611455,51.4609887 C142.811455,52.0109887 143.028122,52.4901553 143.261455,52.8984887 C143.494789,53.306822 143.753122,53.619322 144.036455,53.8359887 C144.236455,54.0026553 144.544789,54.119322 144.961455,54.1859887 C145.378122,54.2526553 145.794789,54.1984887 146.211455,54.0234887 C146.628122,53.8484887 146.990622,53.5151553 147.298955,53.0234887 C147.607289,52.531822 147.761455,51.8109887 147.761455,50.8609887 C147.428122,51.1276553 147.115622,51.2484887 146.823955,51.2234887 C146.532289,51.1984887 146.328122,51.019322 146.211455,50.6859887 C146.044789,50.1859887 145.890622,49.669322 145.748955,49.1359887 C145.607289,48.6026553 145.478122,48.069322 145.361455,47.5359887 C146.228122,47.4526553 146.811455,47.144322 147.111455,46.6109887 C147.411455,46.0776553 147.519789,45.2859887 147.436455,44.2359887 C147.086455,44.469322 146.753122,44.6109887 146.436455,44.6609887 C146.119789,44.7109887 145.719789,44.7359887 145.236455,44.7359887 L145.236455,44.7359887 L144.861455,44.7359887 C144.761455,44.069322 144.678122,43.394322 144.611455,42.7109887 C144.544789,42.0276553 144.486455,41.3359887 144.436455,40.6359887 L144.436455,40.6359887 L145.186455,40.6359887 C146.253122,40.6359887 146.965622,40.331822 147.323955,39.7234887 C147.682289,39.1151553 147.819789,38.2859887 147.736455,37.2359887 C147.369789,37.569322 147.032289,37.7734887 146.723955,37.8484887 C146.415622,37.9234887 146.019789,37.9609887 145.536455,37.9609887 L145.536455,37.9609887 L144.311455,37.9609887 C144.278122,37.3776553 144.261455,36.794322 144.261455,36.2109887 L144.261455,36.2109887 L144.261455,34.4359887 L141.361455,34.4359887 C141.094789,34.4359887 140.915622,34.506822 140.823955,34.6484887 C140.732289,34.7901553 140.686455,34.9859887 140.686455,35.2359887 L140.686455,35.2359887 L140.686455,36.4984887 C140.686455,36.956822 140.703122,37.444322 140.736455,37.9609887 L140.736455,37.9609887 L137.686455,37.9609887 C137.036455,37.9609887 136.498955,38.1484887 136.073955,38.5234887 C135.648955,38.8984887 135.436455,39.4359887 135.436455,40.1359887 L135.436455,40.1359887 L135.436455,52.2109887 C135.436455,52.8109887 135.640622,53.3234887 136.048955,53.7484887 C136.457289,54.1734887 136.944789,54.3859887 137.511455,54.3859887 L137.511455,54.3859887 L138.786455,54.3859887 Z M145.873955,36.9484887 C146.432289,37.1234887 147.086455,36.794322 147.836455,35.9609887 C147.603122,35.944322 147.419789,35.8401553 147.286455,35.6484887 C147.153122,35.456822 147.061455,35.0859887 147.011455,34.5359887 L147.011455,34.5359887 L145.311455,34.5359887 C145.178122,34.5359887 145.073955,34.5776553 144.998955,34.6609887 C144.923955,34.744322 144.903122,34.8359887 144.936455,34.9359887 C145.003122,36.1026553 145.315622,36.7734887 145.873955,36.9484887 Z M151.310027,36.3959887 C151.730027,35.9959887 152.125027,35.7559887 152.495027,35.6759887 C152.865027,35.5959887 153.330027,35.5559887 153.890027,35.5559887 L153.890027,35.5559887 L175.700027,35.5559887 C176.940027,35.5559887 177.775027,35.1909887 178.205027,34.4609887 C178.635027,33.7309887 178.800027,32.6859887 178.700027,31.3259887 C178.280027,31.7259887 177.885027,32.0009887 177.515027,32.1509887 C177.145027,32.3009887 176.680027,32.3759887 176.120027,32.3759887 L176.120027,32.3759887 L167.150027,32.3759887 L167.150027,31.9559887 C167.150027,31.5559887 167.025027,31.2259887 166.775027,30.9659887 C166.525027,30.7059887 166.210027,30.5559887 165.830027,30.5159887 L165.830027,30.5159887 L162.860027,30.2459887 L162.860027,32.3759887 L154.310027,32.3759887 C153.050027,32.3759887 152.210027,32.7059887 151.790027,33.3659887 C151.370027,34.0259887 151.210027,35.0359887 151.310027,36.3959887 Z M173.210027,44.2259887 C173.850027,44.2259887 174.385027,43.9959887 174.815027,43.5359887 C175.245027,43.0759887 175.460027,42.5259887 175.460027,41.8859887 L175.460027,41.8859887 L175.460027,38.9159887 C175.460027,38.2759887 175.245027,37.7259887 174.815027,37.2659887 C174.385027,36.8059887 173.850027,36.5759887 173.210027,36.5759887 L173.210027,36.5759887 L156.800027,36.5759887 C156.160027,36.5759887 155.625027,36.8059887 155.195027,37.2659887 C154.765027,37.7259887 154.550027,38.2759887 154.550027,38.9159887 L154.550027,38.9159887 L154.550027,41.8859887 C154.550027,42.5259887 154.765027,43.0759887 155.195027,43.5359887 C155.625027,43.9959887 156.160027,44.2259887 156.800027,44.2259887 L156.800027,44.2259887 L173.210027,44.2259887 Z M170.960027,41.1959887 L159.050027,41.1959887 C158.930027,41.1959887 158.830027,41.1509887 158.750027,41.0609887 C158.670027,40.9709887 158.630027,40.8659887 158.630027,40.7459887 L158.630027,40.7459887 L158.630027,40.0559887 C158.630027,39.9359887 158.670027,39.8309887 158.750027,39.7409887 C158.830027,39.6509887 158.930027,39.6059887 159.050027,39.6059887 L159.050027,39.6059887 L170.960027,39.6059887 C171.080027,39.6059887 171.180027,39.6509887 171.260027,39.7409887 C171.340027,39.8309887 171.380027,39.9359887 171.380027,40.0559887 L171.380027,40.0559887 L171.380027,40.7459887 C171.380027,40.8659887 171.340027,40.9709887 171.260027,41.0609887 C171.180027,41.1509887 171.080027,41.1959887 170.960027,41.1959887 L170.960027,41.1959887 Z M174.920027,58.3859887 C175.820027,58.3859887 176.565027,58.1109887 177.155027,57.5609887 C177.745027,57.0109887 178.040027,56.1259887 178.040027,54.9059887 L178.040027,54.9059887 L178.040027,48.2759887 C178.040027,47.8559887 177.965027,47.4659887 177.815027,47.1059887 C177.665027,46.7459887 177.460027,46.4309887 177.200027,46.1609887 C176.940027,45.8909887 176.640027,45.6809887 176.300027,45.5309887 C175.960027,45.3809887 175.600027,45.3059887 175.220027,45.3059887 L175.220027,45.3059887 L154.880027,45.3059887 C154.120027,45.3059887 153.490027,45.5959887 152.990027,46.1759887 C152.490027,46.7559887 152.240027,47.4559887 152.240027,48.2759887 L152.240027,48.2759887 L152.240027,54.3059887 C152.240027,55.2459887 152.105027,55.8809887 151.835027,56.2109887 C151.565027,56.5409887 151.150027,56.7259887 150.590027,56.7659887 C151.550027,57.4859887 152.400027,57.9609887 153.140027,58.1909887 C153.880027,58.4209887 154.500027,58.4459887 155.000027,58.2659887 C155.500027,58.0859887 155.875027,57.7109887 156.125027,57.1409887 C156.375027,56.5709887 156.500027,55.8359887 156.500027,54.9359887 L156.500027,54.9359887 L156.500027,49.3859887 C156.500027,49.0259887 156.590027,48.7859887 156.770027,48.6659887 C156.950027,48.5459887 157.180027,48.4859887 157.460027,48.4859887 L157.460027,48.4859887 L172.820027,48.4859887 C173.100027,48.4859887 173.325027,48.5459887 173.495027,48.6659887 C173.665027,48.7859887 173.750027,49.0259887 173.750027,49.3859887 L173.750027,49.3859887 L173.750027,54.3959887 C173.750027,54.6359887 173.670027,54.8409887 173.510027,55.0109887 C173.350027,55.1809887 173.150027,55.2659887 172.910027,55.2659887 L172.910027,55.2659887 L172.730027,55.2659887 C172.570027,55.2659887 172.405027,55.2509887 172.235027,55.2209887 C172.065027,55.1909887 171.890027,55.1059887 171.710027,54.9659887 L171.710027,54.9659887 L171.710027,51.8159887 C171.710027,51.1759887 171.490027,50.6359887 171.050027,50.1959887 C170.610027,49.7559887 170.070027,49.5359887 169.430027,49.5359887 L169.430027,49.5359887 L160.580027,49.5359887 C159.940027,49.5359887 159.400027,49.7559887 158.960027,50.1959887 C158.520027,50.6359887 158.300027,51.1759887 158.300027,51.8159887 L158.300027,51.8159887 L158.300027,55.1159887 C158.300027,55.7559887 158.520027,56.2959887 158.960027,56.7359887 C159.400027,57.1759887 159.940027,57.3959887 160.580027,57.3959887 L160.580027,57.3959887 L169.430027,57.3959887 C169.910027,57.3959887 170.345027,57.2559887 170.735027,56.9759887 C171.125027,56.6959887 171.400027,56.3459887 171.560027,55.9259887 C171.700027,56.7659887 171.990027,57.3859887 172.430027,57.7859887 C172.870027,58.1859887 173.540027,58.3859887 174.440027,58.3859887 L174.440027,58.3859887 L174.920027,58.3859887 Z M167.120027,54.3359887 L162.890027,54.3359887 C162.790027,54.3359887 162.695027,54.2959887 162.605027,54.2159887 C162.515027,54.1359887 162.470027,54.0359887 162.470027,53.9159887 L162.470027,53.9159887 L162.470027,53.0159887 C162.470027,52.8959887 162.515027,52.7959887 162.605027,52.7159887 C162.695027,52.6359887 162.790027,52.5959887 162.890027,52.5959887 L162.890027,52.5959887 L167.120027,52.5959887 C167.220027,52.5959887 167.315027,52.6359887 167.405027,52.7159887 C167.495027,52.7959887 167.540027,52.8959887 167.540027,53.0159887 L167.540027,53.0159887 L167.540027,53.9159887 C167.540027,54.0359887 167.495027,54.1359887 167.405027,54.2159887 C167.315027,54.2959887 167.220027,54.3359887 167.120027,54.3359887 L167.120027,54.3359887 Z" id="返利率越高" transform="translate(111.764535, 44.315989) rotate(-3.000000) translate(-111.764535, -44.315989) "></path>
            </g>
        </g>
    </g>
</svg>