<?xml version="1.0" encoding="UTF-8"?>
<svg width="18px" height="19px" viewBox="0 0 18 19" version="1.1" xmlns="http://www.w3.org/2000/svg" xmlns:xlink="http://www.w3.org/1999/xlink">
    <!-- Generator: Sketch 60 (88103) - https://sketch.com -->
    <title>钱包</title>
    <desc>Created with Sketch.</desc>
    <g id="页面-1" stroke="none" stroke-width="1" fill="none" fill-rule="evenodd">
        <g id="个人中心" transform="translate(-15.000000, -294.000000)" fill-rule="nonzero">
            <g id="钱包" transform="translate(15.000000, 294.000000)">
                <path d="M9.12247388,12.179704 C9.03653628,12.751189 8.7099734,13.1744317 8.32110576,13.1744317 L4.23262444,13.1744317 C3.77715516,13.1744317 3.40762348,12.5943529 3.40762348,11.8789224 L3.40762348,7.35215932 C3.40762348,6.6367288 3.77715516,6.05665 4.23262444,6.05665 L8.32110576,6.05665 C8.6992312,6.05665 9.01934876,6.45840828 9.11602856,7.00411204" id="路径" fill="#BAF4EA"></path>
                <path d="M12.3666183,14.3668159 L4.90938304,14.3668159 C3.74922544,14.3668159 2.80606028,13.4236508 2.80606028,12.2634932 L2.80606028,7.01485424 C2.80606028,5.85469664 3.74922544,4.91153148 4.90938304,4.91153148 L12.3666183,4.91153148 C13.307635,4.91153148 14.1412297,5.54532128 14.3947456,6.44981452 C14.4828317,6.76993208 14.2959174,7.10079184 13.9757998,7.19102632 C13.6556823,7.27911236 13.3248225,7.09219808 13.234588,6.77208052 C13.127166,6.38536132 12.770525,6.11465788 12.3666183,6.11465788 L4.90938304,6.11465788 C4.4130934,6.11465788 4.00918668,6.5185646 4.00918668,7.01485424 L4.00918668,12.2634932 C4.00918668,12.7597828 4.4130934,13.1636895 4.90938304,13.1636895 L12.3666183,13.1636895 C12.7855641,13.1636895 13.146502,12.8800954 13.2431818,12.4718918 C13.3205256,12.1496258 13.6449401,11.9498209 13.9672061,12.0250163 C14.2894721,12.1023602 14.489277,12.4267746 14.4140816,12.7490406 C14.3066596,13.2023614 14.0466984,13.6127135 13.6814636,13.9049013 C13.3097834,14.2035345 12.843572,14.3668159 12.3666183,14.3668159 L12.3666183,14.3668159 Z" id="路径" fill="#2D5B56"></path>
                <path d="M13.4666196,11.2000154 L11.7715004,11.2000154 C10.9142728,11.2000154 10.211733,10.4974755 10.211733,9.64024792 C10.211733,8.78302036 10.9142728,8.08048048 11.7715004,8.08048048 L13.4666196,8.08048048 C14.3238471,8.08048048 15.026387,8.78302036 15.026387,9.64024792 C15.026387,10.4974755 14.3238471,11.2000154 13.4666196,11.2000154 Z" id="路径" fill="#BAF4EA"></path>
                <path d="M13.4666196,11.8015786 L11.7715004,11.8015786 C10.5791162,11.8015786 9.61016976,10.8326321 9.61016976,9.64024792 C9.61016976,8.44786372 10.5791162,7.47891728 11.7715004,7.47891728 L13.4666196,7.47891728 C14.6590038,7.47891728 15.6279502,8.44786372 15.6279502,9.64024792 C15.6279502,10.8304837 14.6568553,11.8015786 13.4666196,11.8015786 Z M11.7715004,8.67989524 C11.2429842,8.67989524 10.8132962,9.10958324 10.8132962,9.63809948 C10.8132962,10.1666157 11.2429842,10.5963037 11.7715004,10.5963037 L13.4666196,10.5963037 C13.9951358,10.5963037 14.4248238,10.1666157 14.4248238,9.63809948 C14.4248238,9.10958324 13.9951358,8.67989524 13.4666196,8.67989524 L11.7715004,8.67989524 L11.7715004,8.67989524 Z" id="形状" fill="#2D5B56"></path>
                <path d="M11.9668545,9.69533755 L11.9668545,9.69533756 C11.9668545,9.71872845 11.9858165,9.7376905 12.0092074,9.7376905 C12.0325983,9.7376905 12.0515604,9.71872845 12.0515604,9.69533756 C12.0515604,9.69533755 12.0515604,9.69533754 12.0515604,9.69533753 L12.0515604,9.69533751 C12.0515604,9.67194662 12.0325983,9.65298457 12.0092074,9.65298457 C11.9858165,9.65298457 11.9668545,9.67194662 11.9668545,9.69533751 C11.9668545,9.69533752 11.9668545,9.69533753 11.9668545,9.69533754 L11.9668545,9.69533755 Z" id="路径" fill="#FFFFFF"></path>
                <path d="M11.9670084,10.2632955 C11.6297034,10.2632955 11.3568515,9.99044364 11.3568515,9.65313856 C11.3568515,9.31583348 11.6297034,9.0429816 11.9670084,9.0429816 C12.3043135,9.0429816 12.5771654,9.31583348 12.5771654,9.65313856 C12.5771654,9.99044364 12.3043135,10.2632955 11.9670084,10.2632955 Z M11.9670084,9.06016912 C11.6404456,9.06016912 11.374039,9.32657568 11.374039,9.65313856 C11.374039,9.97970144 11.6404456,10.246108 11.9670084,10.246108 C12.2935713,10.246108 12.5599779,9.97970144 12.5599779,9.65313856 C12.5599779,9.32657568 12.2935713,9.06016912 11.9670084,9.06016912 Z" id="形状" fill="#2D5B56"></path>
                <path d="M1.33437888,1.26992568 C1.59219168,1.26992568 1.80059036,1.47832436 1.80059036,1.73613716 C1.80059036,1.99394996 1.59219168,2.20234864 1.33437888,2.20234864 C1.07656608,2.20234864 0.8681674,1.99394996 0.8681674,1.73613716 C0.8681674,1.47832436 1.07656608,1.26992568 1.33437888,1.26992568 M1.33437888,0.41054968 C0.60390928,0.41054968 0.0087914,1.00566756 0.0087914,1.73613716 C0.0087914,2.46660676 0.60390928,3.06172464 1.33437888,3.06172464 C2.06484848,3.06172464 2.65996636,2.46660676 2.65996636,1.73613716 C2.65996636,1.00566756 2.06484848,0.41054968 1.33437888,0.41054968 Z M1.49551188,18.5562739 L1.491215,18.5562739 C1.31289448,18.5541255 1.17109744,18.4080316 1.17324588,18.229711 L1.19473028,16.7365452 C1.19687872,16.5603732 1.3408242,16.4185761 1.51699628,16.4185761 L1.52129316,16.4185761 C1.69961368,16.4207246 1.84141072,16.5668185 1.83926228,16.745139 L1.81777788,18.2383048 C1.81562944,18.4144769 1.67168396,18.5562739 1.49551188,18.5562739 Z" id="形状" fill="#2D5B56"></path>
                <path d="M2.57402876,17.497093 L2.57402876,17.5013899 C2.57188032,17.6797104 2.4257864,17.8215074 2.24746588,17.819359 L0.75430008,17.7978746 C0.578128,17.7957262 0.43633096,17.6517807 0.43633096,17.4756086 L0.43633096,17.4713117 C0.4384794,17.2929912 0.58457332,17.1511942 0.76289384,17.1533426 L2.25605964,17.174827 C2.43438016,17.1791239 2.57402876,17.3230694 2.57402876,17.497093 L2.57402876,17.497093 Z" id="路径" fill="#2D5B56"></path>
                <path d="M16.5732638,17.4541242 L16.5732638,17.4541241 C16.5732638,17.8207683 16.8704876,18.1179921 17.2371318,18.1179921 C17.6037759,18.1179921 17.9009997,17.8207683 17.9009997,17.4541241 C17.9009997,17.4541241 17.9009997,17.4541241 17.9009997,17.4541241 L17.9009997,17.4541241 C17.9009997,17.0874799 17.6037759,16.7902561 17.2371318,16.7902561 C16.8704876,16.7902561 16.5732638,17.0874799 16.5732638,17.4541241 C16.5732638,17.4541241 16.5732638,17.4541241 16.5732638,17.4541241 L16.5732638,17.4541242 Z" id="路径" fill="#2D5B56"></path>
                <path d="M0.16347908,11.1806794 L0.16347908,11.1806793 C0.16347908,11.4262954 0.362590054,11.6254064 0.60820616,11.6254064 C0.853822266,11.6254064 1.05293324,11.4262954 1.05293324,11.1806793 C1.05293324,11.1806793 1.05293324,11.1806793 1.05293324,11.1806793 L1.05293324,11.1806793 C1.05293324,10.9350632 0.853822051,10.7359522 0.60820616,10.7359522 C0.362590054,10.7359522 0.16347908,10.9350634 0.16347908,11.1806793 L0.16347908,11.1806794 Z" id="路径" fill="#2D5B56"></path>
                <path d="M16.5510096,0.4814482 L16.5510096,1.14316772 M16.5088106,1.35801172 C16.3906464,1.35801172 16.2939666,1.26133192 16.2939666,1.14316772 L16.2939666,0.4814482 C16.2939666,0.363284 16.3906464,0.2666042 16.5088106,0.2666042 C16.6269748,0.2666042 16.7236546,0.363284 16.7236546,0.4814482 L16.7236546,1.14316772 C16.7236546,1.26133192 16.6269748,1.35801172 16.5088106,1.35801172 Z M16.5510096,2.25605964 L16.5510096,2.91777916 M16.5088106,3.13262316 C16.3906464,3.13262316 16.2939666,3.03594336 16.2939666,2.91777916 L16.2939666,2.25605964 C16.2939666,2.13789544 16.3906464,2.04121564 16.5088106,2.04121564 C16.6269748,2.04121564 16.7236546,2.13789544 16.7236546,2.25605964 L16.7236546,2.91777916 C16.7236546,3.03594336 16.6269748,3.13262316 16.5088106,3.13262316 Z M15.2906451,1.74181266 L15.9523646,1.74181266 M15.9523646,1.91445768 L15.2906451,1.91445768 C15.1724809,1.91445768 15.0758011,1.81777788 15.0758011,1.69961368 C15.0758011,1.58144948 15.1724809,1.48476968 15.2906451,1.48476968 L15.9523646,1.48476968 C16.0705288,1.48476968 16.1672086,1.58144948 16.1672086,1.69961368 C16.1672086,1.81777788 16.0705288,1.91445768 15.9523646,1.91445768 Z M17.0652566,1.74181266 L17.7269761,1.74181266 M17.7269761,1.91445768 L17.0652566,1.91445768 C16.9470924,1.91445768 16.8504126,1.81777788 16.8504126,1.69961368 C16.8504126,1.58144948 16.9470924,1.48476968 17.0652566,1.48476968 L17.7269761,1.48476968 C17.8451403,1.48476968 17.9418201,1.58144948 17.9418201,1.69961368 C17.9418201,1.81777788 17.8451403,1.91445768 17.7269761,1.91445768 Z" id="形状" fill="#2D5B56"></path>
                <path d="M15.6861495,2.68460668 L16.2390202,2.13140469 M15.6861495,2.93836906 C15.6202108,2.93836906 15.5568082,2.91299282 15.5060861,2.86477797 C15.407178,2.76581064 15.407178,2.60594034 15.5060861,2.50697301 L16.0589568,1.95377103 C16.1578649,1.8548037 16.3176395,1.8548037 16.4165475,1.95377103 C16.5154556,2.05273835 16.5154556,2.21260865 16.4165475,2.31157598 L15.8636768,2.86477797 C15.8180269,2.91299282 15.7520882,2.93836906 15.6861495,2.93836906 Z" id="形状" fill="#2D5B56"></path>
                <path d="M16.9408385,1.42991772 L17.4937092,0.876715732 M16.9408385,1.6836801 C16.8748998,1.6836801 16.8114971,1.65830386 16.7607751,1.61008901 C16.661867,1.51112168 16.661867,1.35125138 16.7607751,1.25228405 L17.3136458,0.699082066 C17.4125539,0.600114738 17.5723284,0.600114738 17.6712365,0.699082066 C17.7701446,0.798049394 17.7701446,0.957919693 17.6712365,1.05688702 L17.1209019,1.61008901 C17.0701798,1.65830386 17.0067772,1.6836801 16.9408385,1.6836801 L16.9408385,1.6836801 Z" id="形状" fill="#2D5B56"></path>
                <path d="M17.4937092,2.68460668 L16.9408385,2.13140469 M17.4937092,2.93836906 C17.4277705,2.93836906 17.3643679,2.91299282 17.3136458,2.86477797 L16.7607751,2.31157598 C16.661867,2.21260865 16.661867,2.05273835 16.7607751,1.95377103 C16.8596831,1.8548037 17.0194577,1.8548037 17.1183658,1.95377103 L17.6712365,2.50697301 C17.7701446,2.60594034 17.7701446,2.76581064 17.6712365,2.86477797 C17.6230505,2.91299282 17.5571118,2.93836906 17.4937092,2.93836906 Z" id="形状" fill="#2D5B56"></path>
                <path d="M16.2390202,1.42991772 L15.6861495,0.876715732 M16.2390202,1.6836801 C16.1730815,1.6836801 16.1096789,1.65830386 16.0589568,1.61008901 L15.5060861,1.05688702 C15.407178,0.957919693 15.407178,0.798049394 15.5060861,0.699082066 C15.6049942,0.600114738 15.7647687,0.600114738 15.8636768,0.699082066 L16.4165475,1.25228405 C16.5154556,1.35125138 16.5154556,1.51112168 16.4165475,1.61008901 C16.3683615,1.65830386 16.3049589,1.6836801 16.2390202,1.6836801 Z" id="形状" fill="#2D5B56"></path>
            </g>
        </g>
    </g>
</svg>