<?xml version="1.0" encoding="UTF-8"?>
<svg width="20px" height="18px" viewBox="0 0 20 18" version="1.1" xmlns="http://www.w3.org/2000/svg" xmlns:xlink="http://www.w3.org/1999/xlink">
    <!-- Generator: Sketch 60 (88103) - https://sketch.com -->
    <title>消息</title>
    <desc>Created with Sketch.</desc>
    <g id="页面-1" stroke="none" stroke-width="1" fill="none" fill-rule="evenodd">
        <g id="个人中心" transform="translate(-340.000000, -33.000000)" fill="#666666" fill-rule="nonzero">
            <g id="消息" transform="translate(340.000000, 33.000000)">
                <path d="M16.8750208,0.7500032 L3.1250048,0.7500032 C1.60700303,0.7500032 0.3750016,1.98200463 0.3750016,3.5000064 L0.3750016,11.750016 C0.3750016,13.2680178 1.60700303,14.5000192 3.1250048,14.5000192 L5.870883,14.5000192 L5.870883,15.9052708 C5.870883,16.4208964 6.15963333,16.884272 6.62163387,17.1125222 C6.81275909,17.2046473 7.01625933,17.2513974 7.21838456,17.2513974 C7.5085099,17.2513974 7.79588524,17.1565223 8.03651052,16.9722721 L11.2471393,14.5000192 L16.8750208,14.5000192 C18.3930226,14.5000192 19.625024,13.2680178 19.625024,11.750016 L19.625024,3.5000064 C19.625024,1.98200463 18.3930226,0.7500032 16.8750208,0.7500032 Z M18.2500224,11.750016 C18.2500224,12.5103919 17.6353967,13.1250176 16.8750208,13.1250176 L11.018889,13.1236426 C10.8676388,13.1236426 10.7205136,13.1731427 10.6008885,13.2652678 L7.24450959,15.9066458 L7.24450959,13.8111434 C7.24450959,13.431643 6.93650924,13.1250176 6.5583838,13.1250176 L3.1250048,13.1250176 C2.36462892,13.1250176 1.7500032,12.5103919 1.7500032,11.750016 L1.7500032,3.5000064 C1.7500032,2.73963052 2.36462892,2.1250048 3.1250048,2.1250048 L16.8750208,2.1250048 C17.6353967,2.1250048 18.2500224,2.73963052 18.2500224,3.5000064 L18.2500224,11.750016 L18.2500224,11.750016 Z M5.875008,6.2500096 C5.11463212,6.2500096 4.5000064,6.86463532 4.5000064,7.6250112 C4.5000064,8.38538708 5.11463212,9.0000128 5.875008,9.0000128 C6.63538388,9.0000128 7.2500096,8.38538708 7.2500096,7.6250112 C7.2500096,6.86463532 6.63538388,6.2500096 5.875008,6.2500096 Z M10.0000128,6.2500096 C9.23963692,6.2500096 8.6250112,6.86463532 8.6250112,7.6250112 C8.6250112,8.38538708 9.23963692,9.0000128 10.0000128,9.0000128 C10.7603887,9.0000128 11.3750144,8.38538708 11.3750144,7.6250112 C11.3750144,6.86463532 10.7603887,6.2500096 10.0000128,6.2500096 Z M14.1250176,6.2500096 C13.3646417,6.2500096 12.750016,6.86463532 12.750016,7.6250112 C12.750016,8.38538708 13.3646417,9.0000128 14.1250176,9.0000128 C14.8853935,9.0000128 15.5000192,8.38538708 15.5000192,7.6250112 C15.5000192,6.86463532 14.8853935,6.2500096 14.1250176,6.2500096 Z" id="形状"></path>
            </g>
        </g>
    </g>
</svg>