<?xml version="1.0" encoding="UTF-8"?>
<svg width="53px" height="53px" viewBox="0 0 53 53" version="1.1" xmlns="http://www.w3.org/2000/svg" xmlns:xlink="http://www.w3.org/1999/xlink">
    <!-- Generator: Sketch 60 (88103) - https://sketch.com -->
    <title>头像</title>
    <desc>Created with Sketch.</desc>
    <defs>
        <circle id="path-1" cx="26.5" cy="26.5" r="26.5"></circle>
        <linearGradient x1="50%" y1="-50.9368564%" x2="50%" y2="100%" id="linearGradient-3">
            <stop stop-color="#FFFFFF" offset="0%"></stop>
            <stop stop-color="#CFDFFF" offset="100%"></stop>
        </linearGradient>
        <linearGradient x1="135.559419%" y1="50%" x2="-48.7523142%" y2="50%" id="linearGradient-4">
            <stop stop-color="#CADCFF" offset="0%"></stop>
            <stop stop-color="#FFFFFF" offset="100%"></stop>
        </linearGradient>
        <linearGradient x1="135.559419%" y1="50%" x2="0%" y2="50%" id="linearGradient-5">
            <stop stop-color="#FFFFFF" offset="0%"></stop>
            <stop stop-color="#CADCFF" offset="100%"></stop>
        </linearGradient>
        <linearGradient x1="6.2337319%" y1="-26.5325003%" x2="62.0438104%" y2="94.0276142%" id="linearGradient-6">
            <stop stop-color="#FFFFFF" offset="0%"></stop>
            <stop stop-color="#DBE7FF" offset="100%"></stop>
        </linearGradient>
        <linearGradient x1="30.1783342%" y1="25.6695853%" x2="56.4621979%" y2="65.7332633%" id="linearGradient-7">
            <stop stop-color="#DDE8FE" offset="0%"></stop>
            <stop stop-color="#D5E3FF" offset="100%"></stop>
        </linearGradient>
    </defs>
    <g id="页面-1" stroke="none" stroke-width="1" fill="none" fill-rule="evenodd">
        <g id="个人中心未登录状态" transform="translate(-15.000000, -94.000000)">
            <g id="头像" transform="translate(15.000000, 94.000000)">
                <mask id="mask-2" fill="white">
                    <use xlink:href="#path-1"></use>
                </mask>
                <use id="蒙版" fill="#F5FAFF" xlink:href="#path-1"></use>
                <g id="编组-12" mask="url(#mask-2)">
                    <g transform="translate(6.263636, 4.818182)">
                        <path d="M-5.68434189e-14,42.5255726 C3.23266193,38.7210138 6.12532341,36.5626195 8.67798443,36.0503899 C11.2306454,35.5381603 13.1326248,34.3445366 14.3839225,32.469519 L24.5060087,32.8167849 C25.6736351,34.007751 27.5040738,35.0856193 29.9973247,36.0503899 C32.4905757,37.0151605 34.6567284,38.3027215 36.4957828,39.9130728 C40.1281124,42.8160218 39.2085852,45.0256818 33.7372012,46.542053 C25.5301251,48.8166098 16.6183582,49.9695765 10.921936,47.9540065 C7.12432122,46.6102931 3.48367589,44.8008152 -5.68434189e-14,42.5255726 Z" id="路径-51" fill="url(#linearGradient-3)"></path>
                        <path d="M24.8611832,30.1137556 L24.8611832,33.5592822 C20.9306887,35.8562999 17.2508653,35.8562999 13.821713,33.5592822 C13.8426308,32.8864825 13.8426308,31.5857192 13.821713,29.6569925 L24.8611832,30.1137556 Z" id="路径-50" fill="#E5EDFF"></path>
                        <path d="M9.20495942,16.071891 C5.91588793,16.9057958 4.49441854,18.2493642 4.94055127,20.1025965 C5.38668399,21.9558287 6.80815337,23.1518905 9.20495942,23.6907818 L9.20495942,16.071891 Z" id="路径-48" fill="url(#linearGradient-4)"></path>
                        <path d="M29.3989805,16.071891 C32.2911276,16.5663748 33.7372012,17.8361899 33.7372012,19.8813364 C33.7372012,21.9264829 32.2911276,23.196298 29.3989805,23.6907818 L28.711264,23.6907818 L29.3989805,16.071891 Z" id="路径-49" fill="url(#linearGradient-5)"></path>
                        <path d="M8.67798443,13.9138397 L8.67798443,23.6035956 C10.3574766,29.0358873 13.8892197,31.9756139 19.2732137,32.4227753 C22.5094705,31.9202331 27.5625132,31.5599149 29.9876802,23.1683075 C30.0005396,20.7336951 30.0005396,15.6050651 29.9876802,7.78241761 L9.1010561,7.78241761 L8.67798443,13.9138397 Z" id="路径-47" fill="url(#linearGradient-6)"></path>
                        <path d="M8.50548073,15.5648352 C7.74300346,14.8141023 7.36176482,14.1440739 7.36176482,13.55475 C7.36176482,12.6707642 6.97736425,7.92741477 8.50548073,5.38928693 C8.46091255,4.42565057 8.8075205,4.16878125 9.54530459,4.61867898 C12.330816,1.53955966 15.5734523,1.0658141e-14 19.2732137,1.0658141e-14 C21.697512,0.0252954545 27.6527847,1.47436364 30.2591199,0.749829545 C30.018512,1.32680682 29.7035233,1.89505114 29.314154,2.4545625 C30.904154,3.79311364 31.5494893,5.56906534 31.2501597,7.78241761 C31.6247733,8.82705966 32.0123358,9.46531818 32.4128472,9.69719318 L31.2501597,9.69719318 C31.7214381,12.7272273 31.3910915,14.683108 30.2591199,15.5648352 C28.7206143,14.5417244 24.9913415,12.4742727 23.5174296,9.69719318 C20.7539012,10.1326364 10.5851285,9.22335511 9.54530459,13.55475 C9.15503187,14.3289716 8.80842391,14.999 8.50548073,15.5648352 Z" id="路径-46" fill="url(#linearGradient-7)"></path>
                    </g>
                </g>
            </g>
        </g>
    </g>
</svg>