<?xml version="1.0" encoding="UTF-8"?>
<svg width="103px" height="18px" viewBox="0 0 103 18" version="1.1" xmlns="http://www.w3.org/2000/svg" xmlns:xlink="http://www.w3.org/1999/xlink">
    <!-- Generator: Sketch 60 (88103) - https://sketch.com -->
    <title>团长招募令</title>
    <desc>Created with Sketch.</desc>
    <g id="页面-1" stroke="none" stroke-width="1" fill="none" fill-rule="evenodd">
        <g id="我的伙伴" transform="translate(-133.000000, -231.000000)" fill="#000000" fill-rule="nonzero">
            <path d="M140.762195,248.25021 L141.0625,248.25 C146.322917,248.145833 149.03125,245.177083 149.1875,239.34375 C149.135417,234.604167 147.104167,232.208333 143.09375,232.15625 C141.114583,232.15625 138.927083,232.598958 136.53125,233.484375 L136.53125,233.484375 L135.515625,233.015625 C134.109375,235.567708 133.40625,238.223958 133.40625,240.984375 C133.354167,245.880208 135.90625,248.302083 141.0625,248.25 L140.762195,248.25021 Z M140.828125,247 C136.869792,247 134.916667,245.046875 134.96875,241.140625 C135.020833,239.265625 135.411458,237.338542 136.140625,235.359375 C138.536458,234.213542 140.697917,233.614583 142.625,233.5625 C145.958333,233.510417 147.598958,235.359375 147.546875,239.109375 C147.494792,244.317708 145.255208,246.947917 140.828125,247 Z M142.3125,245.671875 C143.770833,245.776042 144.447917,245.098958 144.34375,243.640625 L144.34375,243.640625 L144.34375,238.71875 L144.34375,238.71875 L146.21875,238.71875 L146.21875,237.234375 C145.59375,237.234375 144.942708,237.260417 144.265625,237.3125 C144.265625,236.166667 144.239583,235.307292 144.1875,234.734375 L144.1875,234.734375 L142.703125,234.734375 L142.703125,234.734375 L142.703125,235.984375 C142.755208,236.557292 142.78125,237 142.78125,237.3125 C141.84375,237.364583 140.463542,237.364583 138.640625,237.3125 L138.640625,237.3125 L136.53125,237.3125 L136.53125,238.796875 C136.947917,238.796875 137.598958,238.770833 138.484375,238.71875 L138.484375,238.71875 L140.359375,238.71875 C139.057292,240.541667 137.755208,242.104167 136.453125,243.40625 L136.453125,243.40625 L137.46875,244.421875 C139.135417,242.651042 140.671875,240.75 142.078125,238.71875 L142.078125,238.71875 L142.859375,238.71875 L142.859375,238.71875 L142.859375,242.9375 C142.911458,243.770833 142.625,244.161458 142,244.109375 C141.635417,244.109375 141.244792,244.057292 140.828125,243.953125 L140.828125,243.953125 L140.59375,243.953125 L140.59375,245.515625 C141.166667,245.619792 141.739583,245.671875 142.3125,245.671875 Z M161.53125,247.9375 C162.572917,247.9375 163.510417,247.651042 164.34375,247.078125 L164.34375,247.078125 L163.640625,245.828125 C163.015625,246.296875 162.364583,246.53125 161.6875,246.53125 C160.59375,246.53125 160.020833,245.958333 159.96875,244.8125 C159.916667,244.5 160.046875,242.9375 160.359375,240.125 C163.015625,239.864583 166.401042,239.578125 170.515625,239.265625 L170.515625,239.265625 L170.4375,237.703125 C167.833333,238.015625 164.526042,238.328125 160.515625,238.640625 C160.671875,237.078125 160.90625,234.916667 161.21875,232.15625 L161.21875,232.15625 L159.578125,231.84375 C159.317708,234.760417 159.161458,236.557292 159.109375,237.234375 C159.057292,237.963542 159.005208,238.484375 158.953125,238.796875 C157.078125,238.901042 155.671875,238.979167 154.734375,239.03125 L154.734375,239.03125 L154.8125,240.515625 C155.489583,240.515625 156.713542,240.411458 158.484375,240.203125 L158.484375,240.203125 L158.796875,240.203125 C158.588542,242.859375 158.484375,244.447917 158.484375,244.96875 C158.484375,246.947917 159.5,247.9375 161.53125,247.9375 Z M162.15625,237.9375 C164.03125,236.635417 165.984375,235.411458 168.015625,234.265625 L168.015625,234.265625 L167.078125,232.9375 C165.203125,234.239583 163.25,235.489583 161.21875,236.6875 L161.21875,236.6875 L162.15625,237.9375 Z M168.640625,247 L169.65625,245.90625 C167.15625,244.239583 164.916667,242.546875 162.9375,240.828125 L162.9375,240.828125 L162,242.15625 C164.96875,244.239583 167.182292,245.854167 168.640625,247 L168.640625,247 Z M178.484375,248.09375 C180.098958,248.145833 180.880208,247.15625 180.828125,245.125 C180.828125,243.927083 180.776042,242.651042 180.671875,241.296875 L180.671875,241.296875 L180.671875,241.0625 C181.140625,240.802083 181.609375,240.515625 182.078125,240.203125 L182.078125,240.203125 L181.453125,238.953125 C181.348958,239.005208 181.21875,239.083333 181.0625,239.1875 C180.854167,239.291667 180.697917,239.369792 180.59375,239.421875 L180.59375,239.421875 L180.59375,238.40625 C180.541667,237.9375 180.515625,237.572917 180.515625,237.3125 L180.515625,237.3125 L181.21875,237.3125 C181.583333,237.364583 181.869792,237.390625 182.078125,237.390625 L182.078125,237.390625 L182.234375,235.90625 C181.609375,235.90625 180.984375,235.880208 180.359375,235.828125 C180.307292,234.630208 180.229167,233.328125 180.125,231.921875 L180.125,231.921875 L178.484375,232 C178.640625,233.25 178.744792,234.5 178.796875,235.75 L178.796875,235.75 L178.5625,235.75 C177.46875,235.645833 176.661458,235.541667 176.140625,235.4375 L176.140625,235.4375 L175.984375,236.921875 C177.078125,236.973958 178.067708,237.052083 178.953125,237.15625 C179.057292,238.25 179.109375,239.34375 179.109375,240.4375 C178.744792,240.645833 178.171875,240.984375 177.390625,241.453125 C176.661458,241.921875 176.088542,242.286458 175.671875,242.546875 L175.671875,242.546875 L176.296875,243.875 C176.557292,243.71875 176.947917,243.484375 177.46875,243.171875 C178.25,242.651042 178.822917,242.286458 179.1875,242.078125 C179.1875,242.390625 179.213542,242.885417 179.265625,243.5625 L179.265625,243.5625 L179.265625,244.734375 C179.265625,246.088542 178.875,246.739583 178.09375,246.6875 C177.885417,246.6875 177.651042,246.661458 177.390625,246.609375 L177.390625,246.609375 L177.46875,248.09375 L177.46875,248.09375 L178.484375,248.09375 Z M184.421875,239.890625 C185.359375,237.546875 186.21875,235.541667 187,233.875 C187.208333,233.875 187.46875,233.848958 187.78125,233.796875 L187.78125,233.796875 L188.328125,233.796875 C189.578125,233.744792 190.177083,234.291667 190.125,235.4375 C190.072917,237.15625 189.473958,238.067708 188.328125,238.171875 C187.911458,238.171875 187.546875,238.09375 187.234375,237.9375 L187.234375,237.9375 L186.921875,239.5 C187.390625,239.65625 187.885417,239.734375 188.40625,239.734375 C190.541667,239.630208 191.635417,238.119792 191.6875,235.203125 C191.739583,233.223958 190.59375,232.260417 188.25,232.3125 C186.270833,232.364583 184.317708,232.703125 182.390625,233.328125 L182.390625,233.328125 L182.859375,234.890625 C183.588542,234.578125 184.395833,234.34375 185.28125,234.1875 C184.604167,235.854167 183.848958,237.546875 183.015625,239.265625 L183.015625,239.265625 L184.421875,239.890625 Z M186.120407,248.173325 L186.375,248.171875 C189.864583,248.171875 191.609375,246.505208 191.609375,243.171875 C191.661458,241.296875 190.671875,240.385417 188.640625,240.4375 C187.442708,240.4375 186.140625,240.671875 184.734375,241.140625 L184.734375,241.140625 L183.484375,240.671875 C182.807292,241.661458 182.442708,243.041667 182.390625,244.8125 C182.286458,247.104167 183.614583,248.223958 186.375,248.171875 L186.120407,248.173325 Z M186.296875,246.84375 C184.630208,246.895833 183.822917,246.192708 183.875,244.734375 C183.875,244.161458 183.953125,243.5625 184.109375,242.9375 C185.932292,242.208333 187.46875,241.84375 188.71875,241.84375 C189.708333,241.791667 190.177083,242.3125 190.125,243.40625 C190.072917,245.645833 188.796875,246.791667 186.296875,246.84375 Z M197.859375,246.453125 C198.484375,245.776042 199.473958,244.8125 200.828125,243.5625 C201.296875,243.145833 201.635417,242.833333 201.84375,242.625 C203.770833,242.46875 205.75,242.338542 207.78125,242.234375 C209.135417,243.015625 210.802083,244.109375 212.78125,245.515625 L212.78125,245.515625 L213.71875,244.265625 C212.416667,243.536458 211.401042,242.9375 210.671875,242.46875 C210.359375,242.3125 210.125,242.182292 209.96875,242.078125 C210.802083,241.973958 211.609375,241.921875 212.390625,241.921875 L212.390625,241.921875 L212.390625,240.59375 C212.130208,240.59375 211.739583,240.619792 211.21875,240.671875 C207.78125,240.984375 205.177083,241.21875 203.40625,241.375 C203.510417,241.270833 203.666667,241.114583 203.875,240.90625 C204.03125,240.802083 204.135417,240.723958 204.1875,240.671875 C208.458333,240.411458 210.619792,239.213542 210.671875,237.078125 C210.723958,235.984375 210.072917,235.307292 208.71875,235.046875 C208.875,234.734375 208.979167,234.369792 209.03125,233.953125 L209.03125,233.953125 L211.84375,233.953125 L211.6875,232.703125 L211.6875,232.703125 L209.421875,232.703125 C209.578125,232.286458 209.734375,231.921875 209.890625,231.609375 L209.890625,231.609375 L208.328125,231.21875 C208.276042,231.375 208.197917,231.609375 208.09375,231.921875 C207.989583,232.286458 207.911458,232.546875 207.859375,232.703125 C205.984375,232.755208 204.083333,232.78125 202.15625,232.78125 L202.15625,232.78125 L202.15625,231.53125 L200.59375,231.609375 C200.59375,231.713542 200.619792,231.895833 200.671875,232.15625 L200.671875,232.15625 L200.671875,232.78125 L200.671875,232.78125 L198.484375,232.78125 L198.5625,234.109375 L200.75,234.03125 L200.75,234.03125 L200.75,235.203125 L200.046875,235.046875 C199.265625,236.088542 198.848958,237.130208 198.796875,238.171875 C198.796875,239.630208 199.890625,240.4375 202.078125,240.59375 L202.078125,240.59375 L201.140625,241.53125 C199.838542,241.635417 199.760417,241.635417 200.90625,241.53125 C199.291667,241.635417 198.067708,241.6875 197.234375,241.6875 L197.234375,241.6875 L197.390625,243.09375 C198.171875,242.989583 198.901042,242.911458 199.578125,242.859375 C198.640625,243.692708 197.677083,244.552083 196.6875,245.4375 L196.6875,245.4375 L197.859375,246.453125 Z M202.234375,235.203125 L202.234375,233.953125 L202.234375,233.953125 L207.546875,233.953125 C207.546875,234.057292 207.494792,234.213542 207.390625,234.421875 C207.338542,234.630208 207.286458,234.786458 207.234375,234.890625 L207.234375,234.890625 L206.375,234.890625 C204.65625,234.890625 203.276042,234.994792 202.234375,235.203125 L202.234375,235.203125 Z M203.09375,239.265625 C201.427083,239.317708 200.515625,239.03125 200.359375,238.40625 C202.703125,238.302083 205.020833,238.302083 207.3125,238.40625 L207.3125,238.40625 L207.3125,237.15625 C205.072917,237.208333 202.78125,237.208333 200.4375,237.15625 L200.4375,237.15625 L200.515625,237.078125 C201.817708,236.505208 204.005208,236.21875 207.078125,236.21875 C208.380208,236.21875 209.03125,236.505208 209.03125,237.078125 C209.03125,238.536458 207.052083,239.265625 203.09375,239.265625 Z M201.0625,248.328125 C202,247.286458 202.833333,246.166667 203.5625,244.96875 C204.760417,244.864583 205.880208,244.8125 206.921875,244.8125 C207.703125,244.8125 208.067708,245.072917 208.015625,245.59375 C208.015625,246.479167 207.520833,246.921875 206.53125,246.921875 C206.0625,246.921875 205.411458,246.765625 204.578125,246.453125 L204.578125,246.453125 L204.109375,247.703125 C205.151042,248.015625 206.0625,248.171875 206.84375,248.171875 C208.71875,248.171875 209.65625,247.182292 209.65625,245.203125 C209.708333,244.057292 208.822917,243.484375 207,243.484375 C206.166667,243.484375 205.307292,243.510417 204.421875,243.5625 C204.421875,243.510417 204.447917,243.458333 204.5,243.40625 L204.5,243.40625 L204.5,243.328125 L203.25,242.625 C203.197917,242.729167 203.119792,242.911458 203.015625,243.171875 C202.859375,243.432292 202.755208,243.640625 202.703125,243.796875 C201.869792,243.901042 201.140625,244.005208 200.515625,244.109375 C200.359375,244.161458 200.255208,244.1875 200.203125,244.1875 L200.203125,244.1875 L200.515625,245.59375 C200.776042,245.4375 201.036458,245.359375 201.296875,245.359375 C201.505208,245.307292 201.661458,245.255208 201.765625,245.203125 C201.401042,245.828125 200.776042,246.609375 199.890625,247.546875 L199.890625,247.546875 L201.0625,248.328125 Z M219.03125,239.890625 C221.322917,237.807292 223.666667,235.802083 226.0625,233.875 C228.510417,235.385417 231.244792,237.208333 234.265625,239.34375 L234.265625,239.34375 L235.28125,237.859375 C232.416667,236.244792 229.786458,234.552083 227.390625,232.78125 C227.494792,232.729167 227.598958,232.651042 227.703125,232.546875 C227.859375,232.442708 227.963542,232.364583 228.015625,232.3125 L228.015625,232.3125 L226.765625,230.984375 C223.901042,233.692708 220.90625,236.244792 217.78125,238.640625 L217.78125,238.640625 L219.03125,239.890625 Z M229.421875,248.953125 L230.28125,247.546875 C229.34375,247.130208 228.614583,246.817708 228.09375,246.609375 C227.721726,246.460565 227.416135,246.338329 227.176977,246.242666 L226.921875,246.140625 C230.046875,244.421875 231.635417,242.546875 231.6875,240.515625 C231.6875,238.848958 230.567708,238.015625 228.328125,238.015625 C228.015625,238.015625 227.703125,238.041667 227.390625,238.09375 C226.713542,237.260417 226.166667,236.557292 225.75,235.984375 C225.59375,235.723958 225.463542,235.541667 225.359375,235.4375 L225.359375,235.4375 L224.109375,236.296875 C224.682292,236.973958 225.229167,237.677083 225.75,238.40625 C224.083333,238.822917 222.46875,239.421875 220.90625,240.203125 L220.90625,240.203125 L221.6875,241.765625 C224.291667,240.411458 226.583333,239.708333 228.5625,239.65625 C229.552083,239.65625 230.020833,239.942708 229.96875,240.515625 C229.8125,242.338542 228.171875,243.927083 225.046875,245.28125 C224.265625,244.864583 223.588542,244.5 223.015625,244.1875 L223.015625,244.1875 L222.234375,245.4375 C222.598958,245.645833 223.223958,245.958333 224.109375,246.375 C226.348958,247.364583 228.119792,248.223958 229.421875,248.953125 L229.421875,248.953125 Z" id="团长招募令"></path>
        </g>
    </g>
</svg>