<?xml version="1.0" encoding="UTF-8"?>
<svg width="22px" height="19px" viewBox="0 0 22 19" version="1.1" xmlns="http://www.w3.org/2000/svg" xmlns:xlink="http://www.w3.org/1999/xlink">
    <!-- Generator: Sketch 60 (88103) - https://sketch.com -->
    <title>小伙伴</title>
    <desc>Created with Sketch.</desc>
    <g id="页面-1" stroke="none" stroke-width="1" fill="none" fill-rule="evenodd">
        <g id="个人中心" transform="translate(-124.000000, -200.000000)">
            <g id="小伙伴" transform="translate(124.000000, 200.000000)">
                <circle id="椭圆形" fill="#FFBFF2" cx="16.5" cy="5.5" r="4.5"></circle>
                <path d="M19,16.5 C19,14.0147186 16.9852814,12 14.5,12 C12.0147186,12 10,14.0147186 10,16.5 C10,18.9852814 19,18.9852814 19,16.5 Z" id="椭圆形备份-3" fill="#FFBFF2"></path>
                <path d="M5.26662136,11.1216403 C2.36637775,11.1216403 0.0074550868,8.7627176 0.0074550868,5.86247399 C0.0074550868,2.9622089 2.36637775,0.603329201 5.26662136,0.603329201 C8.16688646,0.603329201 10.5257876,2.96225187 10.5257876,5.86249548 C10.5257876,8.76276057 8.16684349,11.1216403 5.26662136,11.1216403 Z M5.26662136,1.95695382 C3.11323995,1.95695382 1.36107971,3.70912481 1.36107971,5.86249548 C1.36107971,8.01587689 3.11325069,9.76803713 5.26662136,9.76803713 C7.42000277,9.76803713 9.17216302,8.01586615 9.17216302,5.86249548 C9.17216302,3.70911407 7.41997055,1.95695382 5.26662136,1.95695382 Z" id="形状" fill="#F41449" fill-rule="nonzero"></path>
                <path d="M16.7334042,11.1216403 C13.8331606,11.1216403 11.4735719,8.7627176 11.4735719,5.86247399 C11.4735719,2.9622089 13.8331606,0.603329201 16.7334042,0.603329201 C19.6336478,0.603329201 21.9925705,2.96225187 21.9925705,5.86249548 C21.9925705,8.76276057 19.6336264,11.1216403 16.7334042,11.1216403 Z M16.7330712,2.21968959 C14.5790453,2.21968959 13.0340227,3.70912481 13.0340227,5.86249548 C13.0340227,8.01587689 14.5790345,9.5 16.7330712,9.5 C18.8864526,9.5 20.4397492,8.01586615 20.4397492,5.86249548 C20.4397492,3.70911407 18.8864419,2.21968959 16.7330712,2.21968959 Z" id="形状" fill="#F41449" fill-rule="nonzero"></path>
                <path d="M19.0619265,17.3966964 L17.7083019,17.3966964 C17.7083019,14.947883 16.2852719,12.9551404 14.5357435,12.9551404 C12.7862108,12.9551404 11.3631851,14.9478937 11.3631851,17.3966964 L10.0095605,17.3966964 C10.0095605,14.2009993 12.0399953,11.6015158 14.535722,11.6015158 C17.0314573,11.6015158 19.0619265,14.2010208 19.0619265,17.3966964 Z" id="路径" fill="#F41449" fill-rule="nonzero"></path>
                <path d="M4.27122763,17.3966964 L2.917603,17.3966964 C2.917603,14.2009993 4.94803779,11.6015158 7.44376452,11.6015158 C8.38494667,11.6015158 9.28583268,11.9637213 10.0485547,12.6484463 L9.14437295,13.6557381 C8.63412059,13.1976993 8.04588632,12.9551383 7.44375808,12.9551383 C5.69424901,12.9551163 4.27122118,14.9478916 4.27122118,17.3966964 L4.27122763,17.3966964 Z" id="路径" fill="#F41449" fill-rule="nonzero"></path>
                <path d="M3.13272415,7.12285632 C3.62646789,8.22644335 4.86785801,8.82760479 6.06246799,8.48226239 C7.25718325,8.13687703 7.9862091,6.96608036 7.8150128,5.76923385 L3.13272415,7.12285847 L3.13272415,7.12285632 Z" id="路径" fill="#F41449" fill-rule="nonzero"></path>
                <path d="M18.8670007,7.12285632 C18.3732569,8.22644335 17.1318668,8.82760479 15.9372568,8.48226239 C14.7425416,8.13687703 14.0135157,6.96608036 14.184712,5.76923385 L18.8670007,7.12285847 L18.8670007,7.12285632 Z" id="路径" fill="#F41449" fill-rule="nonzero"></path>
            </g>
        </g>
    </g>
</svg>