<?xml version="1.0" encoding="UTF-8"?>
<svg width="16px" height="16px" viewBox="0 0 16 16" version="1.1" xmlns="http://www.w3.org/2000/svg" xmlns:xlink="http://www.w3.org/1999/xlink">
    <!-- Generator: Sketch 60 (88103) - https://sketch.com -->
    <title>铁粉权益</title>
    <desc>Created with Sketch.</desc>
    <g id="页面-1" stroke="none" stroke-width="1" fill="none" fill-rule="evenodd">
        <g id="团长信息" transform="translate(-42.000000, -383.000000)" fill="#3E3E3E" fill-rule="nonzero">
            <g id="编组-4" transform="translate(30.000000, 367.000000)">
                <g id="铁粉权益" transform="translate(12.000000, 16.000000)">
                    <path d="M13.7708013,7.31969605 C14.203051,7.16343897 14.6272954,7.57832877 14.5428829,8.0740422 L12.6887193,14.6691865 L12.6887193,14.6691865 C12.6425885,14.9755864 12.3954602,15.2029408 12.1021985,15.2087752 L3.90691768,15.2087752 L3.9069177,15.2087752 C3.61365728,15.2029408 3.36652818,14.9755864 3.32039687,14.6691865 L1.46623321,8.07404214 C1.38182086,7.57832871 1.8060651,7.16343747 2.23758711,7.31969599 L5.30918196,8.43120283 L7.47988907,4.00826998 L7.47988907,4.00826997 C7.62237143,3.70197289 7.97261345,3.57585005 8.26217698,3.72656418 C8.37790883,3.78680126 8.47154744,3.88585054 8.52849394,4.00826997 L10.6999302,8.43120283 L13.7707959,7.31969599 L13.7708013,7.31969605 Z M11.2964544,13.5299194 L12.7346021,9.00342748 L10.3742555,9.85724239 L10.3742554,9.85724241 C10.1207223,9.94656124 9.84375295,9.82438888 9.7253248,9.57099579 L8.00459081,6.06430771 L6.28385682,9.57099579 L6.28385681,9.57099581 C6.16547197,9.82404543 5.88892689,9.94615619 5.63559113,9.85724242 L3.27524447,9.00342751 L4.71272601,13.5299194 L11.2964457,13.5299194 L11.2964544,13.5299194 Z M2.6226364,4.86361497 L2.6226364,4.86361497 C2.6226364,5.52673987 2.07527672,6.06430771 1.40007296,6.06430771 C0.724869201,6.06430771 0.177509528,5.52673987 0.177509528,4.86361497 L0.177509528,4.86361515 C0.177509528,4.20049025 0.724869201,3.66292241 1.40007296,3.66292241 C2.07527672,3.66292241 2.6226364,4.20049025 2.6226364,4.86361515 C2.6226364,4.86361515 2.6226364,4.86361515 2.6226364,4.86361515 L2.6226364,4.86361497 Z M9.25475063,1.40562356 L9.25475063,1.40562356 C9.25475063,2.06874846 8.70739096,2.6063163 8.0321872,2.6063163 C7.35698344,2.6063163 6.80962376,2.06874846 6.80962376,1.40562356 L6.80962376,1.40562375 C6.80962376,0.742498848 7.35698344,0.204931007 8.0321872,0.204931007 C8.70739096,0.204931007 9.25475063,0.742498848 9.25475063,1.40562375 C9.25475063,1.40562375 9.25475063,1.40562375 9.25475063,1.40562375 L9.25475063,1.40562356 Z M15.9655284,4.86361497 L15.9655284,4.86361497 C15.9655284,5.52673987 15.4181687,6.06430771 14.742965,6.06430771 C14.0677612,6.06430771 13.5204015,5.52673987 13.5204015,4.86361497 L13.5204015,4.86361483 C13.5204015,4.20048993 14.0677627,3.66292209 14.742965,3.66292209 C15.4181687,3.66292209 15.9655284,4.20049142 15.9655284,4.86361483 L15.9655284,4.86361497 Z" id="形状"></path>
                </g>
            </g>
        </g>
    </g>
</svg>