<?xml version="1.0" encoding="UTF-8"?>
<svg width="16px" height="16px" viewBox="0 0 16 16" version="1.1" xmlns="http://www.w3.org/2000/svg" xmlns:xlink="http://www.w3.org/1999/xlink">
    <!-- Generator: Sketch 60 (88103) - https://sketch.com -->
    <title>盈利模式</title>
    <desc>Created with Sketch.</desc>
    <g id="页面-1" stroke="none" stroke-width="1" fill="none" fill-rule="evenodd">
        <g id="团长信息" transform="translate(-207.000000, -289.000000)" fill="#3E3E3E" fill-rule="nonzero">
            <g id="编组-3" transform="translate(195.000000, 273.000000)">
                <g id="盈利模式" transform="translate(12.000000, 16.000000)">
                    <path d="M3.52990875,10.9964921 L3.52990872,10.9964921 C3.95623339,10.9964921 4.30184004,11.3624267 4.30184004,11.8138312 L4.30184004,15.0831913 L4.30184004,15.0831913 C4.30184004,15.5345939 3.9562352,15.9005303 3.52990872,15.9005303 L0.828157218,15.9005303 L0.828157184,15.9005303 C0.40183251,15.9005303 0.0562258581,15.5345958 0.0562258581,15.0831913 L0.0562258581,11.8138312 L0.0562258581,11.8138311 C0.0562258581,11.3624285 0.401830701,10.9964921 0.828157184,10.9964921 L3.52990868,10.9964921 L3.52990875,10.9964921 Z M15.0052803,6.50113795 L15.0052803,15.0831913 C15.0052803,15.5345939 14.6596754,15.9005303 14.233349,15.9005303 L11.5315975,15.9005303 C11.1052728,15.9005303 10.7596661,15.5345958 10.7596661,15.0831913 L10.7596661,6.50113795 C10.7596661,6.04973525 11.1052709,5.6837988 11.5315974,5.6837988 L14.2333489,5.6837988 C14.6596736,5.6837988 15.0052803,6.04973344 15.0052803,6.50113795 Z M8.85351594,8.54447683 L8.85351591,8.54447683 C9.27984058,8.54447683 9.62544723,8.9104115 9.62544723,9.36181601 L9.62544723,15.0831913 L9.62544723,15.0831913 C9.62544723,15.5345939 9.27984239,15.9005303 8.85351591,15.9005303 L6.15176441,15.9005303 L6.15176438,15.9005303 C5.7254397,15.9005303 5.37983305,15.5345958 5.37983305,15.0831913 L5.37983305,9.36181601 L5.37983305,9.36181589 C5.37983305,8.91041329 5.72543789,8.54447683 6.15176438,8.54447683 L8.85351587,8.54447683 L8.85351594,8.54447683 Z M2.99316298,12.2225036 L1.36488493,12.2225036 L1.36488493,14.6744979 L2.99316298,14.6744979 L2.99316298,12.2225036 Z M13.6966032,6.94550585 L12.0683252,6.94550585 L12.0683252,14.6388157 L13.6966032,14.6388157 L13.6966032,6.94550585 Z M8.31677017,9.77047111 L6.68849212,9.77047111 L6.68849212,14.6745094 L8.31677017,14.6745094 L8.31677017,9.77047111 Z M11.0265079,0 L11.0716659,0.0012344314 L14.6526585,0.333074465 L14.6526586,0.333074468 C14.8650239,0.352586379 15.0222409,0.550686989 15.0038123,0.775542533 C14.9963945,0.866054269 14.9607031,0.951368308 14.902378,1.01800278 L14.8668692,1.0531484 L7.893639,7.24856718 L7.89363901,7.24856717 C7.7437888,7.38202883 7.5232968,7.37552907 7.38069104,7.23344643 L7.34981375,7.19870962 L5.86114475,5.32005791 L1.13036129,9.52321431 L1.13036129,9.52321431 C0.967143535,9.66808761 0.723943384,9.64559247 0.586922665,9.472948 L0.0905706072,8.84686613 L0.0905706226,8.84686615 C-0.0466207048,8.67412245 -0.0255797428,8.41632868 0.137567092,8.27106593 C0.137726071,8.27092438 0.137885159,8.27078296 0.138044353,8.27064168 L6.05141966,3.01719904 L6.05141966,3.01719903 C6.21467161,2.87207 6.45812704,2.89454617 6.5951948,3.06740117 C6.59521176,3.06742256 6.59522873,3.06744396 6.59524568,3.06746536 L8.08391469,4.94611706 L11.6317083,1.79364919 L10.7420587,0.671034239 L10.7420587,0.671034212 C10.6875374,0.602247139 10.6559324,0.516360708 10.6521287,0.426650665 L10.6532866,0.37270633 L10.6532866,0.372706316 C10.6704299,0.166231308 10.8308424,0.00604383443 11.0265145,0 L11.0265079,0 Z" id="形状"></path>
                </g>
            </g>
        </g>
    </g>
</svg>