<?xml version="1.0" encoding="UTF-8"?>
<svg width="16px" height="18px" viewBox="0 0 16 18" version="1.1" xmlns="http://www.w3.org/2000/svg" xmlns:xlink="http://www.w3.org/1999/xlink">
    <!-- Generator: Sketch 60 (88103) - https://sketch.com -->
    <title>编组</title>
    <desc>Created with Sketch.</desc>
    <g id="页面-1" stroke="none" stroke-width="1" fill="none" fill-rule="evenodd">
        <g id="个人中心" transform="translate(-15.000000, -402.000000)" fill-rule="nonzero">
            <g id="编组" transform="translate(15.000000, 402.000000)">
                <path d="M15,10.4612903 C14.4387097,10.0677419 14.0709677,9.41290323 14.0709677,8.67419355 C14.0709677,7.93548387 14.4387097,7.28387097 15,6.88709677 C15.5774194,6.48387097 15.7322581,5.69677419 15.4258065,5.06451613 C15.2516129,4.70967742 15.0548387,4.36774194 14.8354839,4.04193548 C14.4419355,3.46129032 13.683871,3.20967742 13.0483871,3.50645161 C12.4258065,3.79677419 11.6774194,3.78709677 11.0354839,3.41935484 C10.4064516,3.05483871 10.0290323,2.42903226 9.95806452,1.75806452 C9.88387097,1.04516129 9.30967742,0.493548387 8.59677419,0.441935484 C8.4,0.429032258 8.20322581,0.419354839 8.00322581,0.419354839 C7.80322581,0.419354839 7.60645161,0.425806452 7.40967742,0.441935484 C6.69677419,0.493548387 6.12258065,1.04516129 6.0483871,1.75806452 C5.98709677,2.32258065 5.70967742,2.8516129 5.2483871,3.22580645 C6.12903226,4.14193548 6.91935484,5.12258065 7.62580645,6.15806452 C7.7483871,6.13870968 7.87419355,6.12580645 8.00322581,6.12580645 C9.41290323,6.12580645 10.5516129,7.26774194 10.5516129,8.67419355 C10.5516129,9.32258065 10.3064516,9.91290323 9.90967742,10.3645161 C10.3903226,11.5096774 10.7870968,12.6935484 11.0967742,13.9032258 C11.7225806,13.5645161 12.4451613,13.5645161 13.0483871,13.8451613 C13.683871,14.1419355 14.4419355,13.8903226 14.8354839,13.3096774 C15.0548387,12.983871 15.2548387,12.6419355 15.4258065,12.2870968 C15.7322581,11.6483871 15.5741935,10.8645161 15,10.4612903 Z" id="路径" fill="#FFC7C7"></path>
                <path d="M15.2322581,10.1290323 C14.7580645,9.79677419 14.4741935,9.2516129 14.4741935,8.67096774 C14.4741935,8.09032258 14.7580645,7.5483871 15.2322581,7.21290323 C15.9483871,6.70967742 16.1903226,5.70645161 15.7903226,4.88387097 C15.6096774,4.51290323 15.4,4.1516129 15.1709677,3.80967742 C14.6580645,3.05483871 13.6741935,2.76451613 12.8806452,3.13225806 C12.3548387,3.37741935 11.7419355,3.3483871 11.2419355,3.06129032 C10.7516129,2.77741935 10.4225806,2.27096774 10.3612903,1.70645161 C10.2645161,0.8 9.53548387,0.0967741935 8.62580645,0.0322580645 C8.21290323,0.00322580645 7.79354839,0.00322580645 7.38064516,0.0322580645 C6.47096774,0.0967741935 5.74193548,0.803225806 5.64516129,1.70645161 C5.58387097,2.27096774 5.25483871,2.77741935 4.76451613,3.06129032 C4.26451613,3.3516129 3.6516129,3.37741935 3.12580645,3.13225806 C2.33225806,2.76451613 1.3483871,3.05483871 0.835483871,3.80967742 C0.603225806,4.1516129 0.393548387,4.51290323 0.216129032,4.88387097 C-0.183870968,5.70645161 0.0548387097,6.70645161 0.774193548,7.21290323 C1.2483871,7.54516129 1.53225806,8.09032258 1.53225806,8.67096774 C1.53225806,9.2483871 1.2483871,9.79354839 0.774193548,10.1290323 C0.0580645161,10.6322581 -0.183870968,11.6354839 0.216129032,12.4580645 C0.396774194,12.8290323 0.606451613,13.1903226 0.835483871,13.5322581 C1.3483871,14.2870968 2.33225806,14.5774194 3.12580645,14.2096774 C3.6516129,13.9645161 4.26451613,13.9935484 4.76451613,14.2806452 C5.25483871,14.5645161 5.58387097,15.0709677 5.64516129,15.6354839 C5.74193548,16.5419355 6.47096774,17.2451613 7.38064516,17.3096774 C7.58709677,17.3258065 7.79677419,17.3322581 8.00322581,17.3322581 C8.20967742,17.3322581 8.41935484,17.3258065 8.62580645,17.3096774 C9.53548387,17.2451613 10.2645161,16.5387097 10.3612903,15.6354839 C10.4225806,15.0709677 10.7483871,14.5645161 11.2419355,14.2806452 C11.7419355,13.9903226 12.3548387,13.9645161 12.8806452,14.2096774 C13.6741935,14.5774194 14.6612903,14.2870968 15.1709677,13.5322581 C15.4032258,13.1903226 15.6129032,12.8290323 15.7903226,12.4580645 C16.1870968,11.6354839 15.9483871,10.6354839 15.2322581,10.1290323 L15.2322581,10.1290323 Z M15.0645161,12.1064516 C14.9,12.4419355 14.7129032,12.7709677 14.5032258,13.0806452 C14.2096774,13.5129032 13.6580645,13.6806452 13.2193548,13.4774194 C12.4548387,13.1225806 11.5645161,13.1612903 10.8354839,13.583871 C10.1225806,13.9967742 9.64516129,14.7322581 9.55806452,15.5516129 C9.50322581,16.0677419 9.08709677,16.4709677 8.56774194,16.5064516 C8.19354839,16.5322581 7.80967742,16.5322581 7.43870968,16.5064516 C6.91935484,16.4677419 6.50322581,16.0677419 6.4483871,15.5516129 C6.36129032,14.7322581 5.88387097,13.9967742 5.17096774,13.583871 C4.77419355,13.3548387 4.32580645,13.2387097 3.87741935,13.2387097 C3.50645161,13.2387097 3.13225806,13.3193548 2.78709677,13.4806452 C2.3483871,13.683871 1.79677419,13.5129032 1.50322581,13.083871 C1.29354839,12.7741935 1.10322581,12.4451613 0.938709677,12.1096774 C0.709677419,11.6387097 0.835483871,11.0741935 1.23548387,10.7935484 C1.92580645,10.3096774 2.33548387,9.51935484 2.33548387,8.67741935 C2.33548387,7.83548387 1.92258065,7.04516129 1.23548387,6.56129032 C0.838709677,6.28064516 0.709677419,5.71612903 0.938709677,5.24516129 C1.10322581,4.90967742 1.29032258,4.58064516 1.50322581,4.27096774 C1.79677419,3.83870968 2.3483871,3.67096774 2.78709677,3.87419355 C3.5516129,4.22903226 4.44193548,4.19032258 5.17096774,3.76774194 C5.88387097,3.35483871 6.36129032,2.61935484 6.4483871,1.8 C6.50322581,1.28387097 6.91935484,0.880645161 7.43870968,0.84516129 C7.81290323,0.819354839 8.19677419,0.819354839 8.56774194,0.84516129 C9.08709677,0.883870968 9.50322581,1.28387097 9.55806452,1.8 C9.64516129,2.61935484 10.1225806,3.35483871 10.8354839,3.76774194 C11.5645161,4.18709677 12.4548387,4.22903226 13.2193548,3.87419355 C13.6580645,3.67096774 14.2096774,3.84193548 14.5032258,4.27096774 C14.7129032,4.58064516 14.9032258,4.90967742 15.0645161,5.24516129 C15.2935484,5.71612903 15.1677419,6.28064516 14.7677419,6.56129032 C14.0774194,7.04516129 13.6677419,7.83548387 13.6677419,8.67741935 C13.6677419,9.51935484 14.0806452,10.3096774 14.7677419,10.7935484 C15.1645161,11.0677419 15.2935484,11.6354839 15.0645161,12.1064516 L15.0645161,12.1064516 Z" id="形状" fill="#E75757"></path>
                <path d="M8,5.71935484 C6.37096774,5.71935484 5.0483871,7.04516129 5.0483871,8.67096774 C5.0483871,10.2967742 6.37419355,11.6225806 8,11.6225806 C9.62903226,11.6225806 10.9516129,10.2967742 10.9516129,8.67096774 C10.9516129,7.04516129 9.62903226,5.71935484 8,5.71935484 L8,5.71935484 Z M8,10.8193548 C6.81612903,10.8193548 5.85483871,9.85806452 5.85483871,8.67419355 C5.85483871,7.49032258 6.81612903,6.52903226 8,6.52903226 C9.18387097,6.52903226 10.1451613,7.49032258 10.1451613,8.67419355 C10.1451613,9.85806452 9.18387097,10.8193548 8,10.8193548 Z" id="形状" fill="#E75757"></path>
            </g>
        </g>
    </g>
</svg>