<?xml version="1.0" encoding="UTF-8"?>
<svg width="16px" height="15px" viewBox="0 0 16 15" version="1.1" xmlns="http://www.w3.org/2000/svg" xmlns:xlink="http://www.w3.org/1999/xlink">
    <!-- Generator: Sketch 60 (88103) - https://sketch.com -->
    <title>system-add friend</title>
    <desc>Created with Sketch.</desc>
    <g id="页面-1" stroke="none" stroke-width="1" fill="none" fill-rule="evenodd">
        <g id="编辑/添加-地址" transform="translate(-344.000000, -88.000000)" fill="#B5B5B5" fill-rule="nonzero">
            <g id="system-add-friend" transform="translate(344.000000, 88.000000)">
                <path d="M12.8648153,10.8641626 L15.5677247,10.8641626 L15.5677247,12.0224206 L12.8648153,12.0224206 L12.8648153,14.725348 L11.7065393,14.725348 L11.7065393,12.0224386 L9.00361179,12.0224386 L9.00361179,10.8641626 L11.7065393,10.8641626 L11.7065393,8.16123514 L12.8647972,8.16123514 L12.8647972,10.8641626 L12.8648153,10.8641626 Z M1.47509809,14.725348 L0.315790821,14.725348 L0.316315493,14.1456401 L0.31646023,13.9706531 C0.316604967,13.7882845 0.316695427,13.6934093 0.316785888,13.5502825 L0.316984901,13.264644 C0.317165823,12.9831486 0.317274375,12.7556583 0.317274375,12.6016581 C0.317274375,11.3334 1.68599801,10.3048265 3.99522273,9.20214754 C4.52959178,8.94400908 5.59197953,8.5342586 5.5885963,8.5358688 C5.61086771,8.4457881 5.56565548,8.35720905 5.469333,8.22882732 C5.42350565,8.16774831 5.36924736,8.10169395 5.28944299,8.00891753 C5.27381139,7.99075303 5.26306467,7.97832374 5.23570937,7.94675298 C5.20790178,7.91472992 5.20790178,7.91472992 5.17926194,7.8816756 L5.17926221,7.88167592 C5.13913225,7.83550879 5.09932867,7.78905925 5.05985418,7.74233036 C4.9387093,7.59857033 4.84061379,7.47257676 4.74971895,7.3399072 C4.07019678,6.34733696 3.86199259,5.29933245 3.86199259,4.11350213 C3.86199259,2.54395589 4.44057879,1.41918649 5.42804704,0.732047533 C6.09504946,0.267948309 6.89434151,0.0526339135 7.48296884,0.0526339135 L7.82118305,0.0526339135 C8.40979229,0.0526339135 9.20910243,0.267948309 9.87606867,0.732047533 C10.8635369,1.41918649 11.4421412,2.54395589 11.4421412,4.11350213 C11.4421412,5.29982094 11.2340456,6.34739124 10.5543606,7.33994338 C10.4635381,7.47263103 10.3653702,7.59871506 10.2441168,7.74261984 L10.2441172,7.74261937 C10.2046901,7.78930339 10.1649346,7.83570897 10.1248539,7.88183285 L10.0684607,7.94687405 C10.0411416,7.97840862 10.0303949,7.99083791 10.0147633,8.00898432 C9.9350313,8.10170646 9.8808092,8.16770654 9.83501803,8.22874938 C9.77415611,8.30991065 9.73370212,8.37515086 9.70895209,8.43060323 L8.74026346,9.2073344 L8.78343128,9.27937724 C8.60931265,9.09395104 8.51868919,8.86108728 8.51868919,8.56218726 C8.51868919,8.18813255 8.65548376,7.87088712 8.90848405,7.53363179 C8.97283775,7.44783893 9.04151546,7.36421712 9.13662577,7.25361995 C9.11945634,7.27359366 9.30880853,7.05502268 9.35841714,6.9961509 C9.45683831,6.87934813 9.53257195,6.78206677 9.59873486,6.68541863 C10.1166039,5.92916775 10.2839018,5.08694309 10.2839018,4.11344195 C10.2839018,2.92037478 9.88857072,2.15187553 9.21456665,1.68287334 C8.75687203,1.36437955 8.18734999,1.21095831 7.82121963,1.21095831 L7.48300542,1.21095831 C7.11687506,1.21095831 6.54733492,1.36437955 6.0896584,1.68287334 C5.41565433,2.15187553 5.02032328,2.92037478 5.02032328,4.11346005 C5.02032328,5.08649078 5.18772972,5.92914966 5.70541783,6.68532817 C5.77156264,6.78188585 5.8472601,6.87909484 5.9455908,6.99578906 C5.99525369,7.05469702 6.18494963,7.27362984 6.1675631,7.25342094 C6.26276387,7.36409047 6.33149586,7.44776656 6.39588573,7.53359561 C6.64890412,7.87085093 6.78571678,8.18811446 6.78571678,8.56218726 C6.78571678,9.05204968 6.5423415,9.3645007 6.08692649,9.58153384 C6.0359067,9.60584966 4.97735448,10.0141166 4.49670096,10.2463109 C2.65873994,11.12396 1.47560534,12.0130794 1.47560534,12.6016163 C1.47560534,12.7238829 1.47555106,12.8922301 1.47542442,13.0970149 L1.47517113,13.0970149 L1.47517113,13.4975927 L1.47511685,13.5510911 L1.47517113,13.5511092 L1.47517113,14.725348 L1.47509809,14.725348 Z" id="形状"></path>
            </g>
        </g>
    </g>
</svg>