<?xml version="1.0" encoding="UTF-8"?>
<svg width="266px" height="116px" viewBox="0 0 266 116" version="1.1" xmlns="http://www.w3.org/2000/svg" xmlns:xlink="http://www.w3.org/1999/xlink">
    <!-- Generator: Sketch 60 (88103) - https://sketch.com -->
    <title>矩形</title>
    <desc>Created with Sketch.</desc>
    <defs>
        <path d="M10,0 L254,0 C259.522847,-1.01453063e-15 264,4.4771525 264,10 L264,99 L264,99 L0,99 L0,10 C-6.76353751e-16,4.4771525 4.4771525,1.01453063e-15 10,0 Z" id="path-1"></path>
        <linearGradient x1="50%" y1="0%" x2="50%" y2="100%" id="linearGradient-3">
            <stop stop-color="#FF9939" offset="0%"></stop>
            <stop stop-color="#ED773A" offset="100%"></stop>
        </linearGradient>
        <linearGradient x1="50%" y1="0%" x2="50%" y2="100%" id="linearGradient-4">
            <stop stop-color="#FF9939" offset="0%"></stop>
            <stop stop-color="#EF7A3D" offset="100%"></stop>
        </linearGradient>
        <linearGradient x1="50%" y1="0%" x2="50%" y2="97.7512669%" id="linearGradient-5">
            <stop stop-color="#FF9939" stop-opacity="0" offset="0%"></stop>
            <stop stop-color="#EF7A3D" offset="100%"></stop>
        </linearGradient>
        <linearGradient x1="50%" y1="58.2502877%" x2="50%" y2="97.9133362%" id="linearGradient-6">
            <stop stop-color="#EF7A3D" stop-opacity="0" offset="0%"></stop>
            <stop stop-color="#FF3E00" offset="100%"></stop>
        </linearGradient>
        <linearGradient x1="50%" y1="-4.40780017%" x2="50%" y2="96.5903181%" id="linearGradient-7">
            <stop stop-color="#FF0000" stop-opacity="0" offset="0%"></stop>
            <stop stop-color="#F5843C" offset="100%"></stop>
        </linearGradient>
        <linearGradient x1="50%" y1="13.5121996%" x2="79.7846917%" y2="59.4978297%" id="linearGradient-8">
            <stop stop-color="#FF9976" offset="0%"></stop>
            <stop stop-color="#FFD333" offset="100%"></stop>
        </linearGradient>
        <linearGradient x1="50%" y1="13.2653061%" x2="79.7846917%" y2="59.5620965%" id="linearGradient-9">
            <stop stop-color="#FF9976" offset="0%"></stop>
            <stop stop-color="#FFD333" offset="100%"></stop>
        </linearGradient>
        <linearGradient x1="50%" y1="13.2653061%" x2="89.90694%" y2="57.722271%" id="linearGradient-10">
            <stop stop-color="#05D6FF" offset="0%"></stop>
            <stop stop-color="#FFD952" offset="100%"></stop>
        </linearGradient>
    </defs>
    <g id="页面-1" stroke="none" stroke-width="1" fill="none" fill-rule="evenodd">
        <g id="卡片弹窗" transform="translate(-55.000000, -110.000000)">
            <g id="编组-6" transform="translate(52.000000, 109.000000)">
                <g id="矩形">
                    <g transform="translate(0.000000, 0.428156)">
                        <g id="编组-7" transform="translate(3.000000, 17.571844)">
                            <mask id="mask-2" fill="white">
                                <use xlink:href="#path-1"></use>
                            </mask>
                            <use id="蒙版" fill="#E66F2D" xlink:href="#path-1"></use>
                            <rect id="矩形" fill="url(#linearGradient-3)" mask="url(#mask-2)" transform="translate(138.500000, -6.500000) rotate(31.000000) translate(-138.500000, 6.500000) " x="118" y="-86" width="41" height="159" rx="20.5"></rect>
                            <rect id="矩形备份" fill="url(#linearGradient-4)" mask="url(#mask-2)" transform="translate(53.500000, 7.500000) rotate(31.000000) translate(-53.500000, -7.500000) " x="33" y="-72" width="41" height="159" rx="20.5"></rect>
                            <rect id="矩形备份-8" fill="url(#linearGradient-5)" mask="url(#mask-2)" transform="translate(120.500000, 76.500000) rotate(31.000000) translate(-120.500000, -76.500000) " x="100" y="-3" width="41" height="159" rx="20.5"></rect>
                            <rect id="矩形备份-5" fill="url(#linearGradient-4)" mask="url(#mask-2)" transform="translate(261.500000, 51.500000) rotate(31.000000) translate(-261.500000, -51.500000) " x="241" y="-28" width="41" height="159" rx="20.5"></rect>
                            <rect id="矩形备份-4" fill="url(#linearGradient-6)" mask="url(#mask-2)" transform="translate(29.338584, 1.249687) rotate(31.000000) translate(-29.338584, -1.249687) " x="10.3385843" y="-65.2503132" width="38" height="133" rx="19"></rect>
                            <rect id="矩形备份-7" fill="url(#linearGradient-7)" opacity="0.81749907" mask="url(#mask-2)" transform="translate(247.000000, 7.500000) rotate(-330.000000) translate(-247.000000, -7.500000) " x="228" y="-59" width="38" height="133" rx="19"></rect>
                            <polygon id="三角形" fill="#FFC058" mask="url(#mask-2)" transform="translate(42.987450, 68.883022) rotate(-40.000000) translate(-42.987450, -68.883022) " points="42.7961017 63.8830222 49.0475011 73.7132706 36.9273989 73.8830222"></polygon>
                        </g>
                        <path d="M256.763534,23.5718441 C263.114809,23.5718441 268.263534,18.4231187 268.263534,12.0718441 C268.263534,5.72056949 263.114809,0.571844112 256.763534,0.571844112 C250.41226,0.571844112 231.945588,4.43490154 227,35.8215309 C236.211763,25.978484 250.41226,23.5718441 256.763534,23.5718441 Z" id="椭圆形" fill="url(#linearGradient-8)"></path>
                        <path d="M34.2456247,25.1464861 C39.6328174,25.1464861 44,20.7645532 44,15.3591651 C44,9.95377698 39.6328174,5.57184411 34.2456247,5.57184411 C28.8584319,5.57184411 13.1948801,8.85958178 9,35.5718441 C16.8134778,27.1947085 28.8584319,25.1464861 34.2456247,25.1464861 Z" id="椭圆形备份" fill="url(#linearGradient-9)" transform="translate(26.500000, 20.571844) scale(-1, 1) translate(-26.500000, -20.571844) "></path>
                        <path d="M256.571606,96.4206919 L256.592163,96.453018 C257.941441,98.5747397 257.315251,101.38854 255.193529,102.737818 C254.481584,103.190568 253.657833,103.436578 252.814205,103.448394 L252.115633,103.458178 C249.590583,103.493544 247.514956,101.475255 247.479591,98.9502055 C247.467892,98.1148897 247.685259,97.2923314 248.108092,96.5718441 C249.494657,94.2092007 252.533991,93.417933 254.896635,94.8044981 C255.575244,95.2027538 256.149373,95.7567359 256.571606,96.4206919 Z" id="三角形备份" fill="#FFBA4A" transform="translate(252.484072, 96.571844) rotate(-40.000000) translate(-252.484072, -96.571844) "></path>
                        <path d="M23.7538926,44.1130067 C27.7558072,44.1130067 31,40.8578566 31,36.8424254 C31,32.8269942 27.7558072,29.5718441 23.7538926,29.5718441 C19.751978,29.5718441 8.11619666,32.0141635 5,51.8575584 C10.8042978,45.6345433 19.751978,44.1130067 23.7538926,44.1130067 Z" id="椭圆形备份-2" fill="url(#linearGradient-10)" transform="translate(18.000000, 40.714701) scale(-1, 1) rotate(42.000000) translate(-18.000000, -40.714701) "></path>
                    </g>
                </g>
            </g>
        </g>
    </g>
</svg>