<?xml version="1.0" encoding="UTF-8"?>
<svg width="16px" height="16px" viewBox="0 0 16 16" version="1.1" xmlns="http://www.w3.org/2000/svg" xmlns:xlink="http://www.w3.org/1999/xlink">
    <!-- Generator: Sketch 60 (88103) - https://sketch.com -->
    <title>累计</title>
    <desc>Created with Sketch.</desc>
    <g id="页面-1" stroke="none" stroke-width="1" fill="none" fill-rule="evenodd">
        <g id="团长信息" transform="translate(-42.000000, -289.000000)" fill="#3E3E3E" fill-rule="nonzero">
            <g id="编组-2" transform="translate(30.000000, 273.000000)">
                <g id="累计" transform="translate(12.000000, 16.000000)">
                    <path d="M12.3341204,0 C12.7818959,0.248594925 12.8829057,0.611441035 12.880985,1.06659305 C12.8646683,4.92137455 12.8719277,8.77623828 12.8713965,12.631102 C12.871308,13.354436 12.5986421,13.5997162 11.7882567,13.599953 C8.23333087,13.6010547 4.67838649,13.6006714 1.12346061,13.6002678 C0.273503488,13.6001891 0.0089802083,13.3687572 0.00889325371,12.6219739 C0.00818503628,8.75397034 0.0148246302,4.88603258 1.99890693e-05,1.01811127 C-0.00173011874,0.572244288 0.110877581,0.225922429 0.559891131,0 L12.3341169,0 L12.3341204,0 Z M1.38531345,6.80850312 C1.38531345,8.33188743 1.38429393,9.85527864 1.38568418,11.3787439 C1.38642564,12.1718652 1.65539293,12.4171261 2.53690442,12.4177856 C5.16170538,12.4199276 7.78648697,12.4196804 10.4112879,12.4178679 C11.1919586,12.4173736 11.4942002,12.1448442 11.4946631,11.4394618 C11.4965167,8.33774619 11.4964241,5.23603054 11.4947558,2.13438376 C11.494385,1.46632312 11.1762963,1.17583255 10.4313078,1.1749252 C7.77565145,1.17162979 5.11999509,1.17204171 2.46433873,1.17459566 C1.68385205,1.17533712 1.3866175,1.44926705 1.38587565,2.15596829 C1.38430003,3.70678652 1.38531956,5.25759786 1.38531956,6.80850733 L1.38531345,6.80850312 Z M5.3403993,15.7383371 C5.26523907,15.6802628 5.15165787,15.6345428 5.1220008,15.5617539 C5.02276082,15.3182038 4.86482611,15.056003 4.89528057,14.8177252 C4.93387879,14.516179 5.23212972,14.3406187 5.59624562,14.3185063 C5.72850652,14.3104798 5.86165324,14.3129192 5.99435706,14.3129192 C8.36938308,14.3126044 10.7445016,14.3126831 13.1195276,14.3126831 L13.6723849,14.3126831 L13.6723849,13.8374645 C13.6723849,11.5033976 13.6722964,9.16931428 13.6726505,6.83524737 C13.6726505,6.70414714 13.6670733,6.57233943 13.6802639,6.44210406 C13.7238197,6.01323495 14.0719111,5.7220756 14.5167653,5.7345099 C14.9441786,5.74639233 15.2677496,6.03652809 15.2767781,6.45886676 C15.2916614,7.15363522 15.2820897,7.84871777 15.2821783,8.54372139 C15.2823553,10.6155184 15.2705811,12.6874635 15.2916614,14.7590961 C15.2959886,15.2004768 15.1528388,15.5210667 14.7244518,15.7383371 L5.34038583,15.7383371 L5.3403993,15.7383371 Z M7.63646314,7.51428247 C7.0169431,7.51436116 6.39733611,7.52112864 5.77800292,7.51239388 C5.21602647,7.50452471 4.8427933,7.2231241 4.82889351,6.8180974 C4.81437491,6.39473583 5.1967281,6.08351156 5.77401966,6.07997088 C7.02775322,6.07233779 8.28156819,6.07249519 9.53521294,6.08004957 C10.0803683,6.08335462 10.4607743,6.39025259 10.4621049,6.79637948 C10.4635173,7.20825071 10.0964808,7.5027945 9.5391074,7.51184271 C8.90515844,7.52207262 8.27076547,7.51420345 7.63646684,7.51428216 L7.63646314,7.51428247 Z M7.61087851,3.93451595 C6.99135847,3.93459464 6.37175147,3.93789969 5.75232579,3.93357164 C5.2084988,3.92971576 4.83048312,3.63344138 4.82959719,3.22086135 C4.8287135,2.80694432 5.19982369,2.51310933 5.75365416,2.51090565 C7.02217185,2.50586939 8.29078574,2.50531856 9.55930529,2.5113778 C10.1005662,2.51397463 10.4753942,2.82740246 10.4622918,3.24124219 C10.4497208,3.6354084 10.0755122,3.92814156 9.55797692,3.93294195 C8.90897742,3.93900121 8.25989096,3.93443709 7.61089701,3.93451578 L7.61087851,3.93451595 Z M7.64186339,10.7252135 C7.00773683,10.7252922 6.37352146,10.7308006 5.73948185,10.7236397 C5.19202497,10.717423 4.82295081,10.418709 4.82844005,10.0037691 C4.83357469,9.61770878 5.21105878,9.30239127 5.72443316,9.29845591 L5.72443666,9.29845588 C7.0071335,9.28867386 8.28991175,9.28872436 9.57260304,9.29860737 C10.0865084,9.30254195 10.4550497,9.61502672 10.4609811,10.0088772 C10.4671781,10.4188605 10.0957145,10.7160783 9.54347695,10.7231613 C8.909528,10.7313452 8.27522382,10.7251286 7.64109541,10.7252073 L7.64186339,10.7252135 Z M3.21191527,9.30309843 C3.61684247,9.29766872 4.00105413,9.62683594 4.01583826,9.99172785 C4.0317733,10.3849501 3.67252671,10.7164778 3.22554864,10.7210413 C2.80229622,10.7253694 2.42941642,10.41257 2.41843794,10.0439795 C2.40701782,9.66138097 2.78459079,9.30884278 3.21191527,9.30309843 L3.21191527,9.30309843 Z M3.23528663,3.93200968 C2.82079813,3.94058706 2.43977419,3.62503324 2.41985419,3.25675688 C2.39913864,2.87242662 2.76759301,2.52224998 3.20014032,2.51516698 C3.64171796,2.50800605 4.01689929,2.83567792 4.01566463,3.22756152 C4.0145107,3.59985217 3.65614872,3.92335287 3.23528663,3.93200804 L3.23528663,3.93200968 Z M4.01460147,6.79244175 C4.01521931,7.1755123 3.66358612,7.49468624 3.23440228,7.50043058 C2.78007562,7.50648984 2.40728462,7.17897568 2.4182631,6.78347083 C2.42835529,6.41952288 2.81734769,6.08201407 3.2251962,6.08334711 C3.63455068,6.08468883 4.01398169,6.4255024 4.01460147,6.79244175 L4.01460147,6.79244175 Z" id="形状"></path>
                </g>
            </g>
        </g>
    </g>
</svg>