<?xml version="1.0" encoding="UTF-8"?>
<svg width="20px" height="20px" viewBox="0 0 20 20" version="1.1" xmlns="http://www.w3.org/2000/svg" xmlns:xlink="http://www.w3.org/1999/xlink">
    <!-- Generator: Sketch 60 (88103) - https://sketch.com -->
    <title>wenhao</title>
    <desc>Created with Sketch.</desc>
    <g id="页面-1" stroke="none" stroke-width="1" fill="none" fill-rule="evenodd">
        <g id="团长信息" transform="translate(-299.000000, -103.000000)" fill-rule="nonzero">
            <g id="编组-4" transform="translate(32.000000, 93.000000)">
                <g id="wenhao" transform="translate(266.333333, 10.000000)">
                    <path d="M0.666666667,10 L0.666666667,10 C0.666666667,15.5228516 5.1438151,20 10.6666667,20 C16.1895182,20 20.6666667,15.5228516 20.6666667,10 L20.6666667,10 C20.6666667,4.47714844 16.1895182,0 10.6666667,0 C5.1438151,0 0.666666667,4.47714844 0.666666667,10 L0.666666667,10 Z" id="路径" fill-opacity="0.260380245" fill="#FFFDFD"></path>
                    <path d="M10.8218548,4 C11.99535,4 12.9282256,4.30442056 13.6413835,4.94727375 C14.3196753,5.55441287 14.6666667,6.39284243 14.6666667,7.46425843 C14.6666667,8.26867592 14.429527,8.96424921 13.9726818,9.55438828 C13.7878519,9.76697267 13.29439,10.2329555 12.4888104,10.9285288 C12.0860206,11.2686634 11.8105186,11.59009 11.6274324,11.9115166 C11.3902927,12.3026714 11.2804409,12.7312402 11.2804409,13.2142291 L11.2804409,13.6257918 L9.8157507,13.6257918 L9.8157507,13.2142291 C9.8157507,12.625798 9.92560247,12.107093 10.145306,11.6615182 C10.4016268,11.1241072 11.006684,10.4455399 11.9936049,9.59010234 C12.286543,9.30438981 12.5079895,9.08840541 12.6160983,8.94724915 C12.9822708,8.49997233 13.1671001,8.03568947 13.1671001,7.53569254 C13.1671001,6.82141122 12.9456536,6.2686942 12.5446068,5.87583947 C12.1226358,5.44557067 11.5175806,5.24999231 10.7486182,5.24999231 C9.83318681,5.24999231 9.15664009,5.53570484 8.71723301,6.12413593 C8.3144432,6.62413286 8.11392081,7.30270011 8.11392081,8.17855171 L6.66666667,8.17855171 C6.66666667,6.9285594 7.01540312,5.92856555 7.74774824,5.17857016 C8.48009337,4.39286071 9.50537654,4 10.8218609,4 L10.8218548,4 Z M10.5480979,14.8757901 C10.858472,14.8757901 11.133974,14.9642249 11.3536775,15.1785087 L11.3536776,15.1785087 C11.559102,15.3759643 11.6720066,15.6472658 11.6657968,15.9285041 L11.6657968,15.9285045 C11.6775397,16.2199488 11.5562063,16.5014741 11.3344985,16.6972079 L11.3344984,16.697208 C11.122807,16.8941798 10.8406559,17.0027924 10.5480999,16.9999265 L10.5480999,16.9999265 C10.2549411,17.0032367 9.97208102,16.8945923 9.75995635,16.697208 L9.75995636,16.697208 C9.550202,16.494987 9.43752425,16.2159211 9.4495822,15.9285045 C9.4495822,15.625786 9.54199725,15.3757875 9.75995636,15.1785092 L9.75995635,15.1785092 C9.96729134,14.9739285 10.2534147,14.8640301 10.5480999,14.8757906 L10.5480979,14.8757901 Z" id="形状" fill="#FFFFFF"></path>
                </g>
            </g>
        </g>
    </g>
</svg>